# File generated by ImageToStl.com - Free Image and 3D model conversion tools

mtllib road_block_a.mtl

o obj1
v 0.45205087 -0.95211109 2.07789102
v 0.39282629 -0.91837811 2.07863171
v 0.39363616 -0.96579615 2.00094101
v 0.46320148 -0.96741809 2.04788152
v 0.05436073 -0.90369358 2.07814089
v -0.05631444 -0.90919525 2.07836177
v -0.05632916 -0.9664141 2.01170114
v 0.05439353 -0.9666774 2.00178875
v 0.15232513 -0.91917904 2.07860272
v 0.15215379 -0.96605273 2.01850128
v 0.46295607 -0.96767004 -2.04810036
v 0.38578299 -0.9642588 -1.99101076
v 0.38453362 -0.9050811 -2.07966477
v 0.45223381 -0.95192347 -2.07772594
v -0.28767623 -0.96640947 -1.98796554
v -0.38645227 -0.96528952 -2.00873619
v -0.385281 -0.91043995 -2.07908685
v -0.28775655 -0.89263646 -2.07835958
v -0.16460197 -0.96762989 -2.00914005
v -0.16449176 -0.91158669 -2.07729535
v -0.05648734 -0.96425209 -2.02008767
v -0.05615626 -0.90866634 -2.0801935
v 0.05448835 -0.96897291 -1.98808814
v 0.05426592 -0.90394546 -2.0763383
v 0.16508744 -0.96397542 -2.00852648
v 0.16506447 -0.90894075 -2.08006411
v 0.2871118 -0.9693388 -1.9836775
v 0.28690432 -0.91270671 -2.07641184
v -0.85522019 -0.95275365 2.23101683
v -0.84694531 -0.96656138 2.20748846
v -0.62683766 -0.96659483 2.20768035
v -0.63559439 -0.95275365 2.23101683
v 0.86557879 -0.95275345 -2.20424027
v 0.85451294 -0.95275345 -2.23101692
v 0.85451294 0.67405274 -2.23101684
v 0.86557879 0.71003239 -2.2042402
v -0.86628604 -0.95275365 2.20424019
v -0.85522019 -0.95275365 2.23101683
v -0.85522019 0.66476482 2.2310169
v -0.86628604 0.71088446 2.20424026
v 0.84623806 -0.96656119 -2.20774294
v 0.85451294 -0.95275345 -2.23101692
v 0.86557879 -0.95275345 -2.20424027
v -0.85522019 -0.95275345 -2.23101692
v -0.84694531 -0.96656119 -2.20760012
v -0.86628604 -0.95275345 -2.20424027
v 0.85451294 -0.95275365 2.23101683
v 0.84623806 -0.96656138 2.20745283
v 0.86557879 -0.95275365 2.20424019
v -0.86628604 -0.95275365 2.20424019
v -0.62683766 -0.96660135 -2.20768044
v -0.57713949 -0.95271329 -2.20279904
v -0.45287859 -0.95187221 -2.07764562
v -0.46374809 -0.96773919 -2.04820514
v -0.57715738 0.75144004 -2.20277889
v -0.62681758 0.77700306 -2.20769831
v -0.46434155 0.7768982 -2.04738406
v -0.45243238 0.75153598 -2.07826363
v 0.62611033 0.7769986 -2.20769153
v 0.57645013 0.75144004 -2.20277889
v 0.45172513 0.75153598 -2.07826363
v 0.4636343 0.7768982 -2.04738406
v 0.57643231 -0.95271329 -2.20279904
v 0.62612821 -0.96660581 -2.20768496
v 0.46295607 -0.96767004 -2.04810036
v 0.45223381 -0.95192347 -2.07772594
v 0.62611033 0.7769986 -2.20769153
v 0.63488714 0.75149583 -2.23101684
v 0.60523695 0.75149583 -2.22275539
v 0.62611033 0.7769986 -2.20769153
v 0.57645013 0.75144004 -2.20277889
v -0.62683766 -0.96660135 -2.20768044
v -0.63559439 -0.95275345 -2.23101692
v -0.6059442 -0.95275345 -2.22275546
v -0.62683766 -0.96660135 -2.20768044
v -0.57713949 -0.95271329 -2.20279904
v -0.62681758 0.77700306 -2.20769831
v -0.57715738 0.75144004 -2.20277889
v -0.6059442 0.75149583 -2.22275539
v -0.62681758 0.77700306 -2.20769831
v -0.63559439 0.75149583 -2.23101684
v 0.62612821 -0.96660581 -2.20768496
v 0.57643231 -0.95271329 -2.20279904
v 0.60523695 -0.95275345 -2.22275546
v 0.62612821 -0.96660581 -2.20768496
v 0.63488714 -0.95275345 -2.23101692
v 0.45172513 0.75153598 -2.07826363
v -0.45243238 0.75153598 -2.07826363
v 0.63488714 -0.95275345 -2.23101692
v -0.57713949 -0.95271123 2.20279896
v -0.4642233 -0.96701876 2.04764961
v -0.45252161 -0.95241002 2.07806496
v -0.62681758 0.77701397 2.20770942
v -0.57715738 0.75144211 2.20277896
v -0.45243238 0.7515358 2.0782637
v -0.46434155 0.77689802 2.04738412
v 0.57645013 0.75144211 2.20277896
v 0.62611033 0.77701397 2.20770729
v 0.4636343 0.77689802 2.04738412
v 0.45172513 0.7515358 2.0782637
v 0.62612821 -0.96659483 2.20767823
v 0.57643231 -0.95271123 2.20279896
v 0.45205087 -0.95211109 2.07789102
v 0.46320148 -0.96741809 2.04788152
v 0.60523695 0.75149564 2.22275546
v 0.63488714 0.75149563 2.23101691
v 0.62611033 0.77701397 2.20770729
v 0.57645013 0.75144211 2.20277896
v 0.62611033 0.77701397 2.20770729
v -0.6059442 -0.95275365 2.22275538
v -0.63559439 -0.95275365 2.23101683
v -0.62683766 -0.96659483 2.20768035
v -0.57713949 -0.95271123 2.20279896
v -0.62683766 -0.96659483 2.20768035
v -0.6059442 0.75149564 2.22275546
v -0.57715738 0.75144211 2.20277896
v -0.62681758 0.77701397 2.20770942
v -0.63559439 0.75149563 2.23101691
v -0.62681758 0.77701397 2.20770942
v 0.60523695 -0.95275365 2.22275538
v 0.57643231 -0.95271123 2.20279896
v 0.62612821 -0.96659483 2.20767823
v 0.63488714 -0.95275365 2.23101683
v 0.62612821 -0.96659483 2.20767823
v 0.45172513 0.7515358 2.0782637
v -0.45243238 0.7515358 2.0782637
v -0.86628604 -0.95275365 2.20424019
v -0.86628604 -0.95275345 -2.20424027
v 0.86557879 -0.95275345 -2.20424027
v 0.86557879 -0.95275365 2.20424019
v 0.45223381 -0.95192347 -2.07772594
v 0.45172513 0.75153598 -2.07826363
v -0.45243238 0.75153598 -2.07826363
v -0.45287859 -0.95187221 -2.07764562
v 0.85451294 0.67405274 -2.23101684
v 0.85451294 -0.95275345 -2.23101692
v 0.79428437 0.75149583 -2.23101684
v -0.85522019 -0.95275345 -2.23101692
v -0.85522019 0.64407462 -2.23101685
v -0.79224301 0.75149583 -2.23101684
v 0.45172513 0.7515358 2.0782637
v 0.45205087 -0.95211109 2.07789102
v -0.63559439 -0.95275345 -2.23101692
v -0.45243238 0.7515358 2.0782637
v -0.45252161 -0.95241002 2.07806496
v 0.63488714 -0.95275365 2.23101683
v 0.85451294 -0.95275365 2.23101683
v 0.85451294 0.62904847 2.2310169
v 0.78257824 0.75149563 2.23101691
v -0.85522019 -0.95275365 2.23101683
v -0.7798787 0.75149563 2.23101691
v -0.85522019 0.66476482 2.2310169
v 0.80887749 0.77695392 -2.20743275
v 0.79428437 0.75149583 -2.23101684
v 0.63488714 0.75149583 -2.23101684
v 0.84590568 0.77665498 -2.18181396
v 0.86591117 0.75179476 -2.18212633
v 0.86557879 0.71003239 -2.2042402
v 0.85451294 0.67405274 -2.23101684
v 0.79428437 0.75149583 -2.23101684
v 0.80887749 0.77695392 -2.20743275
v -0.86628604 -0.95275345 -2.20424027
v -0.86628604 0.66544999 -2.2042402
v -0.85522019 0.64407462 -2.23101685
v -0.85522019 -0.95275345 -2.23101692
v -0.63559439 0.75149583 -2.23101684
v -0.79224301 0.75149583 -2.23101684
v -0.79797002 0.77695392 -2.20758222
v -0.79797002 0.77695392 -2.20758222
v -0.79224301 0.75149583 -2.23101684
v -0.85522019 0.64407462 -2.23101685
v -0.86628604 0.66544999 -2.2042402
v -0.86628604 0.75149583 -2.14700126
v -0.84694531 0.77695392 -2.15201204
v -0.84694531 0.77695373 2.18431283
v -0.86628604 0.75149564 2.18576523
v -0.86628604 0.71088446 2.20424026
v -0.85522019 0.66476482 2.2310169
v -0.7798787 0.75149563 2.23101691
v -0.8020171 0.77695373 2.20784107
v -0.8020171 0.77695373 2.20784107
v -0.7798787 0.75149563 2.23101691
v -0.63559439 0.75149563 2.23101691
v 0.84623806 0.77695373 2.11350925
v 0.78314047 0.77695373 2.20782325
v 0.78257824 0.75149563 2.23101691
v 0.85451294 0.62904847 2.2310169
v 0.86557879 0.64070554 2.20424026
v 0.86557879 0.75149564 2.10695671
v 0.86557879 -0.95275365 2.20424019
v 0.86557879 0.64070554 2.20424026
v 0.85451294 0.62904847 2.2310169
v 0.85451294 -0.95275365 2.23101683
v 0.84619345 0.77694042 0.90153614
v 0.84623806 0.77695373 2.11350925
v 0.86557879 0.75149564 2.10695671
v 0.86557879 0.75149569 0.94290809
v 0.63488714 0.75149563 2.23101691
v 0.78257824 0.75149563 2.23101691
v 0.78314047 0.77695373 2.20782325
v -0.45287859 -0.95187221 -2.07764562
v -0.46374809 -0.96773919 -2.04820514
v 0.26896693 -0.90657157 2.07792892
v 0.26914541 -0.96698079 1.98881758
v -0.16355093 -0.92972062 2.07834395
v -0.26599299 -0.9300151 2.07864062
v -0.26599299 -0.96594562 2.03255676
v -0.16355339 -0.9664387 2.03572472
v -0.4642233 -0.96701876 2.04764961
v -0.38596816 -0.96678671 2.02346313
v -0.38576514 -0.93525354 2.07799368
v -0.45252161 -0.95241002 2.07806496
v 0.84590568 0.77665498 -2.18181396
v 0.83906757 0.77720379 -0.76471221
v 0.86508125 0.7510473 -0.83408794
v 0.86591117 0.75179476 -2.18212633
v 0.84552862 0.77667274 0.76520982
v 0.83673844 0.77718584 0.63915739
v 0.82246661 0.77699848 0.53659976
v 0.86535346 0.67858384 -0.28144052
v 0.8657617 0.71548711 -0.4047042
v 0.83633013 0.77686242 -0.40475773
v 0.81598328 0.77706541 -0.28139144
v 0.86563231 0.71377374 -0.52059438
v 0.835527 0.77692712 -0.52058992
v 0.86541369 0.702197 -0.6471622
v 0.86573045 0.71957662 -0.76469213
v 0.83906757 0.77720379 -0.76471221
v 0.82926004 0.77703198 -0.64715329
v 0.86537799 0.61987016 -0.07537421
v 0.86583085 0.69141671 -0.17785819
v 0.82262725 0.77682444 -0.17800164
v 0.78274778 0.77705649 -0.07522383
v 0.86548504 0.69035025 0.53662874
v 0.8654605 0.68305257 0.41469252
v 0.81835483 0.77701185 0.41470592
v 0.82246661 0.77699848 0.53659976
v 0.8656234 0.67590443 0.17931846
v 0.8654226 0.6198925 0.05205835
v 0.78270317 0.77703414 0.05198384
v 0.81412038 0.77692709 0.17936419
v 0.86564348 0.71108525 0.84428377
v 0.84619345 0.77694042 0.90153614
v 0.86557879 0.75149569 0.94290809
v 0.86508125 0.7510473 -0.83408794
v 0.86577733 0.70239324 0.28887211
v 0.82888524 0.77685348 0.28888547
v 0.86628604 0.71296604 0.75234803
v 0.84552862 0.77667274 0.76520982
v 0.86495186 0.71445189 0.63918412
v 0.83673844 0.77718584 0.63915739
v -0.86628604 0.75149564 2.18576523
v -0.86628604 0.75149583 -2.14700126
v -0.84694531 0.77695373 2.18431283
v -0.84694531 0.77695392 -2.15201204
v 0.05426592 -0.90394546 -2.0763383
v -0.05615626 -0.90866634 -2.0801935
v -0.16449176 -0.91158669 -2.07729535
v -0.28775655 -0.89263646 -2.07835958
v 0.86535346 0.67858384 -0.28144052
v 0.86583085 0.69141671 -0.17785819
v 0.86537799 0.61987016 -0.07537421
v 0.86541369 0.702197 -0.6471622
v 0.78274778 0.77705649 -0.07522383
v 0.81598328 0.77706541 -0.28139144
v 0.82926004 0.77703198 -0.64715329
v 0.8654226 0.6198925 0.05205835
v 0.8654605 0.68305257 0.41469252
v 0.86548504 0.69035025 0.53662874
v 0.86563231 0.71377374 -0.52059438
v 0.8657617 0.71548711 -0.4047042
v 0.86577733 0.70239324 0.28887211
v 0.8656234 0.67590443 0.17931846
v 0.83633013 0.77686242 -0.40475773
v 0.835527 0.77692712 -0.52058992
v 0.86557879 0.75149564 2.10695671
v 0.86564348 0.71108525 0.84428377
v 0.86557879 0.75149569 0.94290809
v 0.86591117 0.75179476 -2.18212633
v 0.86508125 0.7510473 -0.83408794
v 0.86573045 0.71957662 -0.76469213
v 0.86495186 0.71445189 0.63918412
v 0.86628604 0.71296604 0.75234803
v 0.78270317 0.77703414 0.05198384
v -0.84694531 0.77695392 -2.15201204
v -0.84694531 0.77695373 2.18431283
v 0.82888524 0.77685348 0.28888547
v 0.81412038 0.77692709 0.17936419
v 0.81835483 0.77701185 0.41470592
v 0.82262725 0.77682444 -0.17800164
v -0.385281 -0.91043995 -2.07908685
v 0.39282629 -0.91837811 2.07863171
v 0.26896693 -0.90657157 2.07792892
v -0.26599299 -0.9300151 2.07864062
v -0.05631444 -0.90919525 2.07836177
v -0.38576514 -0.93525354 2.07799368
v -0.28767623 -0.96640947 -1.98796554
v -0.16460197 -0.96762989 -2.00914005
v -0.05648734 -0.96425209 -2.02008767
v 0.05448835 -0.96897291 -1.98808814
v -0.16355093 -0.92972062 2.07834395
v 0.38453362 -0.9050811 -2.07966477
v 0.15232513 -0.91917904 2.07860272
v 0.05436073 -0.90369358 2.07814089
v -0.38596816 -0.96678671 2.02346313
v -0.38645227 -0.96528952 -2.00873619
v 0.28690432 -0.91270671 -2.07641184
v 0.16506447 -0.90894075 -2.08006411
v -0.05632916 -0.9664141 2.01170114
v 0.05439353 -0.9666774 2.00178875
v 0.2871118 -0.9693388 -1.9836775
v 0.26914541 -0.96698079 1.98881758
v 0.15215379 -0.96605273 2.01850128
v -0.16355339 -0.9664387 2.03572472
v -0.26599299 -0.96594562 2.03255676
v 0.16508744 -0.96397542 -2.00852648
v 0.39363616 -0.96579615 2.00094101
v 0.38578299 -0.9642588 -1.99101076
vn -0.37987 -0.81708 0.43367
vn -0.20673 -0.84058 0.50069
vn -0.19236 -0.84119 0.50536
vn -0.03128 -0.77169 0.63523
vn 0.09348 -0.75881 0.64457
vn 0.09217 -0.75899 0.64454
vn -0.03131 -0.77169 0.63523
vn 0.00018 -0.79554 0.6059
vn 0.00305 -0.79596 0.60534
vn -0.44045 -0.77791 -0.44818
vn -0.16416 -0.84025 -0.51675
vn -0.18785 -0.83777 -0.5127
vn 0.00778 -0.77742 -0.62894
vn 0.23363 -0.78261 -0.577
vn 0.23408 -0.78264 -0.57679
vn 0.00952 -0.77745 -0.62888
vn -0.07062 -0.76283 -0.64273
vn -0.06815 -0.76246 -0.64344
vn 0.04312 -0.7649 -0.6427
vn 0.04181 -0.76472 -0.64301
vn 0.01569 -0.78816 -0.61527
vn 0.01834 -0.78775 -0.61572
vn -0.01514 -0.81346 -0.58142
vn -0.01605 -0.8132 -0.58177
vn 0.02994 -0.83489 -0.5496
vn 0.03009 -0.83465 -0.54996
vn -0.00027 -0.86133 0.50805
vn 0.1551 -0.8709 0.46634
vn 0.05368 -0.85067 0.52295
vn 0.92418 -0 -0.38195
vn -0.92418 0 0.38195
vn 0.59235 -0.76759 -0.24479
vn -0.59118 -0.76865 -0.2443
vn 0.59 -0.7697 0.24382
vn -0.59028 -0.76946 0.24394
vn 0.15809 -0.86843 -0.46994
vn 0.30665 -0.89149 -0.33348
vn 0.31206 -0.89598 -0.31596
vn 0.44128 0.75502 -0.48499
vn 0.22902 0.70466 -0.67157
vn 0.44787 0.77169 -0.45157
vn -0.22886 0.70517 -0.67108
vn -0.44121 0.75509 -0.48494
vn -0.44781 0.77174 -0.45153
vn -0.30583 -0.8921 -0.3326
vn -0.158 -0.86828 -0.47024
vn -0.31099 -0.89675 -0.31484
vn -0.08145 0.65863 -0.74805
vn -0.33941 0.66862 -0.66163
vn 0.05377 -0.85024 -0.52365
vn 0.23857 -0.85709 -0.45659
vn 0.33949 0.66846 -0.66175
vn 0.08167 0.65779 -0.74876
vn -0.23866 -0.85698 -0.45675
vn -0.0539 -0.84967 -0.52455
vn 0 0.77275 -0.63471
vn 0 -0.85997 -0.51034
vn 0.29405 -0.90061 0.32005
vn 0.29637 -0.90696 0.29933
vn 0.22935 0.70371 0.67245
vn 0.44139 0.75488 0.4851
vn 0.44797 0.77159 0.45163
vn -0.4414 0.7549 0.48507
vn -0.22935 0.70375 0.67241
vn -0.44797 0.77159 0.45163
vn -0.15665 -0.86976 0.46795
vn -0.30089 -0.89571 0.32735
vn -0.30489 -0.90108 0.30837
vn -0.33962 0.66815 0.66199
vn -0.08201 0.65632 0.75001
vn 0.23851 -0.85717 0.45648
vn 0.33962 0.66815 0.66199
vn 0.08204 0.65625 0.75007
vn -0.23848 -0.85721 0.45642
vn -0.05368 -0.85081 0.52273
vn 0 0.77275 0.63471
vn -0.58102 -0.81389 0
vn 0.58102 -0.81389 0
vn -0.70805 -0.00018 -0.70616
vn -0.64152 -9E-05 -0.76711
vn -0.64142 -9E-05 -0.76719
vn 0.42498 -0 -0.9052
vn 0.42494 -0 -0.90522
vn 0.64154 -9E-05 -0.76709
vn 0.64142 -9E-05 -0.76719
vn -0.42494 -0 -0.90522
vn -0.42498 -0 -0.9052
vn 0.13544 -0 -0.99079
vn -0.13544 -0 -0.99079
vn 0.70807 -0.00018 -0.70615
vn 0 -0 -1
vn -0.64124 -6E-05 0.76734
vn -0.70755 -0.00012 0.70666
vn -0.64117 -6E-05 0.7674
vn 0.64094 0 0.76759
vn 0.42494 0 0.90522
vn 0.42498 0 0.9052
vn 0.6409 0 0.76762
vn -0.42494 0 0.90522
vn -0.42498 0 0.9052
vn 0.13544 0 0.99079
vn -0.13544 0 0.99079
vn -0.00015 -0.86073 -0.50906
vn 0.70697 -3E-05 0.70724
vn 0.00031 -0.86151 0.50774
vn 0 0 1
vn 0.00064 0.67722 -0.73578
vn 0.51642 0.40395 -0.75508
vn -0.92418 -0 -0.38195
vn -0.00034 0.67601 -0.73689
vn -0.68674 0.40261 -0.60522
vn -0.43029 0.3738 0.82166
vn 0.00015 0.67383 0.73889
vn 0.74688 0.43875 0.49967
vn 0.92418 0 0.38195
vn 0.79587 0.60546 -0
vn -0.00012 0.67392 0.7388
vn 0.36898 -0.77877 -0.50733
vn 0.02591 -0.82597 0.56311
vn 0.022 -0.82667 0.56225
vn 0.07032 -0.7639 0.64149
vn -0.00562 -0.80273 0.59632
vn -0.00549 -0.80378 0.59491
vn 0.0708 -0.76384 0.64151
vn 0.18015 -0.87473 0.44988
vn 0.0839 -0.85619 0.5098
vn 0.08509 -0.85648 0.50912
vn 0.74399 0.66818 0.00211
vn 3E-05 1 6E-05
vn 3E-05 1 6E-05
vn 0 1 6E-05
vn 0 1 -0
vn -3E-05 1 -0
vn 3E-05 1 3E-05
vn 0.8944 0.44583 0.0358
vn 0.89707 0.43597 0.07212
vn 0.89744 0.43581 0.0683
vn 0.89435 0.4456 0.03967
vn 0.90154 0.43197 -0.02521
vn 0.90155 0.43197 -0.02481
vn 0.90242 0.43066 0.01306
vn 0.89916 0.42217 0.11524
vn 0.89916 0.42217 0.11527
vn 0.90242 0.43063 0.01379
vn 0.87876 0.45974 0.12812
vn 0.87967 0.45011 0.15358
vn 0.88172 0.45067 0.1395
vn 0.87605 0.45788 0.15128
vn 0.89644 0.43822 -0.06607
vn 0.89464 0.44631 0.02057
vn 0.89463 0.44628 0.02158
vn 0.89652 0.43764 -0.06867
vn 0.87693 0.44997 -0.16886
vn 0.88236 0.46181 -0.0904
vn 0.88164 0.46118 -0.1001
vn 0.87813 0.44973 -0.16322
vn 0.9477 0.3178 -0.02951
vn 0.92168 0.3723 -0.10908
vn 0.89637 0.41042 -0.16755
vn 0.89289 0.41317 0.17899
vn 0.89372 0.44802 -0.02307
vn 0.89378 0.44799 -0.02164
vn 0.94244 0.33382 -0.01929
vn 0.94518 0.32619 -0.01505
vn 0.91412 0.39831 -0.07578
vn 0.91463 0.39733 -0.07465
vn -1 0 -0
vn -0.79627 0.60495 -0
vn 0.00085 -0.00012 -1
vn -0.00333 0.0004 -0.99999
vn 0.00159 -0.00034 -1
vn 0.0043 0.00018 -0.99999
vn 0.00122 -0.00031 -1
vn 1 -0.00198 -0.00034
vn 0.99993 -0.01096 -0.00324
vn 1 -0.00085 -0.00027
vn 1 6E-05 -0
vn 1 -0.00116 0.00067
vn -3E-05 1 -0
vn 0.00058 1 9E-05
vn 0.00104 1 6E-05
vn 0.00018 1 -3E-05
vn 1 0 0
vn 1 -0.0004 0
vn 1 -0.0007 0
vn 1 -0.00015 -0.00021
vn 0.99992 -0.01291 -0.00073
vn 0.99998 -0.00687 0.00089
vn 0.01154 0.99993 0.00034
vn 1 3E-05 3E-05
vn 1 3E-05 3E-05
vn 1 -0.00027 -0.00031
vn 1 0.00018 -9E-05
vn 1 0.00018 -9E-05
vn 1 -0.00125 0.00143
vn 1 -0.00046 -0.00049
vn 0.00024 1 -0
vn 0.00632 0.99998 -0.00046
vn 0.00034 1 3E-05
vn 0.00018 1 -9E-05
vn -9E-05 1 -3E-05
vn 0.00055 1 -0.00012
vn -9E-05 1 -6E-05
vn 0.01016 0.99995 0.00168
vn -0.00949 9E-05 -0.99995
vn -0.02109 -0.00034 -0.99978
vn 0.00473 3E-05 0.99999
vn 0.01236 -0.00021 0.99992
vn 0.00027 0 1
vn -0.00208 0.00018 1
vn -0.00098 -0.0004 1
vn -0.00027 -0.0004 1
vn 6E-05 0 1
vn 3E-05 0 1
vn 0.00107 -9E-05 1
vn -0.00269 -0.99999 -0.00293
vn 0.00018 -0.99784 -0.06562
vn -0.00336 -0.99984 -0.01743
vn 0.00293 -0.01639 0.99986
vn 0.02841 -0.00031 -0.9996
vn 0.01144 0.00046 -0.99993
vn 0.00098 0 1
vn 0.00055 0 1
vn 0.00833 -0.99997 0.00067
vn 0.00467 -0.99999 0
vn 0.00406 -0.99999 0
vn 0.00958 -0.99995 -6E-05
vn -0.00998 0.00143 -0.99995
vn -0.00208 -1 3E-05
vn -0.00174 -1 0.00128
vn -0.00305 -1 0.00027
vn 0.01178 -0.99986 -0.01184
vn 0.01123 -0.99994 0.00037
vn -0.00406 -0.99999 0.00061
vn 0.00018 -0.9997 0.02454
vn -0.00229 -1 0.00125
vn 0.00015 -0.99999 0.00497
vn -0.00272 -1 0.00055
vn 0.00269 -0.97467 -0.22361
vn 0.00018 -0.99998 -0.00644
vn -0.00226 -1 -0.00162
vn -0.00272 -1 -0.00073
vn 0.00949 -0.99995 3E-05
vt 0.95126 0.99168
vt 0.95334 0.98222
vt 0.94043 0.98289
vt 0.94645 0.99318
vt 0.95248 0.93391
vt 0.95135 0.91821
vt 0.93889 0.91872
vt 0.93843 0.9345
vt 0.95171 0.94797
vt 0.9409 0.94836
vt 0.96227 0.99408
vt 0.96898 0.9822
vt 0.95384 0.98175
vt 0.95741 0.99289
vt 0.97041 0.88616
vt 0.96806 0.87202
vt 0.95539 0.87212
vt 0.95384 0.88611
vt 0.96815 0.90375
vt 0.95562 0.90373
vt 0.9666 0.91911
vt 0.95497 0.91911
vt 0.97042 0.93508
vt 0.95486 0.93482
vt 0.96744 0.95079
vt 0.95462 0.95058
vt 0.97051 0.96822
vt 0.95508 0.96789
vt 0.04455 0.48767
vt 0.0483 0.48653
vt 0.04828 0.45622
vt 0.04454 0.45743
vt 0.67471 0.24231
vt 0.67883 0.24231
vt 0.67883 0.01127
vt 0.67472 0.00616
vt 0.04857 0.74632
vt 0.04453 0.74632
vt 0.04453 0.97219
vt 0.04857 0.97863
vt 0.65613 0.25337
vt 0.65986 0.25223
vt 0.6565 0.25009
vt 0.65987 0.48765
vt 0.65612 0.48651
vt 0.6565 0.48979
vt 0.04454 0.25229
vt 0.0483 0.25343
vt 0.04791 0.25015
vt 0.04791 0.48981
vt 0.65614 0.45621
vt 0.65577 0.44908
vt 0.63864 0.43187
vt 0.63418 0.43376
vt 0.6738 0.54099
vt 0.67358 0.53307
vt 0.65092 0.55604
vt 0.65621 0.55863
vt 0.67359 0.71018
vt 0.6738 0.70226
vt 0.65622 0.68462
vt 0.65092 0.68722
vt 0.65576 0.2908
vt 0.65613 0.28368
vt 0.63416 0.30614
vt 0.63864 0.308
vt 0.67933 0.71249
vt 0.68394 0.71458
vt 0.68394 0.71021
vt 0.67894 0.71142
vt 0.68395 0.70523
vt 0.92944 0.51942
vt 0.92597 0.51734
vt 0.92597 0.52171
vt 0.92994 0.52049
vt 0.92597 0.52668
vt 0.67894 0.52058
vt 0.68395 0.52677
vt 0.68394 0.52179
vt 0.67933 0.51951
vt 0.68394 0.51742
vt 0.92994 0.71151
vt 0.92597 0.70531
vt 0.92597 0.71029
vt 0.92944 0.71257
vt 0.92597 0.71466
vt 0.65657 0.68553
vt 0.65657 0.55772
vt 0.65986 0.28247
vt 0.04865 0.4491
vt 0.07031 0.43384
vt 0.06579 0.4319
vt 0.04941 0.5331
vt 0.0492 0.54102
vt 0.06679 0.55866
vt 0.07208 0.55606
vt 0.0492 0.70229
vt 0.04942 0.71021
vt 0.07208 0.68724
vt 0.06679 0.68464
vt 0.04826 0.28373
vt 0.04863 0.29085
vt 0.06575 0.30805
vt 0.07026 0.30616
vt 0.89269 0.75376
vt 0.89706 0.75376
vt 0.89497 0.74915
vt 0.88772 0.75377
vt 0.89391 0.74876
vt 0.70425 0.9958
vt 0.69988 0.99579
vt 0.70197 0.99926
vt 0.70923 0.99579
vt 0.70303 0.99977
vt 0.70428 0.75376
vt 0.70925 0.75377
vt 0.70307 0.74876
vt 0.69991 0.75376
vt 0.702 0.74915
vt 0.89274 0.9958
vt 0.88776 0.99579
vt 0.89396 0.99977
vt 0.89711 0.99579
vt 0.89503 0.99926
vt 0.06644 0.68556
vt 0.06643 0.55775
vt 0.04867 0.49711
vt 0.65463 0.49711
vt 0.65557 0.24277
vt 0.0496 0.24281
vt 0.92586 0.68028
vt 0.68395 0.6802
vt 0.68395 0.5518
vt 0.92586 0.55173
vt 0.69493 0.74577
vt 0.92596 0.74585
vt 0.68393 0.73721
vt 0.92596 0.48615
vt 0.69918 0.48623
vt 0.68393 0.49517
vt 0.86269 0.75377
vt 0.86273 0.99571
vt 0.65987 0.45741
vt 0.73428 0.75376
vt 0.73427 0.99575
vt 0.04453 0.28252
vt 0.9283 0.99579
vt 0.92826 0.77115
vt 0.91804 0.75376
vt 0.66869 0.99579
vt 0.67942 0.75376
vt 0.66872 0.76608
vt 0.67355 0.73602
vt 0.67846 0.73396
vt 0.67847 0.71143
vt 0.66267 0.44243
vt 0.66034 0.44632
vt 0.66212 0.45279
vt 0.66555 0.45838
vt 0.67265 0.4464
vt 0.66907 0.44243
vt 0.66417 0.74632
vt 0.66418 0.97228
vt 0.66822 0.9693
vt 0.66822 0.74632
vt 0.67847 0.53182
vt 0.67845 0.50968
vt 0.67356 0.50887
vt 0.66337 0.4765
vt 0.66034 0.48045
vt 0.66625 0.49711
vt 0.67014 0.49379
vt 0.67624 0.48045
vt 0.67389 0.4765
vt 0.66268 0.45885
vt 0.66034 0.46275
vt 0.66155 0.46897
vt 0.66471 0.47603
vt 0.67419 0.46275
vt 0.66988 0.45885
vt 0.04939 0.50833
vt 0.04453 0.51146
vt 0.04453 0.53186
vt 0.69784 0.4623
vt 0.68172 0.4623
vt 0.67894 0.46633
vt 0.68462 0.48568
vt 0.68865 0.48384
vt 0.70014 0.46633
vt 0.04864 0.2423
vt 0.04864 0.01601
vt 0.04453 0.01766
vt 0.04453 0.2423
vt 0.23407 0.74132
vt 0.06274 0.74133
vt 0.06367 0.74585
vt 0.22822 0.74584
vt 0.04454 0.71145
vt 0.04454 0.73233
vt 0.04941 0.73241
vt 0.95922 0.86152
vt 0.96407 0.86035
vt 0.95338 0.96455
vt 0.9381 0.96528
vt 0.94883 0.90291
vt 0.94825 0.88838
vt 0.93996 0.88871
vt 0.94085 0.90323
vt 0.94057 0.86035
vt 0.9381 0.87172
vt 0.94705 0.87139
vt 0.94545 0.86174
vt 0.66993 0.74125
vt 0.46961 0.7403
vt 0.47941 0.74552
vt 0.66997 0.74576
vt 0.25334 0.74122
vt 0.27115 0.73998
vt 0.28565 0.73796
vt 0.93899 0.77488
vt 0.94357 0.79257
vt 0.95323 0.79265
vt 0.95464 0.77495
vt 0.94324 0.80903
vt 0.95317 0.8091
vt 0.94164 0.82701
vt 0.94372 0.84375
vt 0.95274 0.84383
vt 0.95344 0.82709
vt 0.93169 0.74483
vt 0.94066 0.76015
vt 0.95425 0.76024
vt 0.95691 0.74481
vt 0.94035 0.65739
vt 0.9395 0.67472
vt 0.95443 0.67465
vt 0.95409 0.65733
vt 0.93872 0.70828
vt 0.93169 0.72674
vt 0.95691 0.72675
vt 0.95482 0.70823
vt 0.94259 0.61362
vt 0.95224 0.60537
vt 0.9478 0.59941
vt 0.94773 0.8538
vt 0.94202 0.69262
vt 0.95382 0.69257
vt 0.94298 0.62667
vt 0.95247 0.62472
vt 0.94339 0.64274
vt 0.95316 0.64266
vt 0.05117 0.98921
vt 0.65618 0.9843
vt 0.05154 0.99977
vt 0.65704 0.99485
vt 0.91905 0.62376
vt 0.9198 0.60807
vt 0.92021 0.59268
vt 0.91744 0.57518
vt 0.40165 0.01063
vt 0.38694 0.00881
vt 0.37238 0.01897
vt 0.45359 0.00728
vt 0.37214 0.73234
vt 0.40129 0.73704
vt 0.45299 0.73891
vt 0.35429 0.01896
vt 0.30279 0.00999
vt 0.28547 0.00896
vt 0.43561 0.00563
vt 0.41915 0.00539
vt 0.32066 0.00725
vt 0.33621 0.01101
vt 0.41873 0.73991
vt 0.4351 0.7398
vt 0.06246 0.00027
vt 0.24178 0.00601
vt 0.22777 0.00027
vt 0.67158 0.00023
vt 0.48013 0.00034
vt 0.47028 0.00481
vt 0.27091 0.00553
vt 0.25484 0.00574
vt 0.35416 0.73233
vt 0.66571 0.50195
vt 0.05503 0.49758
vt 0.32068 0.73891
vt 0.33616 0.7368
vt 0.30289 0.73745
vt 0.38667 0.73798
vt 0.91997 0.56133
vt 0.85432 0.99092
vt 0.83673 0.98924
vt 0.76076 0.99257
vt 0.79053 0.98961
vt 0.74375 0.99331
vt 0.62589 0.40951
vt 0.6288 0.39257
vt 0.63036 0.37768
vt 0.6259 0.3624
vt 0.77531 0.99253
vt 0.91921 0.67066
vt 0.82016 0.99103
vt 0.80625 0.98883
vt 0.07364 0.42306
vt 0.62875 0.42311
vt 0.92047 0.6568
vt 0.91986 0.6395
vt 0.07507 0.37767
vt 0.07662 0.36244
vt 0.62529 0.33038
vt 0.0784 0.33287
vt 0.07431 0.34898
vt 0.07182 0.39245
vt 0.07232 0.40655
vt 0.62879 0.34718
vt 0.07673 0.31573
vt 0.6263 0.31678
usemtl mat1
f 1/1/1 2/2/2 3/3/3
f 3/3/3 4/4/1 1/1/1
f 5/5/4 6/6/5 7/7/6
f 7/7/6 8/8/7 5/5/4
f 9/9/8 5/5/4 8/8/7
f 8/8/7 10/10/9 9/9/8
f 11/11/10 12/12/11 13/13/12
f 13/13/12 14/14/10 11/11/10
f 15/15/13 16/16/14 17/17/15
f 17/17/15 18/18/16 15/15/13
f 19/19/17 15/15/13 18/18/16
f 18/18/16 20/20/18 19/19/17
f 21/21/19 19/19/17 20/20/18
f 20/20/18 22/22/20 21/21/19
f 23/23/21 21/21/19 22/22/20
f 22/22/20 24/24/22 23/23/21
f 25/25/23 23/23/21 24/24/22
f 24/24/22 26/26/24 25/25/23
f 27/27/25 25/25/23 26/26/24
f 26/26/24 28/28/26 27/27/25
f 12/12/11 27/27/25 28/28/26
f 28/28/26 13/13/12 12/12/11
f 29/29/27 30/30/27 31/31/28
f 31/31/28 32/32/29 29/29/27
f 33/33/30 34/34/30 35/35/30
f 35/35/30 36/36/30 33/33/30
f 37/37/31 38/38/31 39/39/31
f 39/39/31 40/40/31 37/37/31
f 41/41/32 42/42/32 43/43/32
f 44/44/33 45/45/33 46/46/33
f 47/47/34 48/48/34 49/49/34
f 30/30/35 29/29/35 50/50/35
f 51/51/36 52/52/37 53/53/38
f 53/53/38 54/54/38 51/51/36
f 55/55/39 56/56/40 57/57/41
f 57/57/41 58/58/41 55/55/39
f 59/59/42 60/60/43 61/61/44
f 61/61/44 62/62/44 59/59/42
f 63/63/45 64/64/46 65/65/47
f 65/65/47 66/66/47 63/63/45
f 67/67/42 68/68/48 69/69/49
f 70/70/42 69/69/49 71/71/43
f 72/72/36 73/73/50 74/74/51
f 75/75/36 74/74/51 76/76/37
f 77/77/40 78/78/39 79/79/52
f 80/80/40 79/79/52 81/81/53
f 82/82/46 83/83/45 84/84/54
f 85/85/46 84/84/54 86/86/55
f 62/62/56 87/87/56 88/88/56
f 88/88/56 57/57/56 62/62/56
f 42/42/57 41/41/57 64/64/46
f 64/64/46 89/89/55 42/42/57
f 90/90/58 31/31/28 91/91/59
f 91/91/59 92/92/59 90/90/58
f 93/93/60 94/94/61 95/95/62
f 95/95/62 96/96/62 93/93/60
f 97/97/63 98/98/64 99/99/65
f 99/99/65 100/100/65 97/97/63
f 101/101/66 102/102/67 103/103/68
f 103/103/68 104/104/68 101/101/66
f 105/105/69 106/106/70 107/107/64
f 108/108/63 105/105/69 109/109/64
f 110/110/71 111/111/29 112/112/28
f 113/113/58 110/110/71 114/114/28
f 115/115/72 116/116/61 117/117/60
f 118/118/73 115/115/72 119/119/60
f 120/120/74 121/121/67 122/122/66
f 123/123/75 120/120/74 124/124/66
f 125/125/76 99/99/76 96/96/76
f 96/96/76 126/126/76 125/125/76
f 30/30/77 127/127/77 128/128/77
f 128/128/77 45/45/77 30/30/77
f 41/41/78 129/129/78 130/130/78
f 130/130/78 48/48/78 41/41/78
f 131/131/79 132/132/79 71/71/80
f 71/71/80 83/83/81 131/131/79
f 74/74/82 79/79/83 78/78/84
f 78/78/84 76/76/85 74/74/82
f 83/83/81 71/71/80 69/69/86
f 69/69/86 84/84/87 83/83/81
f 73/73/88 81/81/88 79/79/83
f 79/79/83 74/74/82 73/73/88
f 84/84/87 69/69/86 68/68/89
f 68/68/89 86/86/89 84/84/87
f 76/76/85 78/78/84 133/133/90
f 133/133/90 134/134/90 76/76/85
f 135/135/91 136/136/91 86/86/89
f 135/135/91 86/86/89 68/68/89
f 68/68/89 137/137/91 135/135/91
f 81/81/88 73/73/88 138/138/91
f 81/81/88 138/138/91 139/139/91
f 139/139/91 140/140/91 81/81/88
f 108/108/92 141/141/93 142/142/93
f 142/142/93 121/121/94 108/108/92
f 116/116/95 115/115/96 110/110/97
f 110/110/97 113/113/98 116/116/95
f 105/105/99 108/108/92 121/121/94
f 121/121/94 120/120/100 105/105/99
f 115/115/96 118/118/101 111/111/101
f 111/111/101 110/110/97 115/115/96
f 106/106/102 105/105/99 120/120/100
f 120/120/100 123/123/102 106/106/102
f 45/45/103 44/44/103 143/143/50
f 143/143/50 51/51/36 45/45/103
f 144/144/104 116/116/95 113/113/98
f 113/113/98 145/145/104 144/144/104
f 48/48/105 47/47/105 146/146/75
f 146/146/75 101/101/66 48/48/105
f 123/123/102 147/147/106 148/148/106
f 123/123/102 148/148/106 149/149/106
f 149/149/106 106/106/102 123/123/102
f 150/150/106 111/111/101 118/118/101
f 150/150/106 118/118/101 151/151/106
f 151/151/106 152/152/106 150/150/106
f 59/59/42 153/153/107 154/154/107
f 154/154/107 155/155/48 59/59/42
f 156/156/108 157/157/108 158/158/108
f 156/156/108 158/158/108 159/159/108
f 156/156/108 159/159/108 160/160/108
f 160/160/108 161/161/108 156/156/108
f 162/162/109 163/163/109 164/164/109
f 164/164/109 165/165/109 162/162/109
f 166/166/53 167/167/110 168/168/110
f 168/168/110 56/56/40 166/166/53
f 169/169/111 170/170/111 171/171/111
f 169/169/111 171/171/111 172/172/111
f 169/169/111 172/172/111 173/173/111
f 173/173/111 174/174/111 169/169/111
f 175/175/112 176/176/112 177/177/112
f 175/175/112 177/177/112 178/178/112
f 175/175/112 178/178/112 179/179/112
f 179/179/112 180/180/112 175/175/112
f 93/93/60 181/181/113 182/182/113
f 182/182/113 183/183/73 93/93/60
f 184/184/114 185/185/114 186/186/114
f 184/184/114 186/186/114 187/187/114
f 184/184/114 187/187/114 188/188/114
f 188/188/114 189/189/114 184/184/114
f 190/190/115 191/191/115 192/192/115
f 192/192/115 193/193/115 190/190/115
f 194/194/116 195/195/116 196/196/116
f 196/196/116 197/197/116 194/194/116
f 198/198/70 199/199/117 200/200/117
f 200/200/117 98/98/64 198/198/70
f 201/201/118 17/17/15 16/16/14
f 16/16/14 202/202/118 201/201/118
f 203/203/119 9/9/8 10/10/9
f 10/10/9 204/204/120 203/203/119
f 2/2/2 203/203/119 204/204/120
f 204/204/120 3/3/3 2/2/2
f 205/205/121 206/206/122 207/207/123
f 207/207/123 208/208/124 205/205/121
f 209/209/125 210/210/126 211/211/127
f 211/211/127 212/212/125 209/209/125
f 206/206/122 211/211/127 210/210/126
f 210/210/126 207/207/123 206/206/122
f 6/6/5 205/205/121 208/208/124
f 208/208/124 7/7/6 6/6/5
f 213/213/128 214/214/128 215/215/128
f 215/215/128 216/216/128 213/213/128
f 217/217/129 218/218/130 219/219/131
f 217/217/129 219/219/131 96/96/132
f 217/217/129 96/96/132 99/99/133
f 99/99/133 194/194/134 217/217/129
f 220/220/135 221/221/136 222/222/137
f 222/222/137 223/223/138 220/220/135
f 221/221/136 224/224/139 225/225/140
f 225/225/140 222/222/137 221/221/136
f 226/226/141 227/227/142 228/228/143
f 228/228/143 229/229/144 226/226/141
f 230/230/145 231/231/146 232/232/147
f 232/232/147 233/233/148 230/230/145
f 224/224/139 226/226/141 229/229/144
f 229/229/144 225/225/140 224/224/139
f 234/234/149 235/235/150 236/236/151
f 236/236/151 237/237/152 234/234/149
f 238/238/153 239/239/154 240/240/155
f 240/240/155 241/241/156 238/238/153
f 242/242/157 243/243/158 244/244/159
f 245/245/160 228/228/143 227/227/142
f 246/246/161 238/238/153 241/241/156
f 241/241/156 247/247/162 246/246/161
f 231/231/146 220/220/135 223/223/138
f 223/223/138 232/232/147 231/231/146
f 239/239/154 230/230/145 233/233/148
f 233/233/148 240/240/155 239/239/154
f 243/243/158 242/242/157 248/248/163
f 248/248/163 249/249/164 243/243/158
f 235/235/150 246/246/161 247/247/162
f 247/247/162 236/236/151 235/235/150
f 250/250/165 234/234/149 237/237/152
f 237/237/152 251/251/166 250/250/165
f 162/162/167 37/37/167 40/40/167
f 162/162/167 40/40/167 252/252/167
f 162/162/167 252/252/167 253/253/167
f 253/253/167 163/163/167 162/162/167
f 254/254/168 255/255/168 253/253/168
f 253/253/168 252/252/168 254/254/168
f 249/249/164 248/248/163 250/250/165
f 250/250/165 251/251/166 249/249/164
f 132/132/169 256/256/170 257/257/171
f 132/132/169 257/257/171 258/258/171
f 132/132/169 258/258/171 259/259/172
f 259/259/172 133/133/173 132/132/169
f 260/260/174 261/261/175 262/262/176
f 33/33/177 263/263/178 260/260/174
f 260/260/174 262/262/176 33/33/177
f 57/57/179 264/264/180 265/265/181
f 265/265/181 266/266/182 57/57/179
f 190/190/183 267/267/184 268/268/185
f 268/268/185 269/269/186 190/190/183
f 263/263/178 270/270/187 271/271/187
f 271/271/187 260/260/174 263/263/178
f 272/272/188 268/268/185 267/267/184
f 267/267/184 273/273/188 272/272/188
f 274/274/189 275/275/189 266/266/182
f 266/266/182 265/265/181 274/274/189
f 276/276/190 191/191/191 190/190/183
f 276/276/190 190/190/183 277/277/192
f 277/277/192 278/278/190 276/276/190
f 279/279/193 280/280/194 281/281/195
f 279/279/193 281/281/195 33/33/177
f 33/33/177 36/36/193 279/279/193
f 33/33/177 281/281/195 263/263/178
f 282/282/196 283/283/196 277/277/192
f 282/282/196 277/277/192 190/190/183
f 190/190/183 269/269/186 282/282/196
f 96/96/132 284/284/197 264/264/180
f 96/96/132 264/264/180 57/57/179
f 96/96/132 57/57/179 56/56/132
f 96/96/132 56/56/132 168/168/132
f 96/96/132 168/168/132 285/285/132
f 96/96/132 285/285/132 286/286/132
f 96/96/132 286/286/132 181/181/132
f 181/181/132 93/93/132 96/96/132
f 287/287/198 288/288/198 284/284/197
f 284/284/197 289/289/199 287/287/198
f 62/62/200 214/214/201 213/213/202
f 62/62/200 213/213/202 153/153/202
f 153/153/202 59/59/202 62/62/200
f 33/33/177 262/262/176 267/267/184
f 267/267/184 190/190/183 33/33/177
f 57/57/179 266/266/182 214/214/201
f 214/214/201 62/62/200 57/57/179
f 200/200/203 195/195/203 194/194/134
f 200/200/203 194/194/134 99/99/133
f 99/99/133 98/98/203 200/200/203
f 264/264/180 290/290/204 265/265/181
f 219/219/131 289/289/199 284/284/197
f 284/284/197 96/96/132 219/219/131
f 291/291/205 134/134/206 133/133/173
f 292/292/207 142/142/208 141/141/209
f 293/293/210 292/292/207 141/141/209
f 294/294/211 295/295/212 144/144/213
f 144/144/213 296/296/214 294/294/211
f 144/144/213 145/145/215 296/296/214
f 297/297/216 298/298/217 299/299/217
f 299/299/217 300/300/218 297/297/216
f 294/294/211 301/301/219 295/295/212
f 132/132/169 131/131/220 302/302/221
f 303/303/222 293/293/210 141/141/209
f 141/141/209 304/304/223 303/303/222
f 144/144/213 295/295/212 304/304/223
f 304/304/223 141/141/209 144/144/213
f 259/259/172 291/291/205 133/133/173
f 305/305/224 91/91/225 54/54/226
f 54/54/226 306/306/227 305/305/224
f 307/307/228 308/308/228 256/256/170
f 307/307/228 256/256/170 132/132/169
f 132/132/169 302/302/221 307/307/228
f 51/51/229 54/54/226 91/91/225
f 51/51/229 91/91/225 31/31/229
f 51/51/229 31/31/229 30/30/229
f 30/30/229 45/45/229 51/51/229
f 309/309/230 305/305/224 306/306/227
f 309/309/230 306/306/227 297/297/216
f 297/297/216 310/310/231 309/309/230
f 310/310/231 297/297/216 300/300/218
f 310/310/231 300/300/218 311/311/232
f 310/310/231 311/311/232 312/312/233
f 312/312/233 313/313/234 310/310/231
f 314/314/235 315/315/235 305/305/224
f 305/305/224 309/309/230 314/314/235
f 48/48/236 101/101/237 104/104/238
f 300/300/218 316/316/239 311/311/232
f 64/64/240 41/41/241 65/65/242
f 65/65/242 41/41/241 48/48/236
f 65/65/242 48/48/236 104/104/238
f 65/65/242 104/104/238 317/317/243
f 317/317/243 318/318/243 65/65/242
f 312/312/233 311/311/232 318/318/243
f 318/318/243 317/317/243 312/312/233
# Vertices: 318, normals: 243, texture coordinates: 318, faces: 292

o obj2
v -0.03114544 0.84662854 -1.14959171
v -0.00972917 0.85393513 -1.15404703
v -0.0071069 0.8277051 -1.14987721
v -0.02846108 0.82153853 -1.14385353
v -0.04409984 0.84831524 -1.13395897
v -0.03802411 0.8179332 -1.12648941
v -0.04100408 0.85800229 -1.11630707
v -0.03019369 0.81900189 -1.1079542
v -0.02367154 0.87001854 -1.106977
v -0.00955705 0.82411759 -1.09910817
v -0.00225542 0.87732287 -1.11143233
v 0.01179722 0.83028416 -1.10513192
v 0.01069911 0.8756385 -1.12706507
v 0.02136009 0.83388948 -1.12249591
v -0.02150787 0.72382227 -1.29878866
v -0.00324274 0.75384506 -1.30924772
v -0.0090976 0.74838574 -1.32768925
v -0.02805191 0.71901887 -1.31723032
v 0.00760339 0.86594918 -1.14471683
v 0.01352976 0.8328208 -1.14102906
v -0.00972917 0.85393513 -1.15404703
v -0.0071069 0.8277051 -1.14987721
v -0.02764364 0.7193535 -1.10447601
v -0.01075901 0.75427338 -1.10268677
v -0.03172573 0.75413282 -1.11153499
v -0.04877538 0.72169832 -1.11332423
v 0.01863002 0.82050562 -1.31930731
v 0.04130482 0.82308914 -1.3223883
v 0.03213334 0.86178609 -1.32318032
v 0.0128513 0.85010229 -1.31832792
v 0.01937618 0.89456194 -1.31447047
v 0.00326694 0.87846072 -1.31031182
v -0.00017453 0.92135647 -1.29903626
v -0.01204249 0.90155624 -1.29610474
v -0.01469776 0.93317418 -1.27812718
v -0.02541173 0.91243465 -1.27685776
v -0.02417262 0.93907971 -1.25343884
v -0.03413344 0.91787163 -1.25413046
v -0.02783149 0.93859779 -1.22696778
v -0.03750139 0.91742767 -1.22976326
v -0.02537759 0.9317664 -1.20086268
v -0.03524271 0.91113843 -1.20573077
v -0.01700994 0.91913658 -1.17723391
v -0.02754012 0.89951481 -1.1839806
v -0.00242897 0.8952023 -1.15800036
v -0.01680536 0.87904968 -1.16627525
v 0.05417266 0.8201263 -1.33760841
v 0.0399352 0.87067673 -1.33976799
v 0.02256294 0.90893863 -1.32938712
v -0.00285485 0.93927599 -1.31099227
v -0.02016467 0.95335819 -1.28607187
v -0.03145711 0.9603993 -1.25664469
v -0.03581786 0.9598237 -1.22509596
v -0.03289344 0.95168046 -1.19398221
v -0.02292035 0.93663003 -1.16582006
v -0.00342561 0.90970166 -1.14289635
v 0.04969612 0.81335521 -1.35604993
v 0.03168691 0.87156244 -1.35837467
v 0.01096056 0.91316863 -1.34632491
v -0.01851349 0.94481563 -1.32496743
v -0.03860975 0.96116672 -1.29603559
v -0.05172032 0.96933894 -1.26187196
v -0.05678295 0.96867192 -1.22524543
v -0.05338734 0.95921904 -1.18912076
v -0.04180903 0.94174573 -1.15642749
v -0.01921162 0.91405433 -1.12981148
v 0.03049733 0.80674024 -1.36691059
v 0.01222015 0.86392785 -1.36810195
v -0.00863455 0.9047756 -1.35535831
v -0.03797771 0.93473363 -1.33277595
v -0.05922814 0.95202182 -1.30218201
v -0.07309168 0.96066479 -1.26605521
v -0.07844501 0.95995754 -1.22732469
v -0.07485463 0.94996257 -1.18912755
v -0.06261148 0.93148528 -1.15455568
v -0.04053959 0.90571255 -1.12641134
v 0.00782264 0.80415673 -1.36382721
v -0.00706182 0.85224179 -1.36324941
v -0.02474376 0.8886743 -1.35119966
v -0.04984582 0.91493339 -1.32984217
v -0.06994216 0.93128229 -1.30091033
v -0.08305273 0.93945451 -1.26674684
v -0.08811535 0.93878742 -1.23012018
v -0.08471996 0.92933461 -1.19399551
v -0.07314166 0.91186124 -1.16130223
v -0.05491603 0.88956226 -1.13468623
v -0.00504538 0.8071195 -1.3486095
v -0.01486382 0.84335347 -1.34666188
v -0.02793077 0.87429761 -1.33628314
v -0.0471657 0.89701388 -1.31788616
v -0.0644755 0.91109828 -1.2929679
v -0.07576801 0.91813712 -1.26354085
v -0.08012853 0.91756152 -1.23199199
v -0.07720411 0.90942054 -1.20087597
v -0.06723125 0.89436786 -1.17271608
v -0.05391921 0.8750629 -1.14979024
v -0.00056884 0.81389065 -1.33016797
v -0.00661548 0.84246551 -1.3280552
v -0.01632823 0.87006762 -1.31934747
v -0.03150687 0.89147424 -1.30391327
v -0.04603012 0.90328968 -1.28300418
v -0.05550502 0.90919741 -1.25831358
v -0.05916389 0.9087133 -1.23184252
v -0.05670999 0.9018819 -1.20573742
v -0.04834234 0.88925435 -1.18210865
v -0.03813343 0.8707079 -1.16287511
v 0.01863002 0.82050562 -1.31930731
v 0.0128513 0.85010229 -1.31832792
v 0.00326694 0.87846072 -1.31031182
v -0.01204249 0.90155624 -1.29610474
v -0.02541173 0.91243465 -1.27685776
v -0.03413344 0.91787163 -1.25413046
v -0.03750139 0.91742767 -1.22976326
v -0.03524271 0.91113843 -1.20573077
v -0.02754012 0.89951481 -1.1839806
v -0.01680536 0.87904968 -1.16627525
v 0.03200795 0.71072397 -1.3062291
v 0.05068179 0.74719212 -1.31668816
v 0.03902762 0.75300171 -1.30147032
v 0.0209609 0.7179569 -1.29100913
v -0.05649136 0.72340504 -1.1318595
v -0.03947963 0.75491593 -1.13006801
v -0.02947887 0.75616527 -1.14743426
v -0.04627151 0.72347864 -1.14922349
v -0.00297107 0.71952751 -1.14639902
v 0.01338503 0.75729194 -1.14460979
v 0.02113906 0.75650889 -1.12607451
v 0.00474484 0.71781859 -1.12786375
v 0.00516224 0.70636007 -1.33553128
v 0.02489279 0.73981864 -1.34599035
v 0.04482693 0.74173061 -1.33512969
v 0.02546393 0.70592057 -1.32467076
v -0.00547492 0.71774718 -1.11049975
v 0.01113829 0.75525948 -1.10871052
v 0.0025565 0.74257616 -1.34290922
v -0.01700479 0.71178594 -1.33244803
v 0.01669137 0.75575703 -1.29838707
v -0.00120612 0.7233827 -1.28792814
v -0.00120612 0.7233827 -1.28792814
v 0.01669137 0.75575703 -1.29838707
v -0.02410279 0.72187232 -1.15524505
v -0.00758164 0.75714918 -1.15345581
v -0.00758164 0.75714918 -1.15345581
v -0.02410279 0.72187232 -1.15524505
v -0.12405971 0.83193498 1.40604039
v -0.10490576 0.82305106 1.39676391
v -0.10935017 0.79795879 1.39816046
v -0.13018786 0.80075208 1.40755755
v -0.12945007 0.83876185 1.4244641
v -0.13765463 0.80060706 1.42627128
v -0.11791928 0.83952934 1.44124139
v -0.12737656 0.79760633 1.44334072
v -0.09622175 0.83378897 1.44654672
v -0.10537427 0.79351017 1.4487644
v -0.0770678 0.82490279 1.43727024
v -0.08453658 0.79071695 1.43936731
v -0.07167744 0.81807811 1.4188464
v -0.07706958 0.79086416 1.42065358
v -0.08320823 0.81731069 1.40206924
v -0.08734788 0.7938627 1.40358626
v -0.10490576 0.82305106 1.39676391
v -0.10935017 0.79795879 1.39816046
v -0.11862763 0.80813893 1.22647703
v -0.09778971 0.80534571 1.21707994
v -0.09414623 0.83535514 1.22311931
v -0.11497434 0.839661 1.23203675
v -0.0870699 0.86151157 1.23622439
v -0.10782192 0.86809529 1.2440998
v -0.08032843 0.88045516 1.25533081
v -0.1005236 0.89011322 1.26168694
v -0.06837264 0.88991914 1.27889481
v -0.08951799 0.89882308 1.28337913
v -0.06193191 0.89323217 1.30500656
v -0.08358907 0.90187288 1.30741614
v -0.0615281 0.89012884 1.33154903
v -0.08321737 0.89901722 1.33184797
v -0.06719377 0.88085894 1.35637129
v -0.08843283 0.89048356 1.35469801
v -0.07847022 0.86617441 1.37746561
v -0.09881286 0.87696585 1.3741168
v -0.08084625 0.84408953 1.39312055
v -0.10209312 0.85205876 1.38852693
v -0.09032294 0.80549073 1.1983662
v -0.08471394 0.83958294 1.20556343
v -0.07405927 0.86813326 1.22118287
v -0.06304363 0.88701434 1.24395698
v -0.0487939 0.89829435 1.27204108
v -0.04111764 0.90224323 1.30316148
v -0.04063619 0.89854422 1.33479518
v -0.0473888 0.88749619 1.36438287
v -0.06082867 0.86999616 1.38952414
v -0.06664181 0.84736912 1.40818215
v -0.10060102 0.80849146 1.18129889
v -0.0922028 0.84987013 1.18965409
v -0.07641211 0.88408056 1.20778551
v -0.05879421 0.90594895 1.23422532
v -0.04225078 0.91904279 1.26683163
v -0.03333853 0.92362757 1.30296068
v -0.03277988 0.91933282 1.33968775
v -0.04061968 0.90650673 1.37403874
v -0.05622296 0.88618887 1.40322483
v -0.06780038 0.85997439 1.42488803
v -0.12260353 0.81258762 1.17587308
v -0.11222595 0.86018857 1.18470794
v -0.09274962 0.90001444 1.20388125
v -0.07006977 0.92616422 1.23184034
v -0.05257592 0.94000992 1.26631846
v -0.0431521 0.94485787 1.30452465
v -0.04256111 0.94031776 1.34335996
v -0.05085112 0.92675544 1.37968317
v -0.06735061 0.90526849 1.41054705
v -0.0836435 0.87452282 1.43345294
v -0.14344122 0.81538084 1.18527017
v -0.13305428 0.86449669 1.19362524
v -0.11350187 0.90660042 1.21175679
v -0.09026494 0.93582002 1.2381966
v -0.07372128 0.94891386 1.27080291
v -0.06480903 0.95349864 1.30693423
v -0.06425016 0.94920614 1.34366116
v -0.07209018 0.93638006 1.37800989
v -0.08769346 0.91605994 1.40719838
v -0.10489014 0.88249425 1.42885932
v -0.15090799 0.81523356 1.2039839
v -0.14248657 0.86026669 1.21118112
v -0.12651227 0.8999788 1.22679831
v -0.10754952 0.92926083 1.24957255
v -0.09330001 0.94053864 1.27765652
v -0.08562353 0.94448978 1.30877705
v -0.08514229 0.94079077 1.34041288
v -0.09189492 0.92974274 1.36999831
v -0.10533479 0.91224045 1.39513971
v -0.1190948 0.87921466 1.41379772
v -0.14062991 0.81223509 1.22105348
v -0.13499771 0.84997944 1.22709059
v -0.12415966 0.88402923 1.24019554
v -0.11179893 0.91032848 1.25930196
v -0.09984314 0.9197902 1.28286597
v -0.09340242 0.9231055 1.30897785
v -0.0929986 0.92000217 1.33552019
v -0.09866427 0.91073227 1.3603447
v -0.10994072 0.89604773 1.38143676
v -0.11793601 0.86660719 1.39709184
v -0.11862763 0.80813893 1.22647703
v -0.11497434 0.839661 1.23203675
v -0.10782192 0.86809529 1.2440998
v -0.1005236 0.89011322 1.26168694
v -0.08951799 0.89882308 1.28337913
v -0.08358907 0.90187288 1.30741614
v -0.08321737 0.89901722 1.33184797
v -0.08843283 0.89048356 1.35469801
v -0.09881286 0.87696585 1.3741168
v -0.10209312 0.85205876 1.38852693
v 0.02667738 0.79519919 -1.12428528
v 0.01689567 0.79277179 -1.10692122
v -0.02354214 0.7888519 -1.14564277
v -0.00191635 0.79242824 -1.15166645
v -0.00191635 0.79242824 -1.15166645
v 0.01888529 0.79505637 -1.14282055
v -0.02553176 0.78656739 -1.10974569
v -0.03332403 0.78642457 -1.12827877
v -0.00473014 0.78919552 -1.10089747
v 0.01122039 0.77336644 -1.35336828
v 0.03372584 0.77327941 -1.35644927
v 0.0532923 0.77754291 -1.34558875
v 0.05845799 0.78365815 -1.32714709
v 0.02369161 0.7881313 -1.30884839
v 0.00412504 0.78386786 -1.31970891
v 0.046197 0.78804433 -1.31192938
v 0.02369161 0.7881313 -1.30884839
v -0.00104066 0.77775262 -1.33815044
v -0.07589808 0.75587068 1.4086864
v -0.0829684 0.753575 1.4274024
v -0.05926786 0.70815144 1.37112942
v -0.06655123 0.70650051 1.38984102
v -0.12935369 0.74994514 1.39559037
v -0.10869737 0.75330505 1.38619328
v -0.11328881 0.70710955 1.35803112
v -0.09231635 0.70858203 1.34863416
v -0.10869737 0.75330505 1.38619328
v -0.08655542 0.75575911 1.39161909
v -0.09231635 0.70858203 1.34863416
v -0.06994015 0.70901488 1.35405997
v -0.12576666 0.74776096 1.43137355
v -0.136424 0.74764939 1.4143041
v -0.10989989 0.70459745 1.39381443
v -0.12057218 0.70545862 1.37674499
v -0.10362471 0.75021508 1.43679723
v -0.08752368 0.70502803 1.39923798
v -0.14896098 0.75975268 1.19278641
v -0.12810767 0.76151518 1.18338945
v -0.13377914 0.71074614 1.21855693
v -0.11280668 0.71221861 1.20915984
v -0.10584257 0.76226259 1.18881525
v -0.0952082 0.76155753 1.2058847
v -0.09043048 0.71265146 1.21458565
v -0.07975818 0.71178803 1.23165522
v -0.12328711 0.75804596 1.23399552
v -0.14555221 0.75729855 1.22856972
v -0.10801401 0.70866461 1.25976379
v -0.13039022 0.70823177 1.25434024
v -0.10243402 0.75981065 1.22459856
v -0.12328711 0.75804596 1.23399552
v -0.08704156 0.71013709 1.25036896
v -0.10801401 0.70866461 1.25976379
v -0.15618657 0.75800354 1.21150014
v -0.14106251 0.7090952 1.23727066
vn -0.44265 -0.38994 -0.80747
vn 0.25435 -0.23454 -0.93824
vn 0.09989 -0.04334 -0.99405
vn -0.5875 -0.15107 -0.795
vn -0.94012 -0.32018 -0.11686
vn -0.98224 -0.17988 -0.05341
vn -0.76815 -0.03781 0.63915
vn -0.69763 -0.09467 0.71018
vn -0.21641 0.24067 0.94617
vn -0.08045 0.03473 0.99615
vn 0.42867 0.41054 0.80479
vn 0.57059 0.15424 0.80662
vn 0.91595 0.35665 0.18397
vn 0.97335 0.1992 0.11365
vn -0.69968 0.5733 0.42635
vn -0.71172 0.47504 0.51749
vn -0.90734 0.31844 -0.27446
vn -0.85311 0.44601 -0.27068
vn 0.81334 0.05893 -0.5788
vn 0.73304 0.09894 -0.67295
vn -0.13755 0.02258 0.99024
vn -0.03577 -0.04489 0.99835
vn -0.66568 0.19419 0.72053
vn -0.69144 0.3286 0.64337
vn -0.17811 0.10285 0.97862
vn 0.52603 0.23207 0.81819
vn 0.61416 0.10492 0.78217
vn -0.04297 -0.15336 0.98724
vn 0.69432 0.09061 0.71394
vn 0.14021 -0.32836 0.93409
vn 0.78252 0.10114 0.61436
vn 0.35384 -0.49499 0.79359
vn 0.88939 0.02698 0.45635
vn 0.5369 -0.65055 0.53714
vn 0.96837 -0.01077 0.24928
vn 0.64926 -0.72049 0.24363
vn 0.99973 -0.00665 0.0224
vn 0.69456 -0.71452 -0.08402
vn 0.97967 0.03888 -0.19682
vn 0.66566 -0.63358 -0.39431
vn 0.91424 0.11234 -0.38928
vn 0.56109 -0.49514 -0.66333
vn 0.8568 0.08939 -0.50784
vn 0.40972 -0.37569 -0.83125
vn 0.96943 0.22035 0.10798
vn 0.94008 0.33846 0.04108
vn 0.85503 0.51712 0.03888
vn 0.73802 0.67314 0.04706
vn 0.69858 0.71033 0.08619
vn 0.69193 0.715 0.10001
vn 0.68958 0.7147 0.11695
vn 0.69225 0.7095 0.1319
vn 0.71285 0.68523 0.14939
vn 0.82003 0.55054 0.15638
vn 0.76562 0.04706 -0.64156
vn 0.63899 0.34176 -0.68913
vn 0.46581 0.61413 -0.63708
vn 0.23198 0.82344 -0.51782
vn 0.08372 0.94348 -0.32067
vn 0.00861 0.99469 -0.10258
vn -0.02441 0.99033 0.13654
vn -0.01102 0.93099 0.36489
vn 0.06861 0.82091 0.56693
vn 0.2614 0.65754 0.70662
vn 0.19859 -0.12571 -0.97199
vn 0.06128 0.16132 -0.985
vn -0.11506 0.37508 -0.91982
vn -0.35189 0.52778 -0.77306
vn -0.54041 0.65315 -0.53043
vn -0.65006 0.72081 -0.24052
vn -0.69448 0.71496 0.08085
vn -0.66722 0.63642 0.38702
vn -0.55997 0.51123 0.65198
vn -0.37429 0.40527 0.83407
vn -0.46701 -0.23585 -0.85222
vn -0.55942 -0.09595 -0.82331
vn -0.6453 -0.04877 -0.76237
vn -0.75703 -0.03626 -0.65238
vn -0.88189 0.02249 -0.47092
vn -0.96493 0.06614 -0.25404
vn -0.99798 0.0618 -0.01489
vn -0.97665 0.01001 0.21461
vn -0.90651 -0.06082 0.41778
vn -0.82957 -0.04624 0.55649
vn -0.95403 -0.22313 -0.20008
vn -0.94191 -0.31374 -0.11991
vn -0.87047 -0.48242 -0.09775
vn -0.76658 -0.62863 -0.13105
vn -0.73842 -0.6602 -0.13737
vn -0.74503 -0.65549 -0.12354
vn -0.74738 -0.65579 -0.1066
vn -0.74473 -0.66104 -0.09168
vn -0.7547 -0.65082 -0.08286
vn -0.8423 -0.5278 -0.10938
vn -0.78542 -0.07132 0.61484
vn -0.66435 -0.31505 0.67778
vn -0.49005 -0.57023 0.65931
vn -0.27681 -0.81386 0.51089
vn -0.13047 -0.94572 0.29765
vn -0.06256 -0.99408 0.08884
vn -0.03122 -0.98994 -0.13798
vn -0.04019 -0.9338 -0.35552
vn -0.10865 -0.82579 -0.55341
vn -0.25957 -0.64613 -0.71773
vn 0.88437 -0.38119 0.26943
vn 0.93464 -0.25679 0.24598
vn 0.5235 0.06504 0.84954
vn 0.45873 0.03238 0.88798
vn -0.88266 0.46915 -0.02863
vn -0.93651 0.34783 -0.04422
vn -0.57367 0.23558 -0.78447
vn -0.61811 0.35909 -0.69929
vn 0.63409 -0.24098 -0.73475
vn 0.70381 -0.16755 -0.69035
vn 0.96354 -0.26377 0.04486
vn 0.91647 -0.39709 0.04904
vn 0.07566 -0.33553 -0.93899
vn 0.18464 -0.36476 -0.91261
vn 0.75004 -0.4316 -0.50116
vn 0.66566 -0.52075 -0.53452
vn 0.53186 -0.27416 0.80123
vn 0.6177 -0.21864 0.75541
vn -0.47854 -0.08149 -0.87428
vn -0.5411 0.06205 -0.83866
vn -0.13331 0.34255 0.92999
vn -0.19221 0.40416 0.89426
vn -0.00586 0.0604 -0.99816
vn 0.09052 0.01642 -0.99576
vn -0.77769 0.05344 -0.62638
vn -0.15507 -0.13877 -0.97811
vn -0.11863 0.11271 -0.98652
vn -0.75111 0.12754 -0.64774
vn -0.95431 0.24879 0.16551
vn -0.98763 0.0839 0.13248
vn -0.50478 0.2704 0.8198
vn -0.58591 -0.02005 0.81013
vn 0.15138 0.14124 0.97833
vn 0.06592 -0.1138 0.99131
vn 0.74803 -0.04987 0.66179
vn 0.6843 -0.15122 0.71335
vn 0.971 -0.21501 -0.10453
vn 0.99593 -0.07859 -0.04422
vn 0.54086 -0.23728 -0.80695
vn 0.58972 0.05115 -0.80598
vn 0.07386 -0.01856 0.9971
vn 0.72801 -0.09815 0.67851
vn 0.62933 -0.35972 0.68887
vn -0.03122 -0.27373 0.9613
vn 0.46591 -0.61401 0.63712
vn -0.20701 -0.45037 0.86851
vn 0.21101 -0.84757 0.48693
vn -0.46862 -0.56896 0.67578
vn 0.08622 -0.97235 0.21702
vn -0.60312 -0.68888 0.40212
vn 0.04392 -0.99903 -0.00214
vn -0.67943 -0.72798 0.09177
vn 0.04044 -0.97244 -0.22963
vn -0.68443 -0.68956 -0.23677
vn 0.07627 -0.89577 -0.43792
vn -0.61735 -0.57966 -0.53186
vn 0.1627 -0.71564 -0.67926
vn -0.53306 -0.43503 -0.72567
vn 0.4024 -0.45063 -0.79687
vn -0.32408 -0.32884 -0.88704
vn 0.98203 -0.13929 -0.12732
vn 0.96894 -0.23515 -0.07657
vn 0.90915 -0.41466 -0.03876
vn 0.80127 -0.5961 -0.0513
vn 0.74473 -0.65799 -0.11149
vn 0.74964 -0.65476 -0.09656
vn 0.74991 -0.65674 -0.07956
vn 0.74543 -0.66334 -0.06565
vn 0.81206 -0.55951 -0.16584
vn 0.93029 -0.32085 -0.17781
vn 0.57071 -0.07407 -0.8178
vn 0.63205 0.05963 -0.77263
vn 0.7396 0.073 -0.66907
vn 0.84641 0.04553 -0.53057
vn 0.93282 0.05081 -0.35674
vn 0.98915 0.07172 -0.12821
vn 0.9928 0.0437 0.11155
vn 0.94328 -0.02954 0.33067
vn 0.88893 -0.03705 0.45654
vn 0.83047 0.00992 0.55698
vn -0.07941 0.03119 -0.99635
vn 0.00815 0.30195 -0.95329
vn 0.201 0.4848 -0.85122
vn 0.43871 0.60999 -0.65988
vn 0.6058 0.69074 -0.39482
vn 0.67983 0.72799 -0.0886
vn 0.68474 0.69032 0.23366
vn 0.61982 0.58316 0.52512
vn 0.47418 0.46868 0.74531
vn 0.29479 0.33343 0.8955
vn -0.69345 0.11789 -0.71079
vn -0.6095 0.40237 -0.68309
vn -0.42331 0.65791 -0.62287
vn -0.18446 0.867 -0.46292
vn -0.03705 0.97145 -0.23433
vn 0.01129 0.99992 -0.00482
vn 0.01495 0.97189 0.23497
vn -0.02658 0.89107 0.45309
vn -0.17036 0.74136 0.64913
vn -0.36879 0.5028 0.78178
vn -0.98981 0.13813 0.03461
vn -0.96131 0.27498 0.01666
vn -0.88389 0.46724 -0.02069
vn -0.75916 0.65091 -0.00147
vn -0.69858 0.71204 0.07062
vn -0.69363 0.71524 0.08554
vn -0.69337 0.71324 0.10255
vn -0.69789 0.70668 0.11646
vn -0.77245 0.60608 0.18971
vn -0.89361 0.38885 0.2242
vn -0.61886 0.06925 0.78244
vn -0.67982 -0.03482 0.73255
vn -0.77607 -0.03095 0.62988
vn -0.87547 0.02979 0.48235
vn -0.93812 0 0.3463
vn -0.99158 -0.01611 0.12852
vn -0.99504 0.01044 -0.09894
vn -0.94809 0.07654 -0.30865
vn -0.91739 0.09308 -0.38696
vn -0.86944 0.00922 -0.49396
vn 0.99853 -0.00076 0.05417
vn 0.63913 -0.04352 0.76786
vn -0.59312 0.0517 -0.80346
vn 0.0903 0.04541 -0.99488
vn 0.72065 0.03092 -0.69261
vn -0.68345 -0.02332 0.72962
vn -0.99783 0.03217 -0.05744
vn -0.02554 -0.05408 0.99821
vn -0.46114 -0.24824 -0.8519
vn 0.23366 -0.30721 -0.92251
vn 0.80903 -0.2126 -0.54797
vn 0.98048 0.01331 0.19617
vn -0.16465 0.30192 0.93901
vn -0.77735 0.23475 0.58362
vn 0.52413 0.22508 0.82136
vn -0.97595 -0.00702 -0.21788
vn 0.98427 0.1746 -0.0271
vn 0.69346 -0.25215 0.67493
vn 0.87251 0.45263 -0.184
vn 0.82399 -0.1511 0.54608
vn -0.77415 0.16157 -0.61203
vn -0.14573 0.44893 -0.8816
vn -0.61274 0.37249 -0.697
vn -0.08008 0.62122 -0.77953
vn 0.51468 0.48181 -0.7092
vn 0.41406 0.65784 -0.62913
vn -0.53186 -0.44155 0.7226
vn -0.959 -0.25914 0.11478
vn -0.44923 -0.67291 0.5877
vn -0.95866 -0.26359 -0.10718
vn 0.08655 -0.43493 0.89629
vn 0.1862 -0.58758 0.78745
vn -0.69666 -0.25792 -0.66944
vn -0.11139 -0.29878 -0.9478
vn -0.63422 -0.50414 -0.58618
vn -0.0181 -0.46734 -0.88389
vn 0.52634 -0.235 -0.81716
vn 0.98971 0.02728 -0.14048
vn 0.67799 -0.16212 -0.71697
vn 0.94176 0.32878 0.07065
vn 0.04138 0.32213 0.94579
vn -0.62772 0.16667 0.76039
vn 0.08405 0.48135 0.87249
vn -0.47271 0.28999 0.83213
vn 0.67512 0.30013 0.6739
vn 0.56668 0.51144 0.646
vn -0.99314 -0.10944 0.04114
vn -0.95457 -0.16456 0.24842
vt 0.25707 0.75276
vt 0.26313 0.70902
vt 0.21512 0.7122
vt 0.20587 0.75446
vt 0.25604 0.79217
vt 0.19668 0.79123
vt 0.25918 0.82593
vt 0.19219 0.82675
vt 0.26279 0.86015
vt 0.19294 0.86281
vt 0.26505 0.892
vt 0.19739 0.89614
vt 0.26443 0.92008
vt 0.20231 0.92478
vt 0.99301 0.73491
vt 0.92493 0.73863
vt 0.93094 0.77801
vt 0.99989 0.76941
vt 0.26109 0.95074
vt 0.20581 0.95595
vt 0.25521 0.99093
vt 0.20519 0.99656
vt 0.01121 0.84998
vt 0.07825 0.86049
vt 0.06968 0.81961
vt 0.00273 0.81129
vt 0.79884 0.98857
vt 0.80159 0.94935
vt 0.73707 0.94767
vt 0.74447 0.98667
vt 0.67906 0.94563
vt 0.68664 0.98502
vt 0.61925 0.94268
vt 0.62639 0.98498
vt 0.57017 0.94589
vt 0.57446 0.99077
vt 0.52095 0.94798
vt 0.52236 0.99404
vt 0.47201 0.94701
vt 0.47096 0.99285
vt 0.42253 0.94613
vt 0.4198 0.99109
vt 0.37251 0.94479
vt 0.36785 0.98826
vt 0.31551 0.94842
vt 0.31051 0.98926
vt 0.80718 0.91987
vt 0.73208 0.91723
vt 0.67285 0.91585
vt 0.61362 0.90998
vt 0.56647 0.90964
vt 0.51947 0.90966
vt 0.47276 0.90929
vt 0.42543 0.9096
vt 0.37677 0.91056
vt 0.32004 0.91745
vt 0.81193 0.89196
vt 0.7305 0.8896
vt 0.66976 0.88851
vt 0.61105 0.88178
vt 0.56417 0.87964
vt 0.51866 0.87843
vt 0.47361 0.8787
vt 0.42759 0.87924
vt 0.37908 0.88106
vt 0.32267 0.88918
vt 0.81476 0.86031
vt 0.73258 0.85859
vt 0.67069 0.8585
vt 0.61149 0.85338
vt 0.56352 0.85155
vt 0.51819 0.85084
vt 0.47407 0.85074
vt 0.42856 0.85062
vt 0.37899 0.85136
vt 0.32261 0.85844
vt 0.81281 0.82758
vt 0.73668 0.82607
vt 0.67452 0.82655
vt 0.61543 0.82377
vt 0.56545 0.82301
vt 0.51924 0.823
vt 0.47391 0.82279
vt 0.42721 0.82171
vt 0.37647 0.82113
vt 0.31961 0.82457
vt 0.80673 0.79451
vt 0.74163 0.79493
vt 0.68014 0.79336
vt 0.62075 0.7922
vt 0.56845 0.79216
vt 0.52039 0.79214
vt 0.47329 0.79121
vt 0.42487 0.79035
vt 0.37253 0.78876
vt 0.31623 0.78995
vt 0.79798 0.75884
vt 0.74227 0.7587
vt 0.68334 0.7549
vt 0.62419 0.75435
vt 0.57134 0.755
vt 0.5214 0.75437
vt 0.47255 0.75284
vt 0.42278 0.75273
vt 0.3701 0.75095
vt 0.31415 0.75088
vt 0.79081 0.71775
vt 0.73748 0.71635
vt 0.68139 0.71095
vt 0.62243 0.70945
vt 0.57251 0.71064
vt 0.52285 0.70917
vt 0.47297 0.70837
vt 0.42276 0.7081
vt 0.37215 0.70603
vt 0.31633 0.70574
vt 0.98322 0.92262
vt 0.91379 0.92271
vt 0.91681 0.95346
vt 0.98571 0.95897
vt 0.00011 0.77683
vt 0.06796 0.77991
vt 0.07538 0.74085
vt 0.00761 0.74315
vt 0.01868 0.96068
vt 0.08691 0.95817
vt 0.09043 0.92745
vt 0.02212 0.92527
vt 0.99132 0.84491
vt 0.92248 0.85674
vt 0.91641 0.89249
vt 0.98553 0.88622
vt 0.01906 0.88972
vt 0.08667 0.89692
vt 0.92907 0.81685
vt 0.99767 0.80455
vt 0.92382 0.99125
vt 0.99253 0.99989
vt 0.98024 0.6971
vt 0.91251 0.69815
vt 0.00903 0.99989
vt 0.0772 0.99453
vt 0.08822 0.701
vt 0.02001 0.70555
vt 0.2501 0.43976
vt 0.24049 0.39862
vt 0.19195 0.40556
vt 0.19778 0.44452
vt 0.25513 0.47198
vt 0.2002 0.47407
vt 0.25646 0.50102
vt 0.20092 0.50087
vt 0.25442 0.53253
vt 0.19937 0.53107
vt 0.25041 0.56538
vt 0.19763 0.5638
vt 0.24665 0.59789
vt 0.19722 0.59752
vt 0.24641 0.63475
vt 0.19916 0.63691
vt 0.25187 0.6783
vt 0.20448 0.68023
vt 0.79273 0.67558
vt 0.79531 0.63451
vt 0.7371 0.63584
vt 0.7344 0.67925
vt 0.67855 0.64021
vt 0.67468 0.68463
vt 0.62312 0.64617
vt 0.61849 0.69308
vt 0.56774 0.64412
vt 0.5676 0.68966
vt 0.51645 0.64438
vt 0.51688 0.68997
vt 0.46613 0.64379
vt 0.46644 0.68945
vt 0.41427 0.64492
vt 0.41611 0.69073
vt 0.35783 0.64961
vt 0.36535 0.69688
vt 0.3022 0.64054
vt 0.30937 0.68564
vt 0.79567 0.59925
vt 0.73551 0.59948
vt 0.67577 0.60115
vt 0.62059 0.60609
vt 0.56525 0.60541
vt 0.51524 0.6046
vt 0.46642 0.60515
vt 0.41578 0.60563
vt 0.35754 0.60733
vt 0.30263 0.60082
vt 0.79546 0.56835
vt 0.73221 0.56673
vt 0.67021 0.56826
vt 0.61488 0.57216
vt 0.56238 0.57329
vt 0.51458 0.5728
vt 0.46769 0.57224
vt 0.41874 0.57245
vt 0.36301 0.57061
vt 0.30825 0.56647
vt 0.79554 0.53608
vt 0.72968 0.53378
vt 0.66579 0.53636
vt 0.60982 0.54141
vt 0.56042 0.54379
vt 0.514 0.54419
vt 0.46858 0.54312
vt 0.42125 0.54205
vt 0.36942 0.5379
vt 0.31452 0.5337
vt 0.79677 0.50492
vt 0.72938 0.5025
vt 0.66485 0.506
vt 0.60841 0.51256
vt 0.56111 0.51502
vt 0.51461 0.51542
vt 0.46845 0.51491
vt 0.4215 0.51276
vt 0.37345 0.50786
vt 0.31842 0.50282
vt 0.79881 0.47625
vt 0.73209 0.47429
vt 0.66763 0.47748
vt 0.61048 0.48451
vt 0.56354 0.48474
vt 0.51588 0.48419
vt 0.46818 0.48295
vt 0.4202 0.48196
vt 0.37325 0.47946
vt 0.31778 0.47363
vt 0.80148 0.4448
vt 0.73757 0.44376
vt 0.67452 0.44607
vt 0.61667 0.45257
vt 0.56773 0.44828
vt 0.51746 0.44565
vt 0.46737 0.4437
vt 0.4173 0.44501
vt 0.3687 0.44753
vt 0.31205 0.44142
vt 0.8052 0.40496
vt 0.74513 0.40397
vt 0.684 0.40522
vt 0.62625 0.41069
vt 0.57353 0.40263
vt 0.52042 0.39775
vt 0.46707 0.39669
vt 0.4132 0.39881
vt 0.35922 0.40573
vt 0.30061 0.40029
vt 0.14661 0.92792
vt 0.14331 0.89897
vt 0.14124 0.7438
vt 0.1513 0.70232
vt 0.14031 0.99498
vt 0.14541 0.95753
vt 0.1336 0.82404
vt 0.1347 0.78411
vt 0.13785 0.86415
vt 0.86753 0.82381
vt 0.86517 0.86191
vt 0.86203 0.89445
vt 0.85955 0.92185
vt 0.85045 0.70363
vt 0.85978 0.74651
vt 0.85939 0.95109
vt 0.86071 0.98939
vt 0.86568 0.78612
vt 0.12706 0.60306
vt 0.13692 0.56966
vt 0.01175 0.6184
vt 0.02901 0.58708
vt 0.1163 0.4511
vt 0.10979 0.41281
vt 0.01423 0.4385
vt 0.00011 0.39898
vt 0.11879 0.68506
vt 0.11866 0.64077
vt 0.01052 0.69169
vt 0.00333 0.65242
vt 0.13648 0.50451
vt 0.12781 0.47856
vt 0.04377 0.50488
vt 0.03306 0.46896
vt 0.13956 0.53542
vt 0.04244 0.54668
vt 0.87155 0.5053
vt 0.86606 0.5368
vt 0.96076 0.50585
vt 0.95902 0.54828
vt 0.86693 0.57143
vt 0.87534 0.60549
vt 0.96709 0.59001
vt 0.98188 0.62214
vt 0.89473 0.41264
vt 0.89083 0.45098
vt 0.99761 0.39875
vt 0.98861 0.43915
vt 0.88374 0.64319
vt 0.88361 0.68631
vt 0.99142 0.65566
vt 0.98703 0.69688
vt 0.88066 0.47903
vt 0.97258 0.47093
usemtl mat0
f 319/319/244 320/320/245 321/321/246
f 321/321/246 322/322/247 319/319/244
f 323/323/248 319/319/244 322/322/247
f 322/322/247 324/324/249 323/323/248
f 325/325/250 323/323/248 324/324/249
f 324/324/249 326/326/251 325/325/250
f 327/327/252 325/325/250 326/326/251
f 326/326/251 328/328/253 327/327/252
f 329/329/254 327/327/252 328/328/253
f 328/328/253 330/330/255 329/329/254
f 331/331/256 329/329/254 330/330/255
f 330/330/255 332/332/257 331/331/256
f 333/333/258 334/334/259 335/335/260
f 335/335/260 336/336/261 333/333/258
f 337/337/262 331/331/256 332/332/257
f 332/332/257 338/338/263 337/337/262
f 339/339/245 337/337/262 338/338/263
f 338/338/263 340/340/246 339/339/245
f 341/341/264 342/342/265 343/343/266
f 343/343/266 344/344/267 341/341/264
f 345/345/268 346/346/269 347/347/270
f 347/347/270 348/348/271 345/345/268
f 348/348/271 347/347/270 349/349/272
f 349/349/272 350/350/273 348/348/271
f 350/350/273 349/349/272 351/351/274
f 351/351/274 352/352/275 350/350/273
f 352/352/275 351/351/274 353/353/276
f 353/353/276 354/354/277 352/352/275
f 354/354/277 353/353/276 355/355/278
f 355/355/278 356/356/279 354/354/277
f 356/356/279 355/355/278 357/357/280
f 357/357/280 358/358/281 356/356/279
f 358/358/281 357/357/280 359/359/282
f 359/359/282 360/360/283 358/358/281
f 360/360/283 359/359/282 361/361/284
f 361/361/284 362/362/285 360/360/283
f 362/362/285 361/361/284 363/363/286
f 363/363/286 364/364/287 362/362/285
f 364/364/287 363/363/286 337/337/262
f 337/337/262 339/339/245 364/364/287
f 346/346/269 365/365/288 366/366/289
f 366/366/289 347/347/270 346/346/269
f 347/347/270 366/366/289 367/367/290
f 367/367/290 349/349/272 347/347/270
f 349/349/272 367/367/290 368/368/291
f 368/368/291 351/351/274 349/349/272
f 351/351/274 368/368/291 369/369/292
f 369/369/292 353/353/276 351/351/274
f 353/353/276 369/369/292 370/370/293
f 370/370/293 355/355/278 353/353/276
f 355/355/278 370/370/293 371/371/294
f 371/371/294 357/357/280 355/355/278
f 357/357/280 371/371/294 372/372/295
f 372/372/295 359/359/282 357/357/280
f 359/359/282 372/372/295 373/373/296
f 373/373/296 361/361/284 359/359/282
f 361/361/284 373/373/296 374/374/297
f 374/374/297 363/363/286 361/361/284
f 363/363/286 374/374/297 331/331/256
f 331/331/256 337/337/262 363/363/286
f 365/365/288 375/375/298 376/376/299
f 376/376/299 366/366/289 365/365/288
f 366/366/289 376/376/299 377/377/300
f 377/377/300 367/367/290 366/366/289
f 367/367/290 377/377/300 378/378/301
f 378/378/301 368/368/291 367/367/290
f 368/368/291 378/378/301 379/379/302
f 379/379/302 369/369/292 368/368/291
f 369/369/292 379/379/302 380/380/303
f 380/380/303 370/370/293 369/369/292
f 370/370/293 380/380/303 381/381/304
f 381/381/304 371/371/294 370/370/293
f 371/371/294 381/381/304 382/382/305
f 382/382/305 372/372/295 371/371/294
f 372/372/295 382/382/305 383/383/306
f 383/383/306 373/373/296 372/372/295
f 373/373/296 383/383/306 384/384/307
f 384/384/307 374/374/297 373/373/296
f 374/374/297 384/384/307 329/329/254
f 329/329/254 331/331/256 374/374/297
f 375/375/298 385/385/308 386/386/309
f 386/386/309 376/376/299 375/375/298
f 376/376/299 386/386/309 387/387/310
f 387/387/310 377/377/300 376/376/299
f 377/377/300 387/387/310 388/388/311
f 388/388/311 378/378/301 377/377/300
f 378/378/301 388/388/311 389/389/312
f 389/389/312 379/379/302 378/378/301
f 379/379/302 389/389/312 390/390/313
f 390/390/313 380/380/303 379/379/302
f 380/380/303 390/390/313 391/391/314
f 391/391/314 381/381/304 380/380/303
f 381/381/304 391/391/314 392/392/315
f 392/392/315 382/382/305 381/381/304
f 382/382/305 392/392/315 393/393/316
f 393/393/316 383/383/306 382/382/305
f 383/383/306 393/393/316 394/394/317
f 394/394/317 384/384/307 383/383/306
f 384/384/307 394/394/317 327/327/252
f 327/327/252 329/329/254 384/384/307
f 385/385/308 395/395/318 396/396/319
f 396/396/319 386/386/309 385/385/308
f 386/386/309 396/396/319 397/397/320
f 397/397/320 387/387/310 386/386/309
f 387/387/310 397/397/320 398/398/321
f 398/398/321 388/388/311 387/387/310
f 388/388/311 398/398/321 399/399/322
f 399/399/322 389/389/312 388/388/311
f 389/389/312 399/399/322 400/400/323
f 400/400/323 390/390/313 389/389/312
f 390/390/313 400/400/323 401/401/324
f 401/401/324 391/391/314 390/390/313
f 391/391/314 401/401/324 402/402/325
f 402/402/325 392/392/315 391/391/314
f 392/392/315 402/402/325 403/403/326
f 403/403/326 393/393/316 392/392/315
f 393/393/316 403/403/326 404/404/327
f 404/404/327 394/394/317 393/393/316
f 394/394/317 404/404/327 325/325/250
f 325/325/250 327/327/252 394/394/317
f 395/395/318 405/405/328 406/406/329
f 406/406/329 396/396/319 395/395/318
f 396/396/319 406/406/329 407/407/330
f 407/407/330 397/397/320 396/396/319
f 397/397/320 407/407/330 408/408/331
f 408/408/331 398/398/321 397/397/320
f 398/398/321 408/408/331 409/409/332
f 409/409/332 399/399/322 398/398/321
f 399/399/322 409/409/332 410/410/333
f 410/410/333 400/400/323 399/399/322
f 400/400/323 410/410/333 411/411/334
f 411/411/334 401/401/324 400/400/323
f 401/401/324 411/411/334 412/412/335
f 412/412/335 402/402/325 401/401/324
f 402/402/325 412/412/335 413/413/336
f 413/413/336 403/403/326 402/402/325
f 403/403/326 413/413/336 414/414/337
f 414/414/337 404/404/327 403/403/326
f 404/404/327 414/414/337 323/323/248
f 323/323/248 325/325/250 404/404/327
f 405/405/328 415/415/338 416/416/339
f 416/416/339 406/406/329 405/405/328
f 406/406/329 416/416/339 417/417/340
f 417/417/340 407/407/330 406/406/329
f 407/407/330 417/417/340 418/418/341
f 418/418/341 408/408/331 407/407/330
f 408/408/331 418/418/341 419/419/342
f 419/419/342 409/409/332 408/408/331
f 409/409/332 419/419/342 420/420/343
f 420/420/343 410/410/333 409/409/332
f 410/410/333 420/420/343 421/421/344
f 421/421/344 411/411/334 410/410/333
f 411/411/334 421/421/344 422/422/345
f 422/422/345 412/412/335 411/411/334
f 412/412/335 422/422/345 423/423/346
f 423/423/346 413/413/336 412/412/335
f 413/413/336 423/423/346 424/424/347
f 424/424/347 414/414/337 413/413/336
f 414/414/337 424/424/347 319/319/244
f 319/319/244 323/323/248 414/414/337
f 415/415/338 425/425/268 426/426/271
f 426/426/271 416/416/339 415/415/338
f 416/416/339 426/426/271 427/427/273
f 427/427/273 417/417/340 416/416/339
f 417/417/340 427/427/273 428/428/275
f 428/428/275 418/418/341 417/417/340
f 418/418/341 428/428/275 429/429/277
f 429/429/277 419/419/342 418/418/341
f 419/419/342 429/429/277 430/430/279
f 430/430/279 420/420/343 419/419/342
f 420/420/343 430/430/279 431/431/281
f 431/431/281 421/421/344 420/420/343
f 421/421/344 431/431/281 432/432/283
f 432/432/283 422/422/345 421/421/344
f 422/422/345 432/432/283 433/433/285
f 433/433/285 423/423/346 422/422/345
f 423/423/346 433/433/285 434/434/287
f 434/434/287 424/424/347 423/423/346
f 424/424/347 434/434/287 320/320/245
f 320/320/245 319/319/244 424/424/347
f 435/435/348 436/436/349 437/437/350
f 437/437/350 438/438/351 435/435/348
f 439/439/352 440/440/353 441/441/354
f 441/441/354 442/442/355 439/439/352
f 443/443/356 444/444/357 445/445/358
f 445/445/358 446/446/359 443/443/356
f 447/447/360 448/448/361 449/449/362
f 449/449/362 450/450/363 447/447/360
f 451/451/364 452/452/365 342/342/265
f 342/342/265 341/341/264 451/451/364
f 336/336/261 335/335/260 453/453/366
f 453/453/366 454/454/367 336/336/261
f 438/438/351 437/437/350 455/455/368
f 455/455/368 456/456/369 438/438/351
f 457/457/369 458/458/368 334/334/259
f 334/334/259 333/333/258 457/457/369
f 344/344/267 343/343/266 440/440/353
f 440/440/353 439/439/352 344/344/267
f 459/459/370 460/460/371 444/444/357
f 444/444/357 443/443/356 459/459/370
f 442/442/355 441/441/354 461/461/371
f 461/461/371 462/462/370 442/442/355
f 450/450/363 449/449/362 436/436/349
f 436/436/349 435/435/348 450/450/363
f 446/446/359 445/445/358 452/452/365
f 452/452/365 451/451/364 446/446/359
f 454/454/367 453/453/366 448/448/361
f 448/448/361 447/447/360 454/454/367
f 463/463/372 464/464/373 465/465/374
f 465/465/374 466/466/375 463/463/372
f 467/467/376 463/463/372 466/466/375
f 466/466/375 468/468/377 467/467/376
f 469/469/378 467/467/376 468/468/377
f 468/468/377 470/470/379 469/469/378
f 471/471/380 469/469/378 470/470/379
f 470/470/379 472/472/381 471/471/380
f 473/473/382 471/471/380 472/472/381
f 472/472/381 474/474/383 473/473/382
f 475/475/384 473/473/382 474/474/383
f 474/474/383 476/476/385 475/475/384
f 477/477/386 475/475/384 476/476/385
f 476/476/385 478/478/387 477/477/386
f 479/479/373 477/477/386 478/478/387
f 478/478/387 480/480/374 479/479/373
f 481/481/388 482/482/389 483/483/390
f 483/483/390 484/484/391 481/481/388
f 484/484/391 483/483/390 485/485/392
f 485/485/392 486/486/393 484/484/391
f 486/486/393 485/485/392 487/487/394
f 487/487/394 488/488/395 486/486/393
f 488/488/395 487/487/394 489/489/396
f 489/489/396 490/490/397 488/488/395
f 490/490/397 489/489/396 491/491/398
f 491/491/398 492/492/399 490/490/397
f 492/492/399 491/491/398 493/493/400
f 493/493/400 494/494/401 492/492/399
f 494/494/401 493/493/400 495/495/402
f 495/495/402 496/496/403 494/494/401
f 496/496/403 495/495/402 497/497/404
f 497/497/404 498/498/405 496/496/403
f 498/498/405 497/497/404 499/499/406
f 499/499/406 500/500/407 498/498/405
f 500/500/407 499/499/406 477/477/386
f 477/477/386 479/479/373 500/500/407
f 482/482/389 501/501/408 502/502/409
f 502/502/409 483/483/390 482/482/389
f 483/483/390 502/502/409 503/503/410
f 503/503/410 485/485/392 483/483/390
f 485/485/392 503/503/410 504/504/411
f 504/504/411 487/487/394 485/485/392
f 487/487/394 504/504/411 505/505/412
f 505/505/412 489/489/396 487/487/394
f 489/489/396 505/505/412 506/506/413
f 506/506/413 491/491/398 489/489/396
f 491/491/398 506/506/413 507/507/414
f 507/507/414 493/493/400 491/491/398
f 493/493/400 507/507/414 508/508/415
f 508/508/415 495/495/402 493/493/400
f 495/495/402 508/508/415 509/509/416
f 509/509/416 497/497/404 495/495/402
f 497/497/404 509/509/416 510/510/417
f 510/510/417 499/499/406 497/497/404
f 499/499/406 510/510/417 475/475/384
f 475/475/384 477/477/386 499/499/406
f 501/501/408 511/511/418 512/512/419
f 512/512/419 502/502/409 501/501/408
f 502/502/409 512/512/419 513/513/420
f 513/513/420 503/503/410 502/502/409
f 503/503/410 513/513/420 514/514/421
f 514/514/421 504/504/411 503/503/410
f 504/504/411 514/514/421 515/515/422
f 515/515/422 505/505/412 504/504/411
f 505/505/412 515/515/422 516/516/423
f 516/516/423 506/506/413 505/505/412
f 506/506/413 516/516/423 517/517/424
f 517/517/424 507/507/414 506/506/413
f 507/507/414 517/517/424 518/518/425
f 518/518/425 508/508/415 507/507/414
f 508/508/415 518/518/425 519/519/426
f 519/519/426 509/509/416 508/508/415
f 509/509/416 519/519/426 520/520/427
f 520/520/427 510/510/417 509/509/416
f 510/510/417 520/520/427 473/473/382
f 473/473/382 475/475/384 510/510/417
f 511/511/418 521/521/428 522/522/429
f 522/522/429 512/512/419 511/511/418
f 512/512/419 522/522/429 523/523/430
f 523/523/430 513/513/420 512/512/419
f 513/513/420 523/523/430 524/524/431
f 524/524/431 514/514/421 513/513/420
f 514/514/421 524/524/431 525/525/432
f 525/525/432 515/515/422 514/514/421
f 515/515/422 525/525/432 526/526/433
f 526/526/433 516/516/423 515/515/422
f 516/516/423 526/526/433 527/527/434
f 527/527/434 517/517/424 516/516/423
f 517/517/424 527/527/434 528/528/435
f 528/528/435 518/518/425 517/517/424
f 518/518/425 528/528/435 529/529/436
f 529/529/436 519/519/426 518/518/425
f 519/519/426 529/529/436 530/530/437
f 530/530/437 520/520/427 519/519/426
f 520/520/427 530/530/437 471/471/380
f 471/471/380 473/473/382 520/520/427
f 521/521/428 531/531/438 532/532/439
f 532/532/439 522/522/429 521/521/428
f 522/522/429 532/532/439 533/533/440
f 533/533/440 523/523/430 522/522/429
f 523/523/430 533/533/440 534/534/441
f 534/534/441 524/524/431 523/523/430
f 524/524/431 534/534/441 535/535/442
f 535/535/442 525/525/432 524/524/431
f 525/525/432 535/535/442 536/536/443
f 536/536/443 526/526/433 525/525/432
f 526/526/433 536/536/443 537/537/444
f 537/537/444 527/527/434 526/526/433
f 527/527/434 537/537/444 538/538/445
f 538/538/445 528/528/435 527/527/434
f 528/528/435 538/538/445 539/539/446
f 539/539/446 529/529/436 528/528/435
f 529/529/436 539/539/446 540/540/447
f 540/540/447 530/530/437 529/529/436
f 530/530/437 540/540/447 469/469/378
f 469/469/378 471/471/380 530/530/437
f 531/531/438 541/541/448 542/542/449
f 542/542/449 532/532/439 531/531/438
f 532/532/439 542/542/449 543/543/450
f 543/543/450 533/533/440 532/532/439
f 533/533/440 543/543/450 544/544/451
f 544/544/451 534/534/441 533/533/440
f 534/534/441 544/544/451 545/545/452
f 545/545/452 535/535/442 534/534/441
f 535/535/442 545/545/452 546/546/453
f 546/546/453 536/536/443 535/535/442
f 536/536/443 546/546/453 547/547/454
f 547/547/454 537/537/444 536/536/443
f 537/537/444 547/547/454 548/548/455
f 548/548/455 538/538/445 537/537/444
f 538/538/445 548/548/455 549/549/456
f 549/549/456 539/539/446 538/538/445
f 539/539/446 549/549/456 550/550/457
f 550/550/457 540/540/447 539/539/446
f 540/540/447 550/550/457 467/467/376
f 467/467/376 469/469/378 540/540/447
f 541/541/448 551/551/458 552/552/459
f 552/552/459 542/542/449 541/541/448
f 542/542/449 552/552/459 553/553/460
f 553/553/460 543/543/450 542/542/449
f 543/543/450 553/553/460 554/554/461
f 554/554/461 544/544/451 543/543/450
f 544/544/451 554/554/461 555/555/462
f 555/555/462 545/545/452 544/544/451
f 545/545/452 555/555/462 556/556/463
f 556/556/463 546/546/453 545/545/452
f 546/546/453 556/556/463 557/557/464
f 557/557/464 547/547/454 546/546/453
f 547/547/454 557/557/464 558/558/465
f 558/558/465 548/548/455 547/547/454
f 548/548/455 558/558/465 559/559/466
f 559/559/466 549/549/456 548/548/455
f 549/549/456 559/559/466 560/560/467
f 560/560/467 550/550/457 549/549/456
f 550/550/457 560/560/467 463/463/372
f 463/463/372 467/467/376 550/550/457
f 551/551/458 561/561/388 562/562/391
f 562/562/391 552/552/459 551/551/458
f 552/552/459 562/562/391 563/563/393
f 563/563/393 553/553/460 552/552/459
f 553/553/460 563/563/393 564/564/395
f 564/564/395 554/554/461 553/553/460
f 554/554/461 564/564/395 565/565/397
f 565/565/397 555/555/462 554/554/461
f 555/555/462 565/565/397 566/566/399
f 566/566/399 556/556/463 555/555/462
f 556/556/463 566/566/399 567/567/401
f 567/567/401 557/557/464 556/556/463
f 557/557/464 567/567/401 568/568/403
f 568/568/403 558/558/465 557/557/464
f 558/558/465 568/568/403 569/569/405
f 569/569/405 559/559/466 558/558/465
f 559/559/466 569/569/405 570/570/407
f 570/570/407 560/560/467 559/559/466
f 560/560/467 570/570/407 464/464/373
f 464/464/373 463/463/372 560/560/467
f 571/571/468 332/332/257 330/330/255
f 330/330/255 572/572/469 571/571/468
f 445/445/358 571/571/468 572/572/469
f 572/572/469 452/452/365 445/445/358
f 573/573/470 322/322/247 321/321/246
f 321/321/246 574/574/471 573/573/470
f 441/441/354 573/573/470 574/574/471
f 574/574/471 461/461/371 441/441/354
f 575/575/471 340/340/246 338/338/263
f 338/338/263 576/576/472 575/575/471
f 460/460/371 575/575/471 576/576/472
f 576/576/472 444/444/357 460/460/371
f 577/577/473 326/326/251 324/324/249
f 324/324/249 578/578/474 577/577/473
f 343/343/266 577/577/473 578/578/474
f 578/578/474 440/440/353 343/343/266
f 572/572/469 330/330/255 328/328/253
f 328/328/253 579/579/475 572/572/469
f 452/452/365 572/572/469 579/579/475
f 579/579/475 342/342/265 452/452/365
f 576/576/472 338/338/263 332/332/257
f 332/332/257 571/571/468 576/576/472
f 444/444/357 576/576/472 571/571/468
f 571/571/468 445/445/358 444/444/357
f 578/578/474 324/324/249 322/322/247
f 322/322/247 573/573/470 578/578/474
f 440/440/353 578/578/474 573/573/470
f 573/573/470 441/441/354 440/440/353
f 579/579/475 328/328/253 326/326/251
f 326/326/251 577/577/473 579/579/475
f 342/342/265 579/579/475 577/577/473
f 577/577/473 343/343/266 342/342/265
f 580/580/476 395/395/318 385/385/308
f 385/385/308 581/581/477 580/580/476
f 453/453/366 580/580/476 581/581/477
f 581/581/477 448/448/361 453/453/366
f 582/582/478 375/375/298 365/365/288
f 365/365/288 583/583/479 582/582/478
f 449/449/362 582/582/478 583/583/479
f 583/583/479 436/436/349 449/449/362
f 584/584/480 425/425/268 415/415/338
f 415/415/338 585/585/481 584/584/480
f 458/458/368 584/584/480 585/585/481
f 585/585/481 334/334/259 458/458/368
f 586/586/482 346/346/269 345/345/268
f 345/345/268 587/587/480 586/586/482
f 437/437/350 586/586/482 587/587/480
f 587/587/480 455/455/368 437/437/350
f 588/588/483 405/405/328 395/395/318
f 395/395/318 580/580/476 588/588/483
f 335/335/260 588/588/483 580/580/476
f 580/580/476 453/453/366 335/335/260
f 581/581/477 385/385/308 375/375/298
f 375/375/298 582/582/478 581/581/477
f 448/448/361 581/581/477 582/582/478
f 582/582/478 449/449/362 448/448/361
f 583/583/479 365/365/288 346/346/269
f 346/346/269 586/586/482 583/583/479
f 436/436/349 583/583/479 586/586/482
f 586/586/482 437/437/350 436/436/349
f 585/585/481 415/415/338 405/405/328
f 405/405/328 588/588/483 585/585/481
f 334/334/259 585/585/481 588/588/483
f 588/588/483 335/335/260 334/334/259
f 589/589/484 476/476/385 474/474/383
f 474/474/383 590/590/485 589/589/484
f 591/591/486 589/589/484 590/590/485
f 590/590/485 592/592/487 591/591/486
f 593/593/488 466/466/375 465/465/374
f 465/465/374 594/594/489 593/593/488
f 595/595/490 593/593/488 594/594/489
f 594/594/489 596/596/491 595/595/490
f 597/597/489 480/480/374 478/478/387
f 478/478/387 598/598/492 597/597/489
f 599/599/491 597/597/489 598/598/492
f 598/598/492 600/600/493 599/599/491
f 601/601/494 470/470/379 468/468/377
f 468/468/377 602/602/495 601/601/494
f 603/603/496 601/601/494 602/602/495
f 602/602/495 604/604/497 603/603/496
f 590/590/485 474/474/383 472/472/381
f 472/472/381 605/605/498 590/590/485
f 592/592/487 590/590/485 605/605/498
f 605/605/498 606/606/499 592/592/487
f 598/598/492 478/478/387 476/476/385
f 476/476/385 589/589/484 598/598/492
f 600/600/493 598/598/492 589/589/484
f 589/589/484 591/591/486 600/600/493
f 602/602/495 468/468/377 466/466/375
f 466/466/375 593/593/488 602/602/495
f 604/604/497 602/602/495 593/593/488
f 593/593/488 595/595/490 604/604/497
f 605/605/498 472/472/381 470/470/379
f 470/470/379 601/601/494 605/605/498
f 606/606/499 605/605/498 601/601/494
f 601/601/494 603/603/496 606/606/499
f 607/607/500 531/531/438 521/521/428
f 521/521/428 608/608/501 607/607/500
f 609/609/502 607/607/500 608/608/501
f 608/608/501 610/610/503 609/609/502
f 611/611/504 511/511/418 501/501/408
f 501/501/408 612/612/505 611/611/504
f 613/613/506 611/611/504 612/612/505
f 612/612/505 614/614/507 613/613/506
f 615/615/508 561/561/388 551/551/458
f 551/551/458 616/616/509 615/615/508
f 617/617/510 615/615/508 616/616/509
f 616/616/509 618/618/511 617/617/510
f 619/619/512 482/482/389 481/481/388
f 481/481/388 620/620/508 619/619/512
f 621/621/513 619/619/512 620/620/508
f 620/620/508 622/622/510 621/621/513
f 623/623/514 541/541/448 531/531/438
f 531/531/438 607/607/500 623/623/514
f 624/624/515 623/623/514 607/607/500
f 607/607/500 609/609/502 624/624/515
f 608/608/501 521/521/428 511/511/418
f 511/511/418 611/611/504 608/608/501
f 610/610/503 608/608/501 611/611/504
f 611/611/504 613/613/506 610/610/503
f 612/612/505 501/501/408 482/482/389
f 482/482/389 619/619/512 612/612/505
f 614/614/507 612/612/505 619/619/512
f 619/619/512 621/621/513 614/614/507
f 616/616/509 551/551/458 541/541/448
f 541/541/448 623/623/514 616/616/509
f 618/618/511 616/616/509 623/623/514
f 623/623/514 624/624/515 618/618/511
# Vertices: 306, normals: 272, texture coordinates: 306, faces: 512

