# Blender 4.5.3 LTS
# www.blender.org
mtllib screen.mtl
o Cube
v 0.900000 2.669564 -0.010570
v 0.900000 1.319565 -0.010570
v 0.868701 2.639417 0.000589
v 0.868701 1.349712 0.000589
v 0.900000 0.128137 -0.014879
v 0.900000 0.128705 0.001311
v 0.900000 0.025912 -0.011292
v 0.900000 0.026480 0.004899
v 0.900000 2.669564 0.000589
v 0.900000 1.319565 0.000589
v 0.868701 2.639417 -0.005576
v 0.868701 1.349712 -0.005576
v 0.988006 0.128747 0.001106
v 0.988006 0.128107 -0.015086
v 0.988006 0.026504 0.005102
v 0.988006 0.025874 -0.011090
v 0.900000 0.083610 -0.056387
v 0.900000 0.122593 -0.030102
v 0.900000 0.112617 -0.042867
v 0.900000 0.099184 -0.051924
v 0.900000 0.102420 0.040294
v 0.900000 0.115185 0.030318
v 0.900000 0.124242 0.016885
v 0.900000 0.030375 -0.026866
v 0.900000 0.067420 -0.055819
v 0.900000 0.052197 -0.050275
v 0.900000 0.039432 -0.040299
v 0.900000 0.032024 0.020122
v 0.900000 0.042000 0.032886
v 0.900000 0.055433 0.041943
v 0.900000 0.071007 0.046406
v 0.988006 0.124337 0.016701
v 0.988006 0.115337 0.030174
v 0.988006 0.103099 0.039485
v 0.988006 0.032109 0.020306
v 0.988006 0.070484 0.045965
v 0.988006 0.055617 0.042038
v 0.988006 0.042124 0.033085
v 0.988006 0.030280 -0.026681
v 0.988006 0.083405 -0.056420
v 0.988006 0.039282 -0.040154
v 0.988006 0.052007 -0.050184
v 0.988006 0.067210 -0.055798
v 0.988006 0.099006 -0.052025
v 0.988006 0.112475 -0.043015
v 0.988006 0.122499 -0.030287
v 0.930936 0.085730 0.044355
v 0.930936 0.088143 0.043881
v 0.930936 0.025903 -0.011220
v 0.957070 0.025883 -0.011162
v 0.957070 0.128738 0.001178
v 0.930936 0.128714 0.001239
v 0.930936 0.128123 -0.014951
v 0.957070 0.128121 -0.015015
v 0.957070 0.026490 0.005030
v 0.930936 0.026494 0.004970
v 0.930936 0.067348 -0.055804
v 0.957070 0.067282 -0.055812
v 0.930936 0.052133 -0.050240
v 0.957070 0.052070 -0.050220
v 0.930936 0.039382 -0.040245
v 0.957070 0.039332 -0.040207
v 0.957070 0.030311 -0.026748
v 0.930936 0.030344 -0.026800
v 0.930936 0.102484 0.040259
v 0.957070 0.103037 0.039521
v 0.930936 0.115235 0.030265
v 0.957070 0.115288 0.030227
v 0.930936 0.124273 0.016819
v 0.957070 0.124306 0.016767
v 0.957070 0.070412 0.045955
v 0.930936 0.071079 0.046415
v 0.957070 0.055551 0.042007
v 0.930936 0.055499 0.041974
v 0.957070 0.042071 0.033035
v 0.930936 0.042054 0.032936
v 0.930936 0.032059 0.020185
v 0.957070 0.032074 0.020242
v 0.957070 0.099072 -0.051995
v 0.930936 0.099118 -0.051954
v 0.957070 0.112529 -0.042965
v 0.930936 0.112563 -0.042916
v 0.957070 0.122535 -0.030223
v 0.930936 0.122558 -0.030166
v 0.957070 0.083478 -0.056411
v 0.930936 0.083538 -0.056395
v 0.900000 0.088071 0.043897
v 0.900000 0.085659 0.044367
v 0.957070 0.078785 0.047779
v 0.930936 0.078724 0.047780
v 0.930936 0.095922 0.044409
v 0.957070 0.095979 0.044387
v 0.900000 0.085954 0.045882
v 0.900000 0.088367 0.045412
v 0.988006 0.089890 0.044744
v 0.988006 0.083848 0.046093
v 0.957070 0.089820 0.044761
v 0.957070 0.083776 0.046102
v 0.930936 0.088438 0.045396
v 0.930936 0.086025 0.045869
v 0.957070 0.083897 0.048091
v 0.957070 0.090108 0.046899
v 0.930936 0.083836 0.048099
v 0.930936 0.090048 0.046914
v 0.957070 0.078013 0.046177
v 0.988006 0.078252 0.046104
v 0.957070 0.096115 0.042265
v 0.988006 0.095875 0.042361
v 0.900000 0.095394 0.042853
v 0.930936 0.095461 0.042828
v 0.900000 0.078480 0.046144
v 0.930936 0.078552 0.046142
v 0.416575 -0.000639 -0.118782
v 0.716512 -0.000639 -0.118782
v 0.416575 0.005389 -0.118994
v 0.716512 0.005389 -0.118994
v 0.716495 0.007531 0.113986
v 0.416591 0.007531 0.113986
v 0.716495 0.013559 0.113774
v 0.416591 0.013559 0.113774
v 0.416575 0.009190 -0.010705
v 0.716512 0.009190 -0.010705
v 0.416591 0.009759 0.005486
v 0.716495 0.009759 0.005486
v 0.716495 0.003730 0.005697
v 0.416591 0.003730 0.005697
v 0.416575 0.003162 -0.010494
v 0.716512 0.003162 -0.010494
v 0.413263 1.319565 0.000589
v 0.719824 1.319565 0.000589
v 0.718973 2.669564 -0.010570
v 0.414114 2.669564 -0.010570
v 0.414114 0.128705 0.001311
v 0.718972 0.128705 0.001311
v 0.416591 0.026480 0.004899
v 0.716495 0.026480 0.004899
v 0.700506 1.349712 0.000589
v 0.393175 1.349712 0.000589
v 0.393461 1.349712 -0.005576
v 0.700220 1.349712 -0.005576
v 0.717002 0.099184 -0.051924
v 0.416085 0.099184 -0.051924
v 0.415879 0.112617 -0.042867
v 0.717208 0.112617 -0.042867
v 0.717482 0.122593 -0.030102
v 0.415604 0.122593 -0.030102
v 0.416502 0.039432 -0.040299
v 0.716584 0.039432 -0.040299
v 0.416440 0.052197 -0.050275
v 0.716646 0.052197 -0.050275
v 0.416355 0.067420 -0.055819
v 0.716732 0.067420 -0.055819
v 0.416597 0.032024 0.020122
v 0.716490 0.032024 0.020122
v 0.716732 0.085659 0.044367
v 0.416355 0.085659 0.044367
v 0.416440 0.085954 0.045882
v 0.716646 0.085954 0.045882
v 0.718331 1.319565 -0.010570
v 0.414756 1.319565 -0.010570
v 0.413263 2.669564 0.000589
v 0.719824 2.669564 0.000589
v 0.415240 0.128137 -0.014879
v 0.717847 0.128137 -0.014879
v 0.716512 0.025912 -0.011292
v 0.416575 0.025912 -0.011292
v 0.700506 2.639417 0.000589
v 0.393175 2.639417 0.000589
v 0.393461 2.639417 -0.005576
v 0.700220 2.639417 -0.005576
v 0.717482 0.102420 0.040294
v 0.415604 0.102420 0.040294
v 0.415240 0.115185 0.030318
v 0.717847 0.115185 0.030318
v 0.414756 0.124242 0.016885
v 0.718331 0.124242 0.016885
v 0.416546 0.030375 -0.026866
v 0.716541 0.030375 -0.026866
v 0.416591 0.042000 0.032886
v 0.716495 0.042000 0.032886
v 0.416575 0.055433 0.041943
v 0.716512 0.055433 0.041943
v 0.416546 0.071007 0.046406
v 0.716541 0.071007 0.046406
v 0.716847 0.083610 -0.056387
v 0.416239 0.083610 -0.056387
v 0.416239 0.088071 0.043897
v 0.716847 0.088071 0.043897
v 0.717002 0.088367 0.045412
v 0.416085 0.088367 0.045412
v 0.717208 0.095393 0.042853
v 0.415879 0.095393 0.042853
v 0.716584 0.078480 0.046144
v 0.416502 0.078480 0.046144
v 0.998667 0.128747 0.000356
v 0.998667 0.128107 -0.015811
v 0.998667 0.026504 0.004462
v 0.998667 0.025874 -0.011700
v 0.998667 0.124337 0.015949
v 0.998667 0.115337 0.029441
v 0.998667 0.103099 0.038764
v 0.998667 0.032109 0.019648
v 0.998667 0.070484 0.045285
v 0.998667 0.055617 0.041374
v 0.998667 0.042124 0.032423
v 0.998667 0.030280 -0.027257
v 0.998667 0.083405 -0.056957
v 0.998667 0.039282 -0.040697
v 0.998667 0.052007 -0.050706
v 0.998667 0.067210 -0.056317
v 0.998667 0.099006 -0.052599
v 0.998667 0.112475 -0.043639
v 0.998667 0.122499 -0.030966
v 0.998667 0.089890 0.044042
v 0.998667 0.083848 0.045406
v 0.998667 0.078252 0.045408
v 0.998667 0.095875 0.041634
v 0.988006 0.133939 0.001722
v 0.988006 0.133235 -0.016107
v 0.988006 0.021375 0.006120
v 0.988006 0.020682 -0.011707
v 0.988006 0.084022 -0.061612
v 0.988006 0.066192 -0.060927
v 0.988006 0.049451 -0.054746
v 0.988006 0.035442 -0.043703
v 0.988006 0.025532 -0.028872
v 0.988006 0.105673 0.044037
v 0.988006 0.119147 0.033756
v 0.988006 0.129085 0.018891
v 0.988006 0.053475 0.046808
v 0.988006 0.069764 0.051144
v 0.988006 0.038575 0.036925
v 0.988006 0.027543 0.022853
v 0.988006 0.116026 -0.046853
v 0.988006 0.101196 -0.056774
v 0.988006 0.127062 -0.032841
v 0.988006 0.084426 0.051290
v 0.988006 0.091431 0.049740
v 0.988006 0.097809 0.047219
v 0.988006 0.078210 0.051332
v 0.998667 0.133939 0.001414
v 0.998667 0.133235 -0.016397
v 0.998667 0.021375 0.005891
v 0.998667 0.020682 -0.011917
v 0.998667 0.084022 -0.061775
v 0.998667 0.066192 -0.061078
v 0.998667 0.049451 -0.054899
v 0.998667 0.035442 -0.043870
v 0.998667 0.025532 -0.029059
v 0.998667 0.105673 0.043750
v 0.998667 0.119147 0.033461
v 0.998667 0.129085 0.018583
v 0.998667 0.053475 0.046563
v 0.998667 0.069764 0.050886
v 0.998667 0.038575 0.036681
v 0.998667 0.027543 0.022612
v 0.998667 0.116026 -0.047073
v 0.998667 0.101196 -0.056960
v 0.998667 0.127062 -0.033099
v 0.998667 0.084426 0.051031
v 0.998667 0.091431 0.049470
v 0.998667 0.097809 0.046929
v 0.998667 0.078210 0.051066
v 0.998667 0.102877 -0.004200
v 0.998667 0.102567 -0.011741
v 0.998667 0.053314 -0.002022
v 0.998667 0.053009 -0.009583
v 0.998667 0.100739 0.003065
v 0.998667 0.096377 0.009353
v 0.998667 0.090444 0.013658
v 0.998667 0.056031 0.005048
v 0.998667 0.074633 0.016780
v 0.998667 0.067427 0.015070
v 0.998667 0.060886 0.010967
v 0.998667 0.055145 -0.016889
v 0.998667 0.080897 -0.030938
v 0.998667 0.059508 -0.023219
v 0.998667 0.065677 -0.027947
v 0.998667 0.073047 -0.030610
v 0.998667 0.088460 -0.028916
v 0.998667 0.094989 -0.024735
v 0.998667 0.099849 -0.018816
v 0.998667 0.084041 0.016126
v 0.998667 0.081112 0.016804
v 0.998667 0.078399 0.016768
v 0.998667 0.086942 0.014933
v 0.998667 0.078538 -0.006897
v -0.900000 2.669564 -0.010570
v -0.900000 1.319565 -0.010570
v -0.868701 2.639417 0.000589
v -0.868701 1.349712 0.000589
v -0.900000 0.128137 -0.014879
v -0.900000 0.128705 0.001311
v -0.900000 0.025912 -0.011292
v -0.900000 0.026480 0.004899
v -0.900000 2.669564 0.000589
v -0.900000 1.319565 0.000589
v -0.868701 2.639417 -0.005576
v -0.868701 1.349712 -0.005576
v -0.988006 0.128747 0.001106
v -0.988006 0.128107 -0.015086
v -0.988006 0.026504 0.005102
v -0.988006 0.025874 -0.011090
v -0.900000 0.083610 -0.056387
v -0.900000 0.122593 -0.030102
v -0.900000 0.112617 -0.042867
v -0.900000 0.099184 -0.051924
v -0.900000 0.102420 0.040294
v -0.900000 0.115185 0.030318
v -0.900000 0.124242 0.016885
v -0.900000 0.030375 -0.026866
v -0.900000 0.067420 -0.055819
v -0.900000 0.052197 -0.050275
v -0.900000 0.039432 -0.040299
v -0.900000 0.032024 0.020122
v -0.900000 0.042000 0.032886
v -0.900000 0.055433 0.041943
v -0.900000 0.071007 0.046406
v -0.988006 0.124337 0.016701
v -0.988006 0.115337 0.030174
v -0.988006 0.103099 0.039485
v -0.988006 0.032109 0.020306
v -0.988006 0.070484 0.045965
v -0.988006 0.055617 0.042038
v -0.988006 0.042124 0.033085
v -0.988006 0.030280 -0.026681
v -0.988006 0.083405 -0.056420
v -0.988006 0.039282 -0.040154
v -0.988006 0.052007 -0.050184
v -0.988006 0.067210 -0.055798
v -0.988006 0.099006 -0.052025
v -0.988006 0.112475 -0.043015
v -0.988006 0.122499 -0.030287
v -0.930936 0.085730 0.044355
v -0.930936 0.088143 0.043881
v -0.930936 0.025903 -0.011220
v -0.957070 0.025883 -0.011162
v -0.957070 0.128738 0.001178
v -0.930936 0.128714 0.001239
v -0.930936 0.128123 -0.014951
v -0.957070 0.128121 -0.015015
v -0.957070 0.026490 0.005030
v -0.930936 0.026494 0.004970
v -0.930936 0.067348 -0.055804
v -0.957070 0.067282 -0.055812
v -0.930936 0.052133 -0.050240
v -0.957070 0.052070 -0.050220
v -0.930936 0.039382 -0.040245
v -0.957070 0.039332 -0.040207
v -0.957070 0.030311 -0.026748
v -0.930936 0.030344 -0.026800
v -0.930936 0.102484 0.040259
v -0.957070 0.103037 0.039521
v -0.930936 0.115235 0.030265
v -0.957070 0.115288 0.030227
v -0.930936 0.124273 0.016819
v -0.957070 0.124306 0.016767
v -0.957070 0.070412 0.045955
v -0.930936 0.071079 0.046415
v -0.957070 0.055551 0.042007
v -0.930936 0.055499 0.041974
v -0.957070 0.042071 0.033035
v -0.930936 0.042054 0.032936
v -0.930936 0.032059 0.020185
v -0.957070 0.032074 0.020242
v -0.957070 0.099072 -0.051995
v -0.930936 0.099118 -0.051954
v -0.957070 0.112529 -0.042965
v -0.930936 0.112563 -0.042916
v -0.957070 0.122535 -0.030223
v -0.930936 0.122558 -0.030166
v -0.957070 0.083478 -0.056411
v -0.930936 0.083538 -0.056395
v -0.900000 0.088071 0.043897
v -0.900000 0.085659 0.044367
v -0.957070 0.078785 0.047779
v -0.930936 0.078724 0.047780
v -0.930936 0.095922 0.044409
v -0.957070 0.095979 0.044387
v -0.900000 0.085954 0.045882
v -0.900000 0.088367 0.045412
v -0.988006 0.089890 0.044744
v -0.988006 0.083848 0.046093
v -0.957070 0.089820 0.044761
v -0.957070 0.083776 0.046102
v -0.930936 0.088438 0.045396
v -0.930936 0.086025 0.045869
v -0.957070 0.083897 0.048091
v -0.957070 0.090108 0.046899
v -0.930936 0.083836 0.048099
v -0.930936 0.090048 0.046914
v -0.957070 0.078013 0.046177
v -0.988006 0.078252 0.046104
v -0.957070 0.096115 0.042265
v -0.988006 0.095875 0.042361
v -0.900000 0.095394 0.042853
v -0.930936 0.095461 0.042828
v -0.900000 0.078480 0.046144
v -0.930936 0.078552 0.046142
v -0.416575 -0.000639 -0.118782
v -0.716512 -0.000639 -0.118782
v -0.416575 0.005389 -0.118994
v -0.716512 0.005389 -0.118994
v -0.716495 0.007531 0.113986
v -0.416591 0.007531 0.113986
v -0.716495 0.013559 0.113774
v -0.416591 0.013559 0.113774
v -0.416575 0.009190 -0.010705
v -0.716512 0.009190 -0.010705
v -0.416591 0.009759 0.005486
v -0.716495 0.009759 0.005486
v -0.716495 0.003730 0.005697
v -0.416591 0.003730 0.005697
v -0.416575 0.003162 -0.010494
v -0.716512 0.003162 -0.010494
v -0.413263 1.319565 0.000589
v -0.719824 1.319565 0.000589
v -0.718973 2.669564 -0.010570
v -0.414114 2.669564 -0.010570
v -0.414114 0.128705 0.001311
v -0.718972 0.128705 0.001311
v -0.416591 0.026480 0.004899
v -0.716495 0.026480 0.004899
v -0.700506 1.349712 0.000589
v -0.393175 1.349712 0.000589
v -0.393461 1.349712 -0.005576
v -0.700220 1.349712 -0.005576
v -0.717002 0.099184 -0.051924
v -0.416085 0.099184 -0.051924
v -0.415879 0.112617 -0.042867
v -0.717208 0.112617 -0.042867
v -0.717482 0.122593 -0.030102
v -0.415604 0.122593 -0.030102
v -0.416502 0.039432 -0.040299
v -0.716584 0.039432 -0.040299
v -0.416440 0.052197 -0.050275
v -0.716646 0.052197 -0.050275
v -0.416355 0.067420 -0.055819
v -0.716732 0.067420 -0.055819
v -0.416597 0.032024 0.020122
v -0.716490 0.032024 0.020122
v -0.716732 0.085659 0.044367
v -0.416355 0.085659 0.044367
v -0.416440 0.085954 0.045882
v -0.716646 0.085954 0.045882
v -0.718331 1.319565 -0.010570
v -0.414756 1.319565 -0.010570
v -0.413263 2.669564 0.000589
v -0.719824 2.669564 0.000589
v -0.415240 0.128137 -0.014879
v -0.717847 0.128137 -0.014879
v -0.716512 0.025912 -0.011292
v -0.416575 0.025912 -0.011292
v -0.700506 2.639417 0.000589
v -0.393175 2.639417 0.000589
v -0.393461 2.639417 -0.005576
v -0.700220 2.639417 -0.005576
v -0.717482 0.102420 0.040294
v -0.415604 0.102420 0.040294
v -0.415240 0.115185 0.030318
v -0.717847 0.115185 0.030318
v -0.414756 0.124242 0.016885
v -0.718331 0.124242 0.016885
v -0.416546 0.030375 -0.026866
v -0.716541 0.030375 -0.026866
v -0.416591 0.042000 0.032886
v -0.716495 0.042000 0.032886
v -0.416575 0.055433 0.041943
v -0.716512 0.055433 0.041943
v -0.416546 0.071007 0.046406
v -0.716541 0.071007 0.046406
v -0.716847 0.083610 -0.056387
v -0.416239 0.083610 -0.056387
v -0.416239 0.088071 0.043897
v -0.716847 0.088071 0.043897
v -0.717002 0.088367 0.045412
v -0.416085 0.088367 0.045412
v -0.717208 0.095393 0.042853
v -0.415879 0.095393 0.042853
v -0.716584 0.078480 0.046144
v -0.416502 0.078480 0.046144
v -0.998667 0.128747 0.000356
v -0.998667 0.128107 -0.015811
v -0.998667 0.026504 0.004462
v -0.998667 0.025874 -0.011700
v -0.998667 0.124337 0.015949
v -0.998667 0.115337 0.029441
v -0.998667 0.103099 0.038764
v -0.998667 0.032109 0.019648
v -0.998667 0.070484 0.045285
v -0.998667 0.055617 0.041374
v -0.998667 0.042124 0.032423
v -0.998667 0.030280 -0.027257
v -0.998667 0.083405 -0.056957
v -0.998667 0.039282 -0.040697
v -0.998667 0.052007 -0.050706
v -0.998667 0.067210 -0.056317
v -0.998667 0.099006 -0.052599
v -0.998667 0.112475 -0.043639
v -0.998667 0.122499 -0.030966
v -0.998667 0.089890 0.044042
v -0.998667 0.083848 0.045406
v -0.998667 0.078252 0.045408
v -0.998667 0.095875 0.041634
v -0.988006 0.133939 0.001722
v -0.988006 0.133235 -0.016107
v -0.988006 0.021375 0.006120
v -0.988006 0.020682 -0.011707
v -0.988006 0.084022 -0.061612
v -0.988006 0.066192 -0.060927
v -0.988006 0.049451 -0.054746
v -0.988006 0.035442 -0.043703
v -0.988006 0.025532 -0.028872
v -0.988006 0.105673 0.044037
v -0.988006 0.119147 0.033756
v -0.988006 0.129085 0.018891
v -0.988006 0.053475 0.046808
v -0.988006 0.069764 0.051144
v -0.988006 0.038575 0.036925
v -0.988006 0.027543 0.022853
v -0.988006 0.116026 -0.046853
v -0.988006 0.101196 -0.056774
v -0.988006 0.127062 -0.032841
v -0.988006 0.084426 0.051290
v -0.988006 0.091431 0.049740
v -0.988006 0.097809 0.047219
v -0.988006 0.078210 0.051332
v -0.998667 0.133939 0.001414
v -0.998667 0.133235 -0.016397
v -0.998667 0.021375 0.005891
v -0.998667 0.020682 -0.011917
v -0.998667 0.084022 -0.061775
v -0.998667 0.066192 -0.061078
v -0.998667 0.049451 -0.054899
v -0.998667 0.035442 -0.043870
v -0.998667 0.025532 -0.029059
v -0.998667 0.105673 0.043750
v -0.998667 0.119147 0.033461
v -0.998667 0.129085 0.018583
v -0.998667 0.053475 0.046563
v -0.998667 0.069764 0.050886
v -0.998667 0.038575 0.036681
v -0.998667 0.027543 0.022612
v -0.998667 0.116026 -0.047073
v -0.998667 0.101196 -0.056960
v -0.998667 0.127062 -0.033099
v -0.998667 0.084426 0.051031
v -0.998667 0.091431 0.049470
v -0.998667 0.097809 0.046929
v -0.998667 0.078210 0.051066
v -0.998667 0.102877 -0.004200
v -0.998667 0.102567 -0.011741
v -0.998667 0.053314 -0.002022
v -0.998667 0.053009 -0.009583
v -0.998667 0.100739 0.003065
v -0.998667 0.096377 0.009353
v -0.998667 0.090444 0.013658
v -0.998667 0.056031 0.005048
v -0.998667 0.074633 0.016780
v -0.998667 0.067427 0.015070
v -0.998667 0.060886 0.010967
v -0.998667 0.055145 -0.016889
v -0.998667 0.080897 -0.030938
v -0.998667 0.059508 -0.023219
v -0.998667 0.065677 -0.027947
v -0.998667 0.073047 -0.030610
v -0.998667 0.088460 -0.028916
v -0.998667 0.094989 -0.024735
v -0.998667 0.099849 -0.018816
v -0.998667 0.084041 0.016126
v -0.998667 0.081112 0.016804
v -0.998667 0.078399 0.016768
v -0.998667 0.086942 0.014933
v -0.998667 0.078538 -0.006897
v 0.096467 1.319565 0.000589
v -0.096467 1.319565 0.000589
v -0.096467 0.128705 0.001311
v 0.096467 0.128705 0.001311
v -0.096467 1.349712 0.000589
v 0.096467 1.349712 0.000589
v 0.096467 1.319565 -0.010570
v -0.096467 1.319565 -0.010570
v -0.096467 2.669564 -0.010570
v 0.096467 2.669564 -0.010570
v -0.096467 2.669564 0.000589
v 0.096467 2.669564 0.000589
v 0.096467 0.124242 0.016885
v -0.096467 0.124242 0.016885
v -0.096467 0.025912 -0.011292
v 0.096467 0.025912 -0.011292
v 0.096467 0.026480 0.004899
v -0.096467 0.026480 0.004899
v 0.096467 0.032024 0.020122
v -0.096467 0.032024 0.020122
v -0.096467 1.349712 -0.005576
v 0.096467 1.349712 -0.005576
v 0.096467 2.639417 -0.005576
v -0.096467 2.639417 -0.005576
v -0.096467 0.099184 -0.051924
v 0.096467 0.099184 -0.051924
v 0.096467 0.112617 -0.042867
v -0.096467 0.112617 -0.042867
v 0.081587 0.083088 -0.071258
v -0.081587 0.083088 -0.071258
v -0.096467 0.122593 -0.030102
v 0.096467 0.122593 -0.030102
v -0.096467 0.128137 -0.014879
v 0.096467 0.128137 -0.014879
v 0.096467 0.039432 -0.040299
v -0.096467 0.039432 -0.040299
v 0.096467 0.052197 -0.050275
v -0.096467 0.052197 -0.050275
v 0.096467 0.030375 -0.026866
v -0.096467 0.030375 -0.026866
v -0.081587 0.066898 -0.070690
v 0.081587 0.066898 -0.070690
v -0.096467 0.042000 0.032886
v 0.096467 0.042000 0.032886
v -0.096467 0.085659 0.044367
v 0.096467 0.085659 0.044367
v 0.096467 0.088071 0.043897
v -0.096467 0.088071 0.043897
v 0.096467 0.085954 0.045882
v -0.096467 0.085954 0.045882
v -0.096467 0.078480 0.046144
v 0.096467 0.078480 0.046144
v 0.096467 2.639417 0.000589
v -0.096467 2.639417 0.000589
v 0.096467 0.102420 0.040294
v -0.096467 0.102420 0.040294
v -0.096467 0.115185 0.030318
v 0.096467 0.115185 0.030318
v 0.096467 0.095393 0.042853
v -0.096467 0.095393 0.042853
v -0.096467 0.055433 0.041943
v 0.096467 0.055433 0.041943
v -0.096467 0.071007 0.046406
v 0.096467 0.071007 0.046406
v -0.096467 0.088367 0.045412
v 0.096467 0.088367 0.045412
v -0.096467 0.067420 -0.055819
v 0.096467 0.083610 -0.056387
v -0.096467 0.083610 -0.056387
v 0.096467 0.067420 -0.055819
v -0.081587 0.082854 -0.077944
v -0.054016 0.081887 -0.105498
v -0.079488 0.082484 -0.088488
v -0.073512 0.082170 -0.097427
v -0.064567 0.081960 -0.103400
v 0.054016 0.081887 -0.105498
v 0.081587 0.082854 -0.077944
v 0.064567 0.081960 -0.103400
v 0.073512 0.082170 -0.097427
v 0.079488 0.082484 -0.088488
v 0.081587 0.066663 -0.077375
v 0.054016 0.065696 -0.104930
v 0.079488 0.066293 -0.087920
v 0.073512 0.065979 -0.096859
v 0.064567 0.065770 -0.102832
v -0.054016 0.065696 -0.104930
v -0.081587 0.066663 -0.077375
v -0.064567 0.065770 -0.102832
v -0.073512 0.065979 -0.096859
v -0.079488 0.066293 -0.087920
v -0.068896 0.065174 -0.119801
v -0.096467 0.066141 -0.092247
v -0.079447 0.065248 -0.117703
v -0.088392 0.065457 -0.111730
v -0.094369 0.065771 -0.102791
v 0.068896 0.081365 -0.120369
v 0.096467 0.082332 -0.092815
v 0.079447 0.081439 -0.118272
v 0.088392 0.081648 -0.112299
v 0.094369 0.081962 -0.103359
v -0.096467 0.082332 -0.092815
v -0.068896 0.081365 -0.120369
v -0.094369 0.081962 -0.103359
v -0.088392 0.081648 -0.112299
v -0.079447 0.081439 -0.118272
v 0.096467 0.066141 -0.092247
v 0.068896 0.065174 -0.119801
v 0.094369 0.065771 -0.102791
v 0.088392 0.065457 -0.111730
v 0.079447 0.065248 -0.117703
vn -0.0000 1.0000 -0.0000
vn 1.0000 -0.0000 -0.0000
vn -0.0000 -0.0000 1.0000
vn -0.0000 0.1215 -0.9926
vn -0.0003 0.1204 -0.9927
vn -0.0003 -0.1923 -0.9813
vn -0.0000 -0.1912 -0.9815
vn -0.0000 -0.8745 0.4850
vn -0.0000 -0.9816 0.1910
vn -0.0000 -0.9701 0.2425
vn -0.0002 0.9075 0.4201
vn -0.0000 0.9078 0.4193
vn -0.0000 0.9930 0.1182
vn -0.0003 0.9929 0.1191
vn -0.0000 0.0003 1.0000
vn -0.0000 0.9613 0.2755
vn -0.0000 0.9064 0.4225
vn -0.0000 -1.0000 -0.0000
vn -1.0000 -0.0000 -0.0000
vn -0.0000 0.9065 0.4223
vn -0.0002 0.9069 0.4213
vn -0.0002 0.9927 0.1204
vn -0.0000 0.9848 0.1736
vn -0.0000 -0.9815 0.1912
vn -0.0000 -0.9926 -0.1215
vn -0.0002 -0.9927 -0.1204
vn -0.0003 -0.9813 0.1923
vn -0.0000 -0.9815 0.1913
vn -0.0000 0.3422 0.9396
vn -0.0000 0.3425 0.9395
vn 0.0001 0.4852 0.8744
vn -0.0000 0.4850 0.8745
vn -0.0000 -0.7315 -0.6819
vn -0.0000 -0.4850 -0.8745
vn -0.0000 -0.1910 -0.9816
vn -0.0000 0.1217 -0.9926
vn -0.0000 0.1739 -0.9848
vn -0.0000 -0.2425 -0.9702
vn -0.0000 0.1910 0.9816
vn 0.9952 -0.0034 -0.0980
vn -0.0000 -0.4852 -0.8744
vn -0.0003 -0.4862 -0.8738
vn -0.0002 -0.7324 -0.6809
vn -0.0000 -0.7316 -0.6817
vn -0.0002 -0.9069 -0.4213
vn -0.0000 -0.9065 -0.4223
vn -0.0000 0.0358 0.9994
vn -0.0000 0.0354 0.9994
vn -0.0000 -0.1215 0.9926
vn 0.0028 -0.1760 0.9844
vn -0.0000 0.7316 0.6817
vn 0.0011 0.7310 0.6824
vn 0.0027 0.5346 0.8451
vn -1.0000 -0.0000 0.0001
vn -0.0000 0.9701 -0.2428
vn -0.0002 0.9813 -0.1924
vn -0.0000 -0.4100 0.9121
vn 0.0008 -0.4132 0.9106
vn -0.0007 -0.6797 0.7335
vn -0.0000 -0.6790 0.7341
vn 0.0006 -0.1406 0.9901
vn 0.0031 -0.1864 0.9825
vn -0.0005 -0.8738 0.4864
vn -0.0000 -0.8735 0.4869
vn -0.0000 0.1183 -0.9930
vn -0.0003 0.1191 -0.9929
vn -0.0003 0.4200 -0.9075
vn -0.0000 0.4192 -0.9079
vn -0.0000 0.6795 -0.7337
vn -0.0002 0.6801 -0.7331
vn -0.0002 0.8733 -0.4872
vn -0.0000 0.8728 -0.4880
vn -0.0002 0.9810 -0.1938
vn -0.0000 0.9809 -0.1947
vn -0.0000 0.3428 0.9394
vn -0.0000 -0.8744 0.4852
vn -0.0005 -0.8740 0.4859
vn -0.0002 0.6809 -0.7323
vn -0.0000 0.6817 -0.7316
vn -0.0000 0.8744 -0.4852
vn -0.0002 0.8739 -0.4861
vn -0.0000 0.4222 -0.9065
vn -0.0003 0.4212 -0.9070
vn -0.0007 -0.6808 0.7324
vn -0.0000 -0.6817 0.7316
vn 0.0009 -0.4190 0.9080
vn -0.0000 -0.4223 0.9065
vn 0.0011 0.7290 0.6845
vn -0.0000 0.7282 0.6854
vn 0.0027 0.5379 0.8430
vn 0.0001 0.4918 0.8707
vn -0.0002 -0.7334 -0.6798
vn -0.0000 -0.7340 -0.6792
vn -0.0000 -0.9078 -0.4193
vn -0.0002 -0.9075 -0.4201
vn -0.0003 -0.4875 -0.8731
vn -0.0000 -0.4883 -0.8727
vn -0.0000 -0.1943 -0.9809
vn -0.0003 -0.1935 -0.9811
vn -0.0002 -0.9929 -0.1193
vn -0.0000 -0.9930 -0.1185
vn -0.0003 -0.9811 0.1935
vn -0.0000 -0.9809 0.1943
vn 0.0006 0.1132 0.9936
vn 0.0006 0.1129 0.9936
vn 0.0012 -0.0081 1.0000
vn 0.0012 -0.0079 1.0000
vn -0.0000 0.0351 0.9994
vn -0.0000 -0.1217 0.9926
vn 0.0027 0.4742 0.8804
vn 0.0027 0.4744 0.8803
vn 0.0034 -0.1286 0.9917
vn 0.0034 -0.1288 0.9917
vn -0.0001 0.2922 0.9564
vn -0.0001 0.2919 0.9565
vn -0.0001 0.2941 0.9558
vn -0.0001 0.2943 0.9557
vn -0.0000 0.3692 0.9294
vn -0.0012 0.9815 -0.1913
vn -0.0023 0.9815 -0.1913
vn 0.0002 0.0635 0.9980
vn 0.0002 0.0639 0.9980
vn -0.0000 0.1913 0.9815
vn -0.0000 0.1917 0.9815
vn 0.0024 -0.9815 0.1913
vn 0.0012 -0.9815 0.1913
vn -0.0001 0.3425 0.9395
vn -0.0001 0.3428 0.9394
vn -0.0000 -0.9994 0.0351
vn 0.0001 0.0358 0.9994
vn 0.0001 0.0354 0.9994
vn -0.0000 0.9815 -0.1913
vn -0.0000 -0.6819 0.7315
vn -0.0000 0.7315 0.6819
vn -0.0000 0.8745 -0.4850
vn -0.0000 0.9396 -0.3422
vn -0.0000 0.6819 -0.7315
vn -0.0000 0.4225 -0.9064
vn -0.0000 -0.9848 -0.1738
vn -0.0000 -0.9064 -0.4225
vn -0.0000 0.0006 1.0000
vn -0.0000 0.0036 -1.0000
vn -0.0000 0.0018 -1.0000
vn -0.0000 -0.4225 0.9064
vn -0.0000 -0.0000 -1.0000
vn -0.0000 -0.9926 -0.1217
vn -1.0000 -0.0000 0.0007
vn -1.0000 -0.0000 0.0005
vn 1.0000 -0.0000 0.0005
vn 1.0000 -0.0000 0.0007
vn 1.0000 -0.0000 0.0010
vn -0.0000 -0.0351 -0.9994
vn -1.0000 -0.0000 0.0010
vn -0.0000 0.9994 -0.0351
vn -0.0072 -0.9086 -0.4177
vn -0.0106 -0.7348 -0.6782
vn -0.0106 -0.7333 -0.6798
vn -0.0072 -0.9072 -0.4205
vn 0.0245 0.1119 0.9934
vn 0.0246 -0.0078 0.9997
vn 0.0245 0.1122 0.9934
vn -0.0115 0.8734 -0.4870
vn -0.0050 0.9812 -0.1927
vn -0.0051 0.9802 -0.1979
vn -0.0116 0.8713 -0.4906
vn 0.0190 0.7274 0.6859
vn 0.0236 0.4942 0.8690
vn 0.0236 0.4961 0.8679
vn 0.0189 0.7303 0.6829
vn 0.0120 0.9068 0.4213
vn 0.0119 0.9090 0.4166
vn 0.0035 0.9927 0.1206
vn 0.0033 0.9934 0.1149
vn 0.0238 -0.1400 0.9899
vn 0.0212 -0.4093 0.9122
vn 0.0212 -0.4110 0.9114
vn 0.0238 -0.1405 0.9898
vn 0.0247 0.3718 0.9280
vn 0.0244 0.2933 0.9557
vn 0.0244 0.2940 0.9555
vn -0.0021 -0.9932 -0.1161
vn -0.0022 -0.9928 -0.1200
vn 0.0168 -0.6773 0.7356
vn 0.0168 -0.6796 0.7334
vn -0.0143 -0.1952 -0.9807
vn -0.0155 0.1175 -0.9930
vn -0.0155 0.1172 -0.9930
vn -0.0143 -0.1946 -0.9808
vn 0.0110 -0.8722 0.4891
vn 0.0109 -0.8741 0.4857
vn -0.0128 -0.4891 -0.8721
vn -0.0128 -0.4879 -0.8728
vn 0.0043 -0.9804 0.1969
vn 0.0042 -0.9812 0.1928
vn -0.0160 0.4187 -0.9080
vn -0.0150 0.6796 -0.7334
vn -0.0151 0.6775 -0.7353
vn -0.0160 0.4174 -0.9086
vn 0.0003 -0.1923 -0.9813
vn 0.0003 0.1204 -0.9927
vn 0.0002 0.9075 0.4201
vn 0.0002 0.9929 0.1191
vn 0.0002 0.9927 0.1204
vn 0.0002 0.9069 0.4213
vn 0.0003 -0.9813 0.1923
vn 0.0002 -0.9927 -0.1204
vn -0.0001 0.4852 0.8744
vn 0.0002 -0.7324 -0.6809
vn 0.0003 -0.4862 -0.8738
vn 0.0002 -0.9069 -0.4213
vn -0.0028 -0.1760 0.9844
vn -0.0011 0.7310 0.6824
vn -0.0027 0.5346 0.8451
vn 1.0000 -0.0000 0.0001
vn 0.0002 0.9813 -0.1924
vn 0.0007 -0.6797 0.7335
vn -0.0008 -0.4132 0.9106
vn -0.0006 -0.1406 0.9901
vn -0.0031 -0.1864 0.9825
vn 0.0005 -0.8738 0.4864
vn 0.0003 0.4200 -0.9075
vn 0.0003 0.1191 -0.9929
vn 0.0002 0.8733 -0.4872
vn 0.0002 0.6801 -0.7331
vn 0.0002 0.9810 -0.1938
vn 0.0005 -0.8740 0.4859
vn 0.0002 0.6809 -0.7323
vn 0.0002 0.8739 -0.4861
vn 0.0003 0.4212 -0.9070
vn 0.0007 -0.6808 0.7324
vn -0.0009 -0.4190 0.9080
vn -0.0000 -0.4222 0.9065
vn -0.0011 0.7290 0.6845
vn -0.0027 0.5379 0.8430
vn -0.0001 0.4918 0.8707
vn 0.0002 -0.7334 -0.6798
vn 0.0002 -0.9075 -0.4201
vn 0.0003 -0.4875 -0.8731
vn 0.0003 -0.1935 -0.9811
vn 0.0002 -0.9929 -0.1193
vn 0.0003 -0.9811 0.1935
vn -0.0006 0.1132 0.9936
vn -0.0012 -0.0079 1.0000
vn -0.0012 -0.0081 1.0000
vn -0.0006 0.1129 0.9936
vn -0.0027 0.4744 0.8803
vn -0.0027 0.4742 0.8804
vn -0.0034 -0.1288 0.9917
vn -0.0034 -0.1286 0.9917
vn 0.0001 0.2922 0.9564
vn 0.0001 0.2919 0.9565
vn 0.0001 0.2941 0.9558
vn 0.0001 0.2943 0.9557
vn 0.0012 0.9815 -0.1913
vn 0.0023 0.9815 -0.1913
vn -0.0002 0.0639 0.9980
vn -0.0002 0.0635 0.9980
vn -0.0024 -0.9815 0.1913
vn -0.0012 -0.9815 0.1913
vn 0.0001 0.3425 0.9395
vn 0.0001 0.3428 0.9394
vn -0.0001 0.0358 0.9994
vn -0.0001 0.0354 0.9994
vn 0.0072 -0.9086 -0.4177
vn 0.0073 -0.9072 -0.4205
vn 0.0106 -0.7333 -0.6798
vn 0.0106 -0.7348 -0.6782
vn -0.0245 0.1119 0.9934
vn -0.0245 0.1122 0.9934
vn -0.0246 -0.0078 0.9997
vn 0.0115 0.8734 -0.4870
vn 0.0116 0.8713 -0.4906
vn 0.0051 0.9802 -0.1979
vn 0.0050 0.9812 -0.1927
vn -0.0190 0.7274 0.6859
vn -0.0189 0.7303 0.6829
vn -0.0235 0.4961 0.8679
vn -0.0236 0.4942 0.8690
vn -0.0120 0.9068 0.4213
vn -0.0119 0.9090 0.4166
vn -0.0035 0.9927 0.1206
vn -0.0033 0.9934 0.1149
vn -0.0238 -0.1400 0.9899
vn -0.0238 -0.1405 0.9898
vn -0.0212 -0.4110 0.9114
vn -0.0212 -0.4093 0.9122
vn -0.0247 0.3718 0.9280
vn -0.0244 0.2940 0.9555
vn -0.0244 0.2933 0.9557
vn 0.0021 -0.9932 -0.1161
vn 0.0022 -0.9928 -0.1200
vn -0.0168 -0.6796 0.7334
vn -0.0168 -0.6773 0.7356
vn 0.0143 -0.1952 -0.9807
vn 0.0143 -0.1946 -0.9808
vn 0.0155 0.1172 -0.9930
vn 0.0155 0.1175 -0.9930
vn -0.0109 -0.8741 0.4857
vn -0.0110 -0.8722 0.4891
vn 0.0128 -0.4891 -0.8721
vn 0.0128 -0.4879 -0.8728
vn -0.0042 -0.9812 0.1928
vn -0.0043 -0.9804 0.1969
vn 0.0160 0.4187 -0.9080
vn 0.0160 0.4174 -0.9086
vn 0.0151 0.6775 -0.7353
vn 0.0150 0.6796 -0.7334
vn 0.0980 -0.0349 -0.9946
vn -0.0980 -0.0349 -0.9946
vn -0.9952 -0.0034 -0.0980
vn 0.9952 0.0034 0.0980
vn -0.9952 0.0034 0.0980
vn -0.9239 -0.0134 -0.3824
vn -0.7071 -0.0248 -0.7067
vn -0.3827 -0.0324 -0.9233
vn 0.9239 -0.0134 -0.3824
vn 0.7071 -0.0248 -0.7067
vn 0.3827 -0.0324 -0.9233
vn -0.0980 0.0349 0.9946
vn -0.3827 0.0324 0.9233
vn -0.7071 0.0248 0.7067
vn -0.9239 0.0134 0.3824
vn 0.9239 0.0134 0.3824
vn 0.7071 0.0248 0.7067
vn 0.3827 0.0324 0.9233
vn 0.0980 0.0349 0.9946
vt 0.591358 0.923927
vt 0.591560 0.921283
vt 0.666611 0.921283
vt 0.666611 0.923927
vt 0.879729 0.284323
vt 0.880270 0.604147
vt 0.877626 0.604151
vt 0.877085 0.284327
vt 0.549618 0.001953
vt 0.624670 0.001953
vt 0.624670 0.009095
vt 0.554377 0.009095
vt 0.876435 0.002205
vt 0.880270 0.002064
vt 0.041800 0.765373
vt 0.001953 0.765374
vt 0.001953 0.763913
vt 0.041867 0.763913
vt 0.449486 0.925143
vt 0.456809 0.925171
vt 0.456804 0.929006
vt 0.449480 0.928979
vt 0.334957 0.951936
vt 0.259026 0.951936
vt 0.259026 0.948093
vt 0.334956 0.948095
vt 0.462948 0.978719
vt 0.470264 0.978744
vt 0.470265 0.982571
vt 0.462952 0.982556
vt 0.441722 0.009095
vt 0.441722 0.314636
vt 0.434307 0.321778
vt 0.434307 0.001953
vt 0.334373 0.982658
vt 0.259028 0.982673
vt 0.259027 0.978830
vt 0.334524 0.978817
vt 0.300905 0.771294
vt 0.300973 0.772755
vt 0.230612 0.772755
vt 0.230612 0.771294
vt 0.001953 0.855652
vt 0.307498 0.855652
vt 0.307498 0.857113
vt 0.001953 0.857113
vt 0.449443 0.978724
vt 0.456763 0.978716
vt 0.456770 0.982552
vt 0.449451 0.982554
vt 0.449454 0.948151
vt 0.449459 0.944317
vt 0.456781 0.944346
vt 0.456776 0.948182
vt 0.598186 0.943029
vt 0.598149 0.942663
vt 0.673898 0.942663
vt 0.673898 0.943028
vt 0.406191 0.969343
vt 0.449409 0.969316
vt 0.449419 0.971072
vt 0.406257 0.971114
vt 0.662962 0.609822
vt 0.733322 0.609822
vt 0.733322 0.915363
vt 0.662962 0.915363
vt 0.259027 0.936564
vt 0.259027 0.932721
vt 0.334923 0.932731
vt 0.334936 0.936572
vt 0.137378 0.928890
vt 0.137404 0.925048
vt 0.213254 0.925034
vt 0.213255 0.928877
vt 0.673916 0.930430
vt 0.598165 0.930430
vt 0.598138 0.929848
vt 0.673916 0.929848
vt 0.125257 0.680262
vt 0.121419 0.680262
vt 0.121419 0.671626
vt 0.125257 0.671626
vt 0.213255 0.969370
vt 0.137493 0.969361
vt 0.137445 0.967588
vt 0.213255 0.967596
vt 0.449475 0.932814
vt 0.456798 0.932842
vt 0.456792 0.936676
vt 0.449470 0.936649
vt 0.456787 0.940511
vt 0.449464 0.940483
vt 0.456587 0.965293
vt 0.449409 0.965226
vt 0.449419 0.963470
vt 0.456747 0.963546
vt 0.449433 0.974896
vt 0.456755 0.974876
vt 0.456746 0.971031
vt 0.023861 0.903957
vt 0.023584 0.905706
vt 0.023196 0.905671
vt 0.449459 0.986385
vt 0.456777 0.986385
vt 0.470280 0.959722
vt 0.462951 0.959726
vt 0.462954 0.955885
vt 0.470275 0.955896
vt 0.470296 0.963353
vt 0.462948 0.963384
vt 0.462957 0.952039
vt 0.470276 0.952058
vt 0.470316 0.925224
vt 0.462995 0.925195
vt 0.463001 0.921359
vt 0.470323 0.921388
vt 0.470282 0.994055
vt 0.462971 0.994051
vt 0.462964 0.990220
vt 0.470275 0.990226
vt 0.470290 0.997884
vt 0.462979 0.997882
vt 0.462957 0.986389
vt 0.470269 0.986398
vt 0.010628 0.904496
vt 0.010228 0.906252
vt 0.009820 0.906358
vt 0.456588 0.969285
vt 0.449448 0.951984
vt 0.456770 0.952018
vt 0.456792 0.994050
vt 0.449474 0.994050
vt 0.449466 0.990217
vt 0.456784 0.990218
vt 0.449491 0.921308
vt 0.456815 0.921336
vt 0.456800 0.997881
vt 0.449482 0.997883
vt 0.456765 0.955856
vt 0.449441 0.955816
vt 0.456757 0.959698
vt 0.449432 0.959645
vt 0.023307 0.908039
vt 0.023584 0.909788
vt 0.023196 0.909823
vt 0.022889 0.908649
vt 0.462946 0.974877
vt 0.470270 0.974920
vt 0.462944 0.971219
vt 0.470288 0.971292
vt 0.462977 0.936700
vt 0.470297 0.936729
vt 0.470291 0.940562
vt 0.462972 0.940535
vt 0.462983 0.932866
vt 0.470304 0.932895
vt 0.470310 0.929059
vt 0.462989 0.929031
vt 0.462966 0.944369
vt 0.470285 0.944395
vt 0.462961 0.948204
vt 0.470279 0.948227
vt 0.010016 0.909062
vt 0.010307 0.910639
vt 0.009820 0.910510
vt 0.009506 0.909031
vt 0.470321 0.966498
vt 0.463152 0.966502
vt 0.463098 0.965173
vt 0.470314 0.965179
vt 0.334935 0.965232
vt 0.259026 0.965239
vt 0.259026 0.963465
vt 0.334945 0.963459
vt 0.023861 0.911538
vt 0.456903 0.969241
vt 0.462763 0.969244
vt 0.462793 0.965367
vt 0.456902 0.965338
vt 0.462715 0.967852
vt 0.456954 0.967831
vt 0.463165 0.967924
vt 0.470320 0.967956
vt 0.470309 0.969470
vt 0.463120 0.969475
vt 0.022881 0.907151
vt 0.023307 0.907456
vt 0.909952 0.936375
vt 0.917280 0.936374
vt 0.917280 0.936740
vt 0.909952 0.936740
vt 0.456963 0.966463
vt 0.462728 0.966484
vt 0.009513 0.907532
vt 0.009981 0.907595
vt 0.909965 0.929847
vt 0.917293 0.929864
vt 0.917293 0.930447
vt 0.909965 0.930430
vt 0.795369 0.930430
vt 0.719619 0.930430
vt 0.719619 0.929848
vt 0.795396 0.929848
vt 0.023673 0.907456
vt 0.023673 0.908038
vt 0.917284 0.943030
vt 0.909955 0.943030
vt 0.909955 0.942664
vt 0.917284 0.942664
vt 0.010628 0.912374
vt 0.449405 0.967562
vt 0.456553 0.967573
vt 0.031461 0.681016
vt 0.027623 0.681012
vt 0.027623 0.609962
vt 0.031461 0.609958
vt 0.456553 0.967006
vt 0.449405 0.966981
vt 0.795375 0.936742
vt 0.719593 0.936742
vt 0.719593 0.936377
vt 0.795396 0.936377
vt 0.866604 0.943029
vt 0.866567 0.942663
vt 0.406022 0.951943
vt 0.406022 0.955779
vt 0.406092 0.928923
vt 0.406123 0.925086
vt 0.259027 0.974987
vt 0.334638 0.974975
vt 0.406069 0.932761
vt 0.406274 0.990292
vt 0.406356 0.986456
vt 0.406214 0.994129
vt 0.406170 0.997966
vt 0.406163 0.921248
vt 0.001953 0.771294
vt 0.041800 0.771294
vt 0.041868 0.772754
vt 0.001953 0.772754
vt 0.406030 0.944271
vt 0.406039 0.940435
vt 0.406052 0.936598
vt 0.670377 0.001953
vt 0.745429 0.001953
vt 0.740670 0.009095
vt 0.670377 0.009095
vt 0.902682 0.923927
vt 0.859795 0.923927
vt 0.859997 0.921283
vt 0.902682 0.921283
vt 0.406464 0.978784
vt 0.406619 0.982620
vt 0.745429 0.321778
vt 0.745630 0.603902
vt 0.670378 0.603902
vt 0.670377 0.321778
vt 0.481569 0.314636
vt 0.476992 0.321778
vt 0.740670 0.314636
vt 0.670377 0.314636
vt 0.334955 0.955777
vt 0.259026 0.955779
vt 0.259027 0.971144
vt 0.334723 0.971134
vt 0.313543 0.604038
vt 0.238024 0.604038
vt 0.238024 0.321778
vt 0.313429 0.321778
vt 0.137484 0.994181
vt 0.137551 0.990340
vt 0.213253 0.990360
vt 0.213252 0.994203
vt 0.546894 0.609822
vt 0.617254 0.609822
vt 0.617254 0.915363
vt 0.546894 0.915363
vt 0.137433 0.998022
vt 0.213252 0.998047
vt 0.137345 0.936572
vt 0.137359 0.932731
vt 0.213255 0.932720
vt 0.213255 0.936563
vt 0.137336 0.940413
vt 0.213255 0.940406
vt 0.334952 0.959618
vt 0.259026 0.959622
vt 0.334921 0.967005
vt 0.259026 0.967013
vt 0.406032 0.963450
vt 0.406042 0.965220
vt 0.406142 0.967573
vt 0.406057 0.966991
vt 0.866551 0.929848
vt 0.866578 0.930430
vt 0.406346 0.974949
vt 0.406025 0.959615
vt 0.866515 0.936375
vt 0.866535 0.936741
vt 0.406024 0.948107
vt 0.259027 0.928877
vt 0.259028 0.925034
vt 0.334877 0.925049
vt 0.334903 0.928890
vt 0.238024 0.001953
vt 0.313277 0.001953
vt 0.845910 0.609822
vt 0.845910 0.915363
vt 0.805996 0.915363
vt 0.805996 0.609822
vt 0.481569 0.009095
vt 0.476992 0.001953
vt 0.259026 0.944250
vt 0.259026 0.940407
vt 0.334946 0.940413
vt 0.334952 0.944254
vt 0.385348 0.321778
vt 0.385500 0.001953
vt 0.428387 0.001953
vt 0.428387 0.321778
vt 0.428386 0.604038
vt 0.385233 0.604038
vt 0.787572 0.923927
vt 0.787371 0.921283
vt 0.554377 0.314636
vt 0.549619 0.321778
vt 0.549417 0.603902
vt 0.477194 0.603902
vt 0.334730 0.990340
vt 0.334642 0.986499
vt 0.114610 0.771294
vt 0.114543 0.772754
vt 0.334848 0.998023
vt 0.334797 0.994181
vt 0.334842 0.921207
vt 0.795319 0.943029
vt 0.795355 0.942664
vt 0.334788 0.969361
vt 0.334837 0.967588
vt 0.114541 0.763913
vt 0.114609 0.765373
vt 0.131041 0.808183
vt 0.131041 0.804345
vt 0.132470 0.804345
vt 0.132470 0.808183
vt 0.434307 0.603902
vt 0.132470 0.833853
vt 0.131041 0.833853
vt 0.121419 0.715690
vt 0.122848 0.715690
vt 0.122848 0.741360
vt 0.121419 0.741360
vt 0.122848 0.711852
vt 0.121419 0.711852
vt 0.126812 0.711852
vt 0.126812 0.715690
vt 0.111535 0.681016
vt 0.111535 0.609958
vt 0.115499 0.609958
vt 0.115499 0.681016
vt 0.115499 0.686936
vt 0.115499 0.757985
vt 0.111535 0.757985
vt 0.111535 0.686936
vt 0.127077 0.808183
vt 0.127077 0.804345
vt 0.145740 0.849724
vt 0.145740 0.778675
vt 0.147169 0.778675
vt 0.147169 0.849724
vt 0.139820 0.778675
vt 0.139820 0.849731
vt 0.138391 0.849731
vt 0.138391 0.778675
vt 0.131041 0.778675
vt 0.132470 0.778675
vt 0.088722 0.609958
vt 0.088722 0.681008
vt 0.063052 0.681008
vt 0.063052 0.609958
vt 0.027623 0.778675
vt 0.027623 0.849732
vt 0.001953 0.849732
vt 0.001953 0.778675
vt 0.121419 0.686182
vt 0.122848 0.686182
vt 0.057132 0.609958
vt 0.057132 0.681015
vt 0.001953 0.681012
vt 0.001953 0.609962
vt 0.003380 0.885882
vt 0.004449 0.889366
vt 0.003243 0.889883
vt 0.002061 0.886045
vt 0.140082 0.658083
vt 0.140082 0.654065
vt 0.141314 0.654065
vt 0.141314 0.658083
vt 0.003335 0.884041
vt 0.002000 0.884036
vt 0.026276 0.878217
vt 0.024027 0.875113
vt 0.024817 0.874206
vt 0.027296 0.877623
vt 0.140082 0.662097
vt 0.141314 0.662097
vt 0.003484 0.881058
vt 0.003291 0.882513
vt 0.001958 0.882410
vt 0.002186 0.880725
vt 0.140082 0.686082
vt 0.140082 0.682072
vt 0.141314 0.682072
vt 0.141314 0.686082
vt 0.027457 0.881866
vt 0.028598 0.881642
vt 0.140082 0.665893
vt 0.141314 0.665893
vt 0.006709 0.892473
vt 0.009813 0.894733
vt 0.009152 0.895800
vt 0.005734 0.893313
vt 0.140082 0.669194
vt 0.140082 0.667803
vt 0.141314 0.667803
vt 0.141314 0.669194
vt 0.027456 0.885705
vt 0.028598 0.885869
vt 0.140082 0.678058
vt 0.141314 0.678058
vt 0.024022 0.892467
vt 0.026270 0.889357
vt 0.027291 0.889889
vt 0.024812 0.893311
vt 0.140082 0.674250
vt 0.141314 0.674250
vt 0.017287 0.871672
vt 0.013453 0.871672
vt 0.013168 0.870414
vt 0.017391 0.870415
vt 0.140082 0.625997
vt 0.140082 0.621987
vt 0.141314 0.621987
vt 0.141314 0.625997
vt 0.020931 0.872858
vt 0.021405 0.871722
vt 0.140082 0.642037
vt 0.140082 0.638028
vt 0.141314 0.638028
vt 0.141314 0.642037
vt 0.140082 0.650056
vt 0.141314 0.650056
vt 0.105615 0.669047
vt 0.105615 0.673271
vt 0.103089 0.673271
vt 0.103089 0.669047
vt 0.105615 0.640440
vt 0.105615 0.641912
vt 0.103089 0.641912
vt 0.103089 0.640440
vt 0.105615 0.614180
vt 0.105615 0.618401
vt 0.103089 0.618401
vt 0.103089 0.614180
vt 0.105615 0.631089
vt 0.105615 0.635105
vt 0.103089 0.635105
vt 0.103089 0.631089
vt 0.105615 0.626852
vt 0.103089 0.626852
vt 0.105615 0.622626
vt 0.103089 0.622626
vt 0.105615 0.643913
vt 0.105615 0.647906
vt 0.103089 0.647906
vt 0.103089 0.643913
vt 0.105615 0.637114
vt 0.105615 0.638740
vt 0.103089 0.638740
vt 0.103089 0.637114
vt 0.105615 0.664824
vt 0.103089 0.664824
vt 0.105615 0.652141
vt 0.103089 0.652141
vt 0.105615 0.681723
vt 0.105615 0.685950
vt 0.103089 0.685950
vt 0.103089 0.681723
vt 0.105615 0.656377
vt 0.103089 0.656377
vt 0.105615 0.677495
vt 0.103089 0.677495
vt 0.105615 0.660600
vt 0.103089 0.660600
vt 0.105615 0.690176
vt 0.105615 0.694400
vt 0.103089 0.694400
vt 0.103089 0.690176
vt 0.105615 0.609958
vt 0.103089 0.609958
vt 0.004607 0.878098
vt 0.003942 0.879814
vt 0.002688 0.879341
vt 0.003421 0.877478
vt 0.140082 0.617976
vt 0.141314 0.617976
vt 0.140082 0.613967
vt 0.141314 0.613967
vt 0.006695 0.875115
vt 0.005718 0.874213
vt 0.140082 0.609958
vt 0.141314 0.609958
vt 0.009792 0.872850
vt 0.009136 0.871712
vt 0.020926 0.894725
vt 0.021398 0.895796
vt 0.140082 0.630008
vt 0.141314 0.630008
vt 0.140082 0.690093
vt 0.141314 0.690093
vt 0.140082 0.672335
vt 0.141314 0.672335
vt 0.140082 0.646046
vt 0.141314 0.646046
vt 0.017287 0.895914
vt 0.017386 0.897103
vt 0.140082 0.634018
vt 0.141314 0.634018
vt 0.140082 0.670769
vt 0.141314 0.670769
vt 0.013459 0.895917
vt 0.013168 0.897104
vt 0.019623 0.888180
vt 0.020693 0.886665
vt 0.013021 0.878780
vt 0.011573 0.879897
vt 0.021264 0.884893
vt 0.011508 0.888286
vt 0.012948 0.889357
vt 0.014735 0.878187
vt 0.021277 0.883037
vt 0.010065 0.882796
vt 0.009975 0.883503
vt 0.018159 0.889288
vt 0.020732 0.881278
vt 0.010003 0.884246
vt 0.009999 0.885129
vt 0.016445 0.889883
vt 0.019683 0.879789
vt 0.010602 0.881359
vt 0.010295 0.882196
vt 0.014649 0.889906
vt 0.010469 0.886800
vt 0.018235 0.878715
vt 0.016529 0.878163
vt 0.015544 0.884169
vt 0.869961 0.321781
vt 0.867317 0.321777
vt 0.867859 0.001958
vt 0.870503 0.001963
vt 0.870503 0.604046
vt 0.866667 0.603905
vt 0.373713 0.765373
vt 0.373646 0.763913
vt 0.413560 0.763913
vt 0.413560 0.765374
vt 0.022795 0.925142
vt 0.022800 0.928977
vt 0.015477 0.929006
vt 0.015472 0.925170
vt 0.009332 0.978719
vt 0.009328 0.982555
vt 0.002016 0.982570
vt 0.002017 0.978743
vt 0.853325 0.009095
vt 0.860740 0.001953
vt 0.860740 0.321778
vt 0.853325 0.314636
vt 0.307487 0.863033
vt 0.307487 0.864494
vt 0.001953 0.864494
vt 0.001953 0.863033
vt 0.022838 0.978723
vt 0.022830 0.982553
vt 0.015511 0.982551
vt 0.015518 0.978715
vt 0.022827 0.948151
vt 0.015505 0.948181
vt 0.015500 0.944346
vt 0.022822 0.944317
vt 0.066090 0.969343
vt 0.066024 0.971113
vt 0.022862 0.971072
vt 0.022871 0.969316
vt 0.022806 0.932813
vt 0.022811 0.936648
vt 0.015489 0.936676
vt 0.015483 0.932841
vt 0.022816 0.940482
vt 0.015494 0.940510
vt 0.015694 0.965293
vt 0.015534 0.963545
vt 0.022862 0.963469
vt 0.022872 0.965225
vt 0.022848 0.974895
vt 0.015525 0.974876
vt 0.015535 0.971031
vt 0.017148 0.911539
vt 0.016482 0.909824
vt 0.016871 0.909789
vt 0.022822 0.986385
vt 0.015504 0.986385
vt 0.002001 0.959721
vt 0.002006 0.955895
vt 0.009327 0.955884
vt 0.009330 0.959726
vt 0.001985 0.963353
vt 0.009332 0.963383
vt 0.002005 0.952058
vt 0.009324 0.952039
vt 0.001964 0.925223
vt 0.001958 0.921387
vt 0.009280 0.921358
vt 0.009286 0.925194
vt 0.001998 0.994054
vt 0.002005 0.990225
vt 0.009317 0.990220
vt 0.009310 0.994050
vt 0.001991 0.997884
vt 0.009302 0.997881
vt 0.002012 0.986398
vt 0.009323 0.986389
vt 0.003077 0.907447
vt 0.002269 0.905584
vt 0.002677 0.905690
vt 0.015693 0.969284
vt 0.022833 0.951983
vt 0.015510 0.952017
vt 0.015489 0.994050
vt 0.015497 0.990218
vt 0.022815 0.990217
vt 0.022807 0.994049
vt 0.015466 0.921335
vt 0.022790 0.921307
vt 0.015480 0.997881
vt 0.022799 0.997883
vt 0.015516 0.955856
vt 0.022840 0.955815
vt 0.015524 0.959697
vt 0.022849 0.959644
vt 0.016594 0.907456
vt 0.016175 0.906846
vt 0.016482 0.905672
vt 0.016871 0.905707
vt 0.009335 0.974877
vt 0.002011 0.974919
vt 0.009337 0.971219
vt 0.001993 0.971292
vt 0.009303 0.936700
vt 0.009309 0.940534
vt 0.001990 0.940562
vt 0.001983 0.936728
vt 0.009298 0.932865
vt 0.001977 0.932894
vt 0.009292 0.929030
vt 0.001970 0.929058
vt 0.009315 0.944368
vt 0.001996 0.944394
vt 0.009319 0.948203
vt 0.002001 0.948227
vt 0.002465 0.902881
vt 0.001955 0.902912
vt 0.002269 0.901432
vt 0.002756 0.901303
vt 0.001960 0.966498
vt 0.001967 0.965178
vt 0.009182 0.965172
vt 0.009129 0.966502
vt 0.017148 0.903957
vt 0.009517 0.969244
vt 0.015377 0.969241
vt 0.015378 0.965337
vt 0.009488 0.965367
vt 0.009566 0.967852
vt 0.015326 0.967831
vt 0.009116 0.967924
vt 0.009161 0.969474
vt 0.001972 0.969469
vt 0.001961 0.967955
vt 0.016594 0.908039
vt 0.016168 0.908344
vt 0.483552 0.936375
vt 0.483552 0.936740
vt 0.476224 0.936740
vt 0.476224 0.936374
vt 0.009553 0.966484
vt 0.015318 0.966463
vt 0.001962 0.904410
vt 0.002430 0.904347
vt 0.483562 0.929847
vt 0.483562 0.930430
vt 0.476234 0.930447
vt 0.476234 0.929864
vt 0.016959 0.907457
vt 0.016959 0.908039
vt 0.476218 0.943030
vt 0.476218 0.942664
vt 0.483547 0.942664
vt 0.483547 0.943030
vt 0.003077 0.899569
vt 0.022876 0.967561
vt 0.015728 0.967572
vt 0.027623 0.757993
vt 0.027623 0.686935
vt 0.031461 0.686939
vt 0.031461 0.757989
vt 0.015728 0.967005
vt 0.022876 0.966980
vt 0.526935 0.942664
vt 0.526898 0.943029
vt 0.066260 0.951943
vt 0.066259 0.955779
vt 0.066158 0.925085
vt 0.066189 0.928923
vt 0.066212 0.932760
vt 0.065925 0.986456
vt 0.066007 0.990292
vt 0.066067 0.994129
vt 0.066111 0.997966
vt 0.066118 0.921247
vt 0.413562 0.771294
vt 0.413562 0.772754
vt 0.373647 0.772754
vt 0.373715 0.771294
vt 0.066242 0.940434
vt 0.066251 0.944270
vt 0.066229 0.936597
vt 0.476248 0.923927
vt 0.476248 0.921283
vt 0.518933 0.921283
vt 0.519135 0.923927
vt 0.065817 0.978784
vt 0.065662 0.982619
vt 0.818055 0.321778
vt 0.813479 0.314636
vt 0.066250 0.963450
vt 0.066239 0.965220
vt 0.066139 0.967572
vt 0.066224 0.966990
vt 0.526978 0.929848
vt 0.526951 0.930430
vt 0.065935 0.974948
vt 0.066256 0.959614
vt 0.526983 0.936376
vt 0.526963 0.936741
vt 0.066257 0.948107
vt 0.434307 0.609822
vt 0.474221 0.609822
vt 0.474221 0.915363
vt 0.434307 0.915363
vt 0.813479 0.009095
vt 0.818055 0.001953
vt 0.044992 0.321778
vt 0.001953 0.321778
vt 0.001953 0.001953
vt 0.044840 0.001953
vt 0.045107 0.604038
vt 0.001953 0.604038
vt 0.817854 0.603902
vt 0.137639 0.986499
vt 0.137329 0.944254
vt 0.137439 0.921207
vt 0.137336 0.963459
vt 0.137346 0.965232
vt 0.598094 0.936376
vt 0.598114 0.936742
vt 0.137558 0.971134
vt 0.137330 0.959618
vt 0.137326 0.955777
vt 0.137325 0.951936
vt 0.137757 0.978816
vt 0.137908 0.982657
vt 0.137643 0.974975
vt 0.137361 0.967005
vt 0.300903 0.765373
vt 0.300971 0.763913
vt 0.137326 0.948095
vt 0.103089 0.725990
vt 0.104518 0.725990
vt 0.104518 0.729829
vt 0.103089 0.729829
vt 0.117063 0.001953
vt 0.116911 0.321778
vt 0.116796 0.604038
vt 0.860740 0.603902
vt 0.103089 0.700321
vt 0.104518 0.700321
vt 0.134162 0.690020
vt 0.134162 0.715690
vt 0.132733 0.715690
vt 0.132733 0.690020
vt 0.132733 0.686182
vt 0.134162 0.686182
vt 0.128769 0.686182
vt 0.128769 0.690020
vt 0.111273 0.849732
vt 0.107309 0.849732
vt 0.107309 0.778675
vt 0.111273 0.778675
vt 0.121157 0.849724
vt 0.117193 0.849724
vt 0.117193 0.778675
vt 0.121157 0.778675
vt 0.099125 0.725990
vt 0.099125 0.729829
vt 0.163164 0.681007
vt 0.161735 0.681007
vt 0.161735 0.609958
vt 0.163164 0.609958
vt 0.154386 0.609958
vt 0.155815 0.609958
vt 0.155815 0.681016
vt 0.154386 0.681016
vt 0.104518 0.755499
vt 0.103089 0.755499
vt 0.088722 0.757978
vt 0.063052 0.757978
vt 0.063052 0.686928
vt 0.088722 0.686928
vt 0.033544 0.778675
vt 0.059214 0.778675
vt 0.059214 0.849732
vt 0.033544 0.849732
vt 0.132733 0.660512
vt 0.134162 0.660512
vt 0.001953 0.757993
vt 0.001953 0.686935
vt 0.057132 0.686939
vt 0.057132 0.757989
vt 0.033787 0.893507
vt 0.032467 0.893344
vt 0.033649 0.889505
vt 0.034855 0.890022
vt 0.147234 0.662016
vt 0.148466 0.662016
vt 0.148466 0.666034
vt 0.147234 0.666034
vt 0.033742 0.895348
vt 0.032406 0.895352
vt 0.056682 0.901172
vt 0.057702 0.901765
vt 0.055224 0.905183
vt 0.054433 0.904275
vt 0.147234 0.658003
vt 0.148466 0.658003
vt 0.033890 0.898330
vt 0.032592 0.898663
vt 0.032364 0.896978
vt 0.033697 0.896876
vt 0.147234 0.634018
vt 0.148466 0.634018
vt 0.148466 0.638028
vt 0.147234 0.638028
vt 0.057863 0.897523
vt 0.059004 0.897747
vt 0.147234 0.654207
vt 0.148466 0.654207
vt 0.037115 0.886915
vt 0.036140 0.886076
vt 0.039558 0.883589
vt 0.040219 0.884656
vt 0.147234 0.650906
vt 0.148466 0.650906
vt 0.148466 0.652297
vt 0.147234 0.652297
vt 0.057863 0.893683
vt 0.059004 0.893519
vt 0.148466 0.642043
vt 0.147234 0.642043
vt 0.054428 0.886922
vt 0.055218 0.886077
vt 0.057697 0.889499
vt 0.056676 0.890032
vt 0.148466 0.645850
vt 0.147234 0.645850
vt 0.047694 0.907716
vt 0.047797 0.908973
vt 0.043575 0.908974
vt 0.043859 0.907716
vt 0.147234 0.613969
vt 0.148466 0.613969
vt 0.148466 0.617979
vt 0.147234 0.617979
vt 0.051337 0.906531
vt 0.051812 0.907667
vt 0.147234 0.678062
vt 0.148466 0.678062
vt 0.148466 0.682071
vt 0.147234 0.682071
vt 0.148466 0.670043
vt 0.147234 0.670043
vt 0.097168 0.660458
vt 0.094642 0.660458
vt 0.094642 0.656235
vt 0.097168 0.656235
vt 0.097168 0.689066
vt 0.094642 0.689066
vt 0.094642 0.687593
vt 0.097168 0.687593
vt 0.097168 0.630884
vt 0.094642 0.630884
vt 0.094642 0.626662
vt 0.097168 0.626662
vt 0.097168 0.613974
vt 0.094642 0.613974
vt 0.094642 0.609958
vt 0.097168 0.609958
vt 0.097168 0.618211
vt 0.094642 0.618211
vt 0.097168 0.622437
vt 0.094642 0.622437
vt 0.097168 0.685592
vt 0.094642 0.685592
vt 0.094642 0.681599
vt 0.097168 0.681599
vt 0.097168 0.692391
vt 0.094642 0.692391
vt 0.094642 0.690766
vt 0.097168 0.690766
vt 0.097168 0.664681
vt 0.094642 0.664681
vt 0.094642 0.677364
vt 0.097168 0.677364
vt 0.097168 0.694400
vt 0.094642 0.694400
vt 0.097168 0.647783
vt 0.094642 0.647783
vt 0.094642 0.643556
vt 0.097168 0.643556
vt 0.094642 0.673128
vt 0.097168 0.673128
vt 0.097168 0.652010
vt 0.094642 0.652010
vt 0.094642 0.668905
vt 0.097168 0.668905
vt 0.097168 0.639330
vt 0.094642 0.639330
vt 0.094642 0.635105
vt 0.097168 0.635105
vt 0.035013 0.901291
vt 0.033827 0.901910
vt 0.033094 0.900048
vt 0.034348 0.899574
vt 0.148466 0.621990
vt 0.147234 0.621990
vt 0.148466 0.625999
vt 0.147234 0.625999
vt 0.037102 0.904274
vt 0.036124 0.905176
vt 0.148466 0.630008
vt 0.147234 0.630008
vt 0.040198 0.906539
vt 0.039543 0.907677
vt 0.051332 0.884663
vt 0.051804 0.883592
vt 0.147234 0.609958
vt 0.148466 0.609958
vt 0.148466 0.647765
vt 0.147234 0.647765
vt 0.147234 0.674053
vt 0.148466 0.674053
vt 0.047693 0.883475
vt 0.047793 0.882286
vt 0.147234 0.686080
vt 0.148466 0.686080
vt 0.148466 0.690091
vt 0.147234 0.690091
vt 0.148466 0.649332
vt 0.147234 0.649332
vt 0.043865 0.883472
vt 0.043574 0.882284
vt 0.051099 0.892723
vt 0.050030 0.891209
vt 0.041979 0.899491
vt 0.043428 0.900609
vt 0.051670 0.894495
vt 0.043354 0.890032
vt 0.041914 0.891103
vt 0.045141 0.901202
vt 0.051683 0.896352
vt 0.040382 0.895886
vt 0.040471 0.896592
vt 0.048565 0.890100
vt 0.051138 0.898110
vt 0.040405 0.894260
vt 0.040409 0.895143
vt 0.046851 0.889506
vt 0.050089 0.899599
vt 0.040702 0.897192
vt 0.041008 0.898030
vt 0.045055 0.889482
vt 0.040875 0.892588
vt 0.048641 0.900674
vt 0.046936 0.901226
vt 0.045950 0.895220
vt 0.259027 0.969370
vt 0.259027 0.967596
vt 0.213255 0.948093
vt 0.213255 0.944249
vt 0.192316 0.604038
vt 0.192316 0.321778
vt 0.259029 0.994203
vt 0.259028 0.990360
vt 0.213255 0.965239
vt 0.213255 0.963465
vt 0.259030 0.998047
vt 0.184904 0.771294
vt 0.184904 0.772754
vt 0.213254 0.921191
vt 0.230610 0.763913
vt 0.230610 0.765373
vt 0.213255 0.974987
vt 0.213255 0.971144
vt 0.213255 0.951936
vt 0.213254 0.982673
vt 0.213254 0.978830
vt 0.624670 0.314636
vt 0.624670 0.321778
vt 0.712319 0.923927
vt 0.712319 0.921283
vt 0.719603 0.943029
vt 0.719603 0.942663
vt 0.673890 0.936742
vt 0.673890 0.936377
vt 0.213255 0.959622
vt 0.213255 0.955779
vt 0.213253 0.986517
vt 0.259028 0.986517
vt 0.213255 0.967013
vt 0.259028 0.921191
vt 0.184902 0.763913
vt 0.184902 0.765373
vt 0.192316 0.001953
vt 0.624670 0.603902
vt 0.068659 0.788732
vt 0.068659 0.814325
vt 0.065134 0.817851
vt 0.065134 0.785207
vt 0.125257 0.661432
vt 0.121419 0.661432
vt 0.121419 0.628788
vt 0.125257 0.628788
vt 0.068763 0.870414
vt 0.068763 0.909072
vt 0.064925 0.909072
vt 0.064925 0.870414
vt 0.121419 0.609958
vt 0.125257 0.609958
vt 0.125257 0.618594
vt 0.121419 0.618594
vt 0.140082 0.697598
vt 0.140082 0.696013
vt 0.143920 0.696013
vt 0.143920 0.697598
vt 0.140082 0.745165
vt 0.140082 0.743580
vt 0.143920 0.743580
vt 0.143920 0.745165
vt 0.076776 0.782200
vt 0.075191 0.782200
vt 0.071666 0.778675
vt 0.080301 0.778675
vt 0.096279 0.820857
vt 0.097863 0.820857
vt 0.101389 0.824382
vt 0.092753 0.824382
vt 0.075191 0.820857
vt 0.076776 0.820857
vt 0.080301 0.824382
vt 0.071666 0.824382
vt 0.097863 0.782200
vt 0.101389 0.778675
vt 0.089747 0.788732
vt 0.089747 0.814325
vt 0.086221 0.817851
vt 0.086221 0.785207
vt 0.096279 0.782200
vt 0.092753 0.778675
vt 0.125257 0.621142
vt 0.121419 0.621142
vt 0.125257 0.623691
vt 0.121419 0.623691
vt 0.125257 0.626239
vt 0.121419 0.626239
vt 0.121419 0.669078
vt 0.125257 0.669078
vt 0.121419 0.666529
vt 0.125257 0.666529
vt 0.121419 0.663981
vt 0.125257 0.663981
vt 0.069156 0.816825
vt 0.065631 0.820350
vt 0.070572 0.818944
vt 0.067047 0.822469
vt 0.072691 0.820360
vt 0.069166 0.823885
vt 0.093779 0.782697
vt 0.090254 0.779172
vt 0.091660 0.784113
vt 0.088135 0.780588
vt 0.090244 0.786232
vt 0.086719 0.782707
vt 0.090254 0.823885
vt 0.093779 0.820360
vt 0.088135 0.822469
vt 0.091660 0.818944
vt 0.086719 0.820350
vt 0.090244 0.816825
vt 0.072691 0.782697
vt 0.069166 0.779172
vt 0.070572 0.784113
vt 0.067047 0.780588
vt 0.069156 0.786232
vt 0.065631 0.782707
vt 0.140082 0.733386
vt 0.143920 0.733386
vt 0.143920 0.735934
vt 0.140082 0.735934
vt 0.143920 0.738483
vt 0.140082 0.738483
vt 0.143920 0.741032
vt 0.140082 0.741032
vt 0.143920 0.700146
vt 0.140082 0.700146
vt 0.143920 0.702695
vt 0.140082 0.702695
vt 0.143920 0.705244
vt 0.140082 0.705244
vt 0.143920 0.707792
vt 0.140082 0.707792
s 1
usemtl M_projector
f 419/1/1 448/2/1 585/3/1 583/4/1
f 2/5/2 1/6/2 9/7/2 10/8/2
f 161/9/3 586/10/3 627/11/3 168/12/3
f 2/5/2 10/8/2 6/13/2 5/14/2
f 137/15/1 4/16/1 12/17/1 140/18/1
f 17/19/4 86/20/5 57/21/6 25/22/7
f 153/23/8 593/24/8 591/25/9 135/26/10
f 70/27/11 32/28/12 13/29/13 51/30/14
f 3/31/3 4/32/3 10/33/15 9/34/3
f 133/35/16 578/36/16 587/37/17 175/38/17
f 455/39/18 456/40/18 598/41/18 628/42/18
f 4/43/19 3/44/19 11/45/19 12/46/19
f 23/47/20 69/48/21 52/49/22 6/50/23
f 8/51/24 7/52/25 49/53/26 56/54/27
f 477/55/28 474/56/28 622/57/28 639/58/28
f 191/59/29 109/60/30 21/61/31 171/62/32
f 596/63/3 139/64/3 169/65/3 597/66/3
f 609/67/33 611/68/34 149/69/34 147/70/33
f 438/71/35 473/72/36 643/73/37 641/74/38
f 622/75/39 474/76/39 443/77/39 619/78/39
f 642/79/2 644/80/2 680/81/40 671/82/40
f 634/83/29 479/84/29 477/85/29 639/86/29
f 26/87/41 59/88/42 61/89/43 27/90/44
f 25/22/7 57/21/6 59/88/42 26/87/41
f 27/90/44 61/89/43 64/91/45 24/92/46
f 112/93/47 111/94/48 31/95/49 72/96/50
f 22/97/51 67/98/52 69/48/21 23/47/20
f 21/61/31 65/99/53 67/98/52 22/97/51
f 65/100/54 110/101/19 91/102/19
f 5/103/55 6/50/23 52/49/22 53/104/56
f 37/105/57 73/106/58 75/107/59 38/108/60
f 36/109/61 71/110/62 73/106/58 37/105/57
f 38/108/60 75/107/59 78/111/63 35/112/64
f 40/113/65 85/114/66 79/115/67 44/116/68
f 45/117/69 81/118/70 83/119/71 46/120/72
f 44/121/68 79/122/67 81/118/70 45/117/69
f 46/120/72 83/119/71 54/123/73 14/124/74
f 71/125/2 105/126/2 89/127/2
f 109/60/30 110/128/75 65/99/53 21/61/31
f 28/129/76 8/51/24 56/54/27 77/130/77
f 82/131/78 19/132/79 18/133/80 84/134/81
f 86/20/5 17/19/4 20/135/82 80/136/83
f 80/137/83 20/138/82 19/132/79 82/131/78
f 76/139/84 29/140/85 28/129/76 77/130/77
f 74/141/86 30/142/87 29/140/85 76/139/84
f 100/143/19 112/144/19 90/145/19 103/146/19
f 72/96/50 31/95/49 30/142/87 74/141/86
f 84/134/81 18/133/80 5/103/55 53/104/56
f 68/147/88 33/148/89 32/28/12 70/27/11
f 66/149/90 34/150/91 33/148/89 68/147/88
f 62/151/92 41/152/93 39/153/94 63/154/95
f 60/155/96 42/156/97 41/152/93 62/151/92
f 85/114/66 40/113/65 43/157/98 58/158/99
f 58/158/99 43/157/98 42/156/97 60/155/96
f 50/159/100 63/154/95 39/153/94 16/160/101
f 54/123/73 51/30/14 13/29/13 14/124/74
f 55/161/102 50/159/100 16/160/101 15/162/103
f 78/111/63 55/161/102 15/162/103 35/112/64
f 84/134/81 53/104/56 54/123/73 83/119/71
f 82/131/78 84/134/81 83/119/71 81/118/70
f 80/137/83 82/131/78 81/118/70 79/122/67
f 86/20/5 80/136/83 79/115/67 85/114/66
f 76/139/84 77/130/77 78/111/63 75/107/59
f 74/141/86 76/139/84 75/107/59 73/106/58
f 72/96/50 74/141/86 73/106/58 71/110/62
f 97/163/2 107/164/2 92/165/2 102/166/2
f 70/27/11 51/30/14 52/49/22 69/48/21
f 68/147/88 70/27/11 69/48/21 67/98/52
f 66/149/90 68/147/88 67/98/52 65/99/53
f 96/167/104 98/168/105 105/169/106 106/170/107
f 62/151/92 63/154/95 64/91/45 61/89/43
f 60/155/96 62/151/92 61/89/43 59/88/42
f 58/158/99 60/155/96 59/88/42 57/21/6
f 85/114/66 58/158/99 57/21/6 86/20/5
f 50/159/100 55/161/102 56/54/27 49/53/26
f 51/30/14 54/123/73 53/104/56 52/49/22
f 63/154/95 50/159/100 49/53/26 64/91/45
f 55/161/102 78/111/63 77/130/77 56/54/27
f 7/52/25 24/92/46 64/91/45 49/53/26
f 194/171/108 626/172/108 638/173/109 183/174/109
f 112/144/19 72/175/19 90/145/19
f 66/149/90 65/99/53 91/176/110 92/177/111
f 72/96/50 71/110/62 89/178/112 90/179/113
f 102/180/114 92/177/111 91/176/110 104/181/115
f 97/182/116 95/183/117 108/184/118 107/185/118
f 100/143/19 103/146/19 104/186/19 99/187/19
f 93/188/119 100/189/120 47/190/120 88/191/119
f 98/168/105 96/167/104 95/183/117 97/182/116
f 102/180/114 104/181/115 103/192/121 101/193/122
f 101/194/2 98/195/2 97/163/2 102/166/2
f 88/196/123 47/197/124 48/198/124 87/199/123
f 187/200/39 621/201/39 620/202/39 156/203/39
f 100/143/19 99/187/19 48/204/19 47/205/19
f 99/206/125 94/207/126 87/208/126 48/209/125
f 106/170/107 105/169/106 71/110/62 36/109/61
f 103/192/121 90/179/113 89/178/112 101/193/122
f 107/185/118 108/184/118 34/150/91 66/149/90
f 92/165/2 107/164/2 66/210/2
f 94/211/127 99/212/128 110/128/75 109/60/30
f 128/213/129 125/214/129 126/215/129 127/216/129
f 110/101/19 99/187/19 104/186/19 91/102/19
f 100/217/130 93/218/131 111/94/48 112/93/47
f 156/219/132 620/220/132 623/221/132 157/222/132
f 89/127/2 105/126/2 98/195/2 101/194/2
f 94/207/126 189/223/28 188/224/28 87/208/126
f 154/225/8 28/129/76 29/140/85 180/226/133
f 25/22/7 152/227/35 185/228/36 17/19/4
f 175/38/17 587/37/17 632/229/134 173/230/134
f 26/87/41 150/231/34 152/227/35 25/22/7
f 18/133/80 145/232/135 164/233/136 5/103/55
f 19/132/79 144/234/137 145/232/135 18/133/80
f 20/138/82 141/235/138 144/234/137 19/132/79
f 17/19/4 185/228/36 141/236/138 20/135/82
f 3/237/18 167/238/18 170/239/18 11/240/18
f 7/52/25 165/241/139 178/242/140 24/92/46
f 27/90/44 148/243/33 150/231/34 26/87/41
f 585/244/3 448/245/3 455/246/3 628/247/3
f 1/248/1 131/249/1 162/250/1 9/251/1
f 176/252/17 23/47/20 6/50/23 134/253/16
f 416/254/15 420/255/141 577/256/141 576/257/15
f 4/32/3 137/258/3 130/259/15 10/33/15
f 425/260/3 416/254/15 576/257/15 579/261/3
f 179/262/133 618/263/133 593/24/8 153/23/8
f 173/230/134 632/229/134 629/264/32 172/265/32
f 163/266/142 608/267/142 581/268/143 160/269/143
f 430/270/137 433/271/135 605/272/135 602/273/137
f 426/274/3 595/275/3 598/276/3 456/277/3
f 429/278/138 430/270/137 602/273/137 599/279/138
f 434/280/33 436/281/34 612/282/34 610/283/33
f 24/92/46 178/242/140 148/243/33 27/90/44
f 464/284/140 434/280/33 610/283/33 614/285/140
f 181/286/144 636/287/144 618/263/133 179/262/133
f 157/288/108 623/289/108 626/172/108 194/171/108
f 184/290/109 31/95/49 111/94/48 193/291/108
f 189/292/29 94/211/127 109/60/30 191/59/29
f 193/291/108 111/94/48 93/218/131 158/293/108
f 155/294/39 88/196/123 87/199/123 188/295/39
f 171/62/32 21/61/31 22/97/51 174/296/134
f 182/297/144 30/142/87 31/95/49 184/290/109
f 180/226/133 29/140/85 30/142/87 182/297/144
f 158/298/132 93/188/119 88/191/119 155/299/132
f 136/300/10 8/51/24 28/129/76 154/225/8
f 174/296/134 22/97/51 23/47/20 176/252/17
f 644/301/38 642/302/37 186/303/36 151/304/35
f 160/269/143 581/268/143 584/305/145 132/306/145
f 12/307/3 11/308/3 170/309/3 140/310/3
f 167/311/3 3/31/3 9/34/3 162/312/3
f 165/241/139 7/52/25 8/51/24 136/300/10
f 590/313/146 613/314/140 177/315/140 166/316/139
f 159/317/143 131/318/145 1/319/145 2/320/143
f 159/317/143 2/320/143 5/321/142 164/322/142
f 132/323/1 161/324/1 162/250/1 131/249/1
f 138/325/3 129/326/15 130/259/15 137/258/3
f 129/326/15 133/327/141 134/328/141 130/259/15
f 146/329/135 163/330/136 164/233/136 145/232/135
f 166/316/139 177/315/140 178/242/140 165/241/139
f 168/331/18 169/332/18 170/239/18 167/238/18
f 169/65/3 139/64/3 140/310/3 170/309/3
f 142/333/138 143/334/137 144/234/137 141/235/138
f 186/303/36 142/335/138 141/236/138 185/228/36
f 143/334/137 146/329/135 145/232/135 144/234/137
f 177/315/140 147/70/33 148/243/33 178/242/140
f 147/70/33 149/69/34 150/231/34 148/243/33
f 149/69/34 151/304/35 152/227/35 150/231/34
f 151/304/35 186/303/36 185/228/36 152/227/35
f 190/336/28 187/337/28 188/224/28 189/223/28
f 184/290/109 193/291/108 194/171/108 183/174/109
f 189/292/29 191/59/29 192/338/29 190/339/29
f 158/298/132 155/299/132 156/219/132 157/222/132
f 155/294/39 188/295/39 187/200/39 156/203/39
f 191/59/29 171/62/32 172/265/32 192/338/29
f 182/297/144 184/290/109 183/174/109 181/286/144
f 180/226/133 182/297/144 181/286/144 179/262/133
f 154/225/8 180/226/133 179/262/133 153/23/8
f 176/252/17 134/253/16 133/35/16 175/38/17
f 174/296/134 176/252/17 175/38/17 173/230/134
f 171/62/32 174/296/134 173/230/134 172/265/32
f 193/291/108 158/293/108 157/288/108 194/171/108
f 137/15/1 140/18/1 139/340/1 138/341/1
f 167/311/3 162/312/3 161/9/3 168/12/3
f 136/300/10 154/225/8 153/23/8 135/26/10
f 123/342/147 121/343/147 127/344/148 126/345/148
f 131/318/145 159/317/143 160/269/143 132/306/145
f 159/317/143 164/322/142 163/266/142 160/269/143
f 10/33/15 130/259/15 134/328/141 6/346/141
f 123/342/147 126/345/148 118/347/19 120/348/19
f 125/349/149 124/350/150 119/351/2 117/352/2
f 122/353/150 124/350/150 125/349/149 128/354/149
f 165/355/151 136/356/151 124/350/150 122/353/150
f 166/357/152 165/358/152 122/359/152 121/360/152
f 136/361/108 135/362/108 123/363/108 124/364/108
f 135/365/153 166/366/153 121/343/147 123/342/147
f 119/367/108 120/368/108 118/369/108 117/370/108
f 115/371/152 116/372/152 114/373/152 113/374/152
f 127/344/148 121/343/147 115/375/19 113/376/19
f 124/377/154 123/378/154 120/379/154 119/380/154
f 121/381/154 122/382/154 116/383/154 115/384/154
f 122/353/150 128/354/149 114/385/2 116/386/2
f 128/213/129 127/216/129 113/387/129 114/388/129
f 126/215/129 125/214/129 117/389/129 118/390/129
f 201/391/2 200/392/2 251/393/2 250/394/2
f 38/395/19 35/396/19 233/397/19 232/398/19
f 217/399/2 201/391/2 250/394/2 262/400/2
f 208/401/2 206/402/2 249/403/2 248/404/2
f 37/405/19 38/395/19 232/398/19 230/406/19
f 215/407/2 214/408/2 261/409/2 260/410/2
f 13/411/19 32/412/19 229/413/19 218/414/19
f 209/415/2 208/401/2 248/404/2 247/416/2
f 36/417/19 37/405/19 230/406/19 231/418/19
f 199/419/2 195/420/2 241/421/2 252/422/2
f 96/423/19 106/424/19 240/425/19 237/426/19
f 210/427/2 209/415/2 247/416/2 246/428/2
f 32/412/19 33/429/19 228/430/19 229/413/19
f 211/431/2 207/432/2 245/433/2 258/434/2
f 207/432/2 210/427/2 246/428/2 245/433/2
f 33/429/19 34/435/19 227/436/19 228/430/19
f 197/437/2 202/438/2 256/439/2 243/440/2
f 40/441/19 44/442/19 235/443/19 222/444/19
f 198/445/2 197/437/2 243/440/2 244/446/2
f 39/447/19 41/448/19 225/449/19 226/450/19
f 206/402/2 198/445/2 244/446/2 249/403/2
f 35/396/19 15/451/19 220/452/19 233/397/19
f 106/424/19 36/417/19 231/418/19 240/425/19
f 226/453/155 225/454/156 248/455/157 249/456/158
f 237/457/159 240/458/160 263/459/160 260/460/161
f 236/461/162 219/462/163 242/463/164 259/464/165
f 228/465/166 227/466/167 250/467/168 251/468/169
f 229/469/170 228/465/166 251/468/169 252/470/171
f 218/471/172 229/469/170 252/470/171 241/472/173
f 231/473/174 230/474/175 253/475/176 254/476/177
f 239/477/178 238/478/179 261/479/180 262/480/178
f 221/481/181 226/453/155 249/456/158 244/482/182
f 230/474/175 232/483/183 255/484/184 253/475/176
f 227/466/167 239/477/178 262/480/178 250/467/168
f 223/485/185 222/486/186 245/487/187 246/488/188
f 232/483/183 233/489/189 256/490/190 255/484/184
f 224/491/191 223/485/185 246/488/188 247/492/192
f 233/489/189 220/493/193 243/494/194 256/490/190
f 235/495/195 234/496/196 257/497/197 258/498/198
f 219/462/163 218/471/172 241/472/173 242/463/164
f 240/458/160 231/473/174 254/476/177 263/459/160
f 225/454/156 224/491/191 247/492/192 248/455/157
f 222/486/186 235/495/195 258/498/198 245/487/187
f 234/499/196 236/461/162 259/464/165 257/500/197
f 238/478/179 237/457/159 260/460/161 261/479/180
f 220/493/193 221/481/181 244/482/182 243/494/194
f 203/501/2 216/502/2 263/503/2 254/504/2
f 44/442/19 45/505/19 234/506/19 235/443/19
f 200/392/2 199/419/2 252/422/2 251/393/2
f 214/408/2 217/399/2 262/400/2 261/409/2
f 45/505/19 46/507/19 236/508/19 234/506/19
f 204/509/2 203/501/2 254/504/2 253/510/2
f 216/502/2 215/407/2 260/410/2 263/503/2
f 46/507/19 14/511/19 219/512/19 236/508/19
f 205/513/2 204/509/2 253/510/2 255/514/2
f 202/438/2 205/513/2 255/514/2 256/439/2
f 212/515/2 211/431/2 258/434/2 257/516/2
f 43/517/19 40/441/19 222/444/19 223/518/19
f 14/519/19 13/411/19 218/414/19 219/520/19
f 34/435/19 108/521/19 239/522/19 227/436/19
f 16/523/19 39/447/19 226/450/19 221/524/19
f 213/525/2 212/515/2 257/516/2 259/526/2
f 42/527/19 43/517/19 223/518/19 224/528/19
f 108/521/19 95/529/19 238/530/19 239/522/19
f 15/451/19 16/523/19 221/524/19 220/452/19
f 196/531/2 213/525/2 259/526/2 242/532/2
f 95/529/19 96/423/19 237/426/19 238/530/19
f 41/448/19 42/527/19 224/528/19 225/449/19
f 195/420/2 196/531/2 242/532/2 241/421/2
f 207/432/2 211/431/2 280/533/2 276/534/2
f 204/509/2 205/513/2 274/535/2 273/536/2
f 210/427/2 207/432/2 276/534/2 279/537/2
f 195/420/2 199/419/2 268/538/2 264/539/2
f 205/513/2 202/438/2 271/540/2 274/535/2
f 209/415/2 210/427/2 279/537/2 278/541/2
f 214/408/2 215/407/2 284/542/2 283/543/2
f 211/431/2 212/515/2 281/544/2 280/533/2
f 208/401/2 209/415/2 278/541/2 277/545/2
f 201/391/2 217/399/2 286/546/2 270/547/2
f 212/515/2 213/525/2 282/548/2 281/544/2
f 206/402/2 208/401/2 277/545/2 275/549/2
f 216/502/2 203/501/2 272/550/2 285/551/2
f 213/525/2 196/531/2 265/552/2 282/548/2
f 200/392/2 201/391/2 270/547/2 269/553/2
f 217/399/2 214/408/2 283/543/2 286/546/2
f 198/445/2 206/402/2 275/549/2 267/554/2
f 199/419/2 200/392/2 269/553/2 268/538/2
f 215/407/2 216/502/2 285/551/2 284/542/2
f 196/531/2 195/420/2 264/539/2 265/552/2
f 202/438/2 197/437/2 266/555/2 271/540/2
f 203/501/2 204/509/2 273/536/2 272/550/2
f 197/437/2 198/445/2 267/554/2 266/555/2
f 277/545/2 278/541/2 287/556/2
f 270/547/2 286/546/2 287/556/2
f 281/544/2 282/548/2 287/556/2
f 275/549/2 277/545/2 287/556/2
f 285/551/2 272/550/2 287/556/2
f 282/548/2 265/552/2 287/556/2
f 269/553/2 270/547/2 287/556/2
f 286/546/2 283/543/2 287/556/2
f 267/554/2 275/549/2 287/556/2
f 268/538/2 269/553/2 287/556/2
f 284/542/2 285/551/2 287/556/2
f 265/552/2 264/539/2 287/556/2
f 271/540/2 266/555/2 287/556/2
f 272/550/2 273/536/2 287/556/2
f 266/555/2 267/554/2 287/556/2
f 276/534/2 280/533/2 287/556/2
f 273/536/2 274/535/2 287/556/2
f 279/537/2 276/534/2 287/556/2
f 264/539/2 268/538/2 287/556/2
f 274/535/2 271/540/2 287/556/2
f 278/541/2 279/537/2 287/556/2
f 283/543/2 284/542/2 287/556/2
f 280/533/2 281/544/2 287/556/2
f 289/557/19 297/558/19 296/559/19 288/560/19
f 289/557/19 292/561/19 293/562/19 297/558/19
f 424/563/1 427/564/1 299/565/1 291/566/1
f 304/567/4 312/568/7 344/569/199 373/570/200
f 357/571/201 338/572/202 300/573/13 319/574/12
f 290/575/3 296/576/3 297/577/15 291/578/3
f 291/579/2 299/580/2 298/581/2 290/582/2
f 310/583/20 293/584/23 339/585/203 356/586/204
f 295/587/24 343/588/205 336/589/206 294/590/25
f 478/591/29 458/592/32 308/593/207 396/594/30
f 313/595/41 314/596/44 348/597/208 346/598/209
f 312/568/7 313/595/41 346/598/209 344/569/199
f 314/596/44 311/599/46 351/600/210 348/597/208
f 399/601/47 359/602/211 318/603/49 398/604/48
f 309/605/51 310/583/20 356/586/204 354/606/212
f 308/593/207 309/605/51 354/606/212 352/607/213
f 352/608/214 378/609/2 397/610/2
f 292/611/55 340/612/215 339/585/203 293/584/23
f 324/613/57 325/614/60 362/615/216 360/616/217
f 323/617/218 324/613/57 360/616/217 358/618/219
f 325/614/60 322/619/64 365/620/220 362/615/216
f 327/621/65 331/622/68 366/623/221 372/624/222
f 332/625/69 333/626/72 370/627/223 368/628/224
f 331/629/68 332/625/69 368/628/224 366/630/221
f 333/626/72 301/631/74 341/632/225 370/627/223
f 358/633/19 376/634/19 392/635/19
f 396/594/30 308/593/207 352/607/213 397/636/75
f 315/637/76 364/638/226 343/588/205 295/587/24
f 369/639/227 371/640/228 305/641/80 306/642/79
f 373/570/200 367/643/229 307/644/82 304/567/4
f 367/645/229 369/639/227 306/642/79 307/646/82
f 363/647/230 364/638/226 315/637/76 316/648/85
f 361/649/231 363/647/230 316/648/85 317/650/232
f 387/651/2 390/652/2 377/653/2 399/654/2
f 359/602/211 361/649/231 317/650/232 318/603/49
f 371/640/228 340/612/215 292/611/55 305/641/80
f 355/655/233 357/571/201 319/574/12 320/656/89
f 353/657/234 355/655/233 320/656/89 321/658/235
f 349/659/236 350/660/237 326/661/94 328/662/93
f 347/663/238 349/659/236 328/662/93 329/664/97
f 372/624/222 345/665/239 330/666/98 327/621/65
f 345/665/239 347/663/238 329/664/97 330/666/98
f 337/667/240 303/668/101 326/661/94 350/660/237
f 341/632/225 301/631/74 300/573/13 338/572/202
f 342/669/241 302/670/103 303/668/101 337/667/240
f 365/620/220 322/619/64 302/670/103 342/669/241
f 371/640/228 370/627/223 341/632/225 340/612/215
f 369/639/227 368/628/224 370/627/223 371/640/228
f 367/645/229 366/630/221 368/628/224 369/639/227
f 373/570/200 372/624/222 366/623/221 367/643/229
f 363/647/230 362/615/216 365/620/220 364/638/226
f 361/649/231 360/616/217 362/615/216 363/647/230
f 359/602/211 358/618/219 360/616/217 361/649/231
f 384/671/19 389/672/19 379/673/19 394/674/19
f 357/571/201 356/586/204 339/585/203 338/572/202
f 355/655/233 354/606/212 356/586/204 357/571/201
f 353/657/234 352/607/213 354/606/212 355/655/233
f 383/675/242 393/676/243 392/677/244 385/678/245
f 349/659/236 348/597/208 351/600/210 350/660/237
f 347/663/238 346/598/209 348/597/208 349/659/236
f 345/665/239 344/569/199 346/598/209 347/663/238
f 372/624/222 373/570/200 344/569/199 345/665/239
f 337/667/240 336/589/206 343/588/205 342/669/241
f 338/572/202 339/585/203 340/612/215 341/632/225
f 350/660/237 351/600/210 336/589/206 337/667/240
f 342/669/241 343/588/205 364/638/226 365/620/220
f 294/590/25 336/589/206 351/600/210 311/599/46
f 399/654/2 377/653/2 359/679/2
f 353/657/234 379/680/246 378/681/247 352/607/213
f 359/602/211 377/682/248 376/683/249 358/618/219
f 389/684/250 391/685/251 378/681/247 379/680/246
f 384/686/252 394/687/118 395/688/118 382/689/253
f 387/651/2 386/690/2 391/691/2 390/652/2
f 380/692/254 375/693/254 334/694/255 387/695/255
f 385/678/245 384/686/252 382/689/253 383/675/242
f 389/684/250 388/696/256 390/697/257 391/685/251
f 388/698/19 389/672/19 384/671/19 385/699/19
f 375/700/123 374/701/123 335/702/124 334/703/124
f 387/651/2 334/704/2 335/705/2 386/690/2
f 386/706/258 335/707/258 374/708/259 381/709/259
f 393/676/243 323/617/218 358/618/219 392/677/244
f 390/697/257 388/696/256 376/683/249 377/682/248
f 394/687/118 353/657/234 321/658/235 395/688/118
f 379/673/19 353/710/19 394/674/19
f 381/711/260 396/594/30 397/636/75 386/712/261
f 415/713/129 414/714/129 413/715/129 412/716/129
f 397/610/2 378/609/2 391/691/2 386/690/2
f 387/717/262 399/601/47 398/604/48 380/718/263
f 376/634/19 388/698/19 385/699/19 392/635/19
f 381/709/259 374/708/259 475/719/28 476/720/28
f 441/721/8 467/722/133 316/648/85 315/637/76
f 312/568/7 304/567/4 472/723/36 439/724/35
f 313/595/41 312/568/7 439/724/35 437/725/34
f 305/641/80 292/611/55 451/726/136 432/727/135
f 306/642/79 305/641/80 432/727/135 431/728/137
f 307/646/82 306/642/79 431/728/137 428/729/138
f 304/567/4 307/644/82 428/730/138 472/723/36
f 290/731/18 298/732/18 457/733/18 454/734/18
f 294/590/25 311/599/46 465/735/140 452/736/139
f 314/596/44 313/595/41 437/725/34 435/737/33
f 288/738/1 296/739/1 449/740/1 418/741/1
f 463/742/17 421/743/16 293/584/23 310/583/20
f 291/578/3 297/577/15 417/744/15 424/745/3
f 311/599/46 314/596/44 435/737/33 465/735/140
f 471/746/109 480/747/108 398/604/48 318/603/49
f 476/748/29 478/591/29 396/594/30 381/711/260
f 480/747/108 445/749/108 380/718/263 398/604/48
f 442/750/39 475/751/39 374/701/123 375/700/123
f 458/592/32 461/752/134 309/605/51 308/593/207
f 469/753/144 471/746/109 318/603/49 317/650/232
f 467/722/133 469/753/144 317/650/232 316/648/85
f 445/754/132 442/755/132 375/693/254 380/692/254
f 423/756/10 441/721/8 315/637/76 295/587/24
f 461/752/134 463/742/17 310/583/20 309/605/51
f 299/757/3 427/758/3 457/759/3 298/760/3
f 454/761/3 449/762/3 296/576/3 290/575/3
f 452/736/139 423/756/10 295/587/24 294/590/25
f 446/763/143 289/764/143 288/765/145 418/766/145
f 446/763/143 451/767/142 292/768/142 289/764/143
f 419/1/1 418/741/1 449/740/1 448/2/1
f 425/260/3 424/745/3 417/744/15 416/254/15
f 416/254/15 417/744/15 421/769/141 420/255/141
f 433/271/135 432/727/135 451/726/136 450/770/136
f 453/771/139 452/736/139 465/735/140 464/284/140
f 455/39/18 454/734/18 457/733/18 456/40/18
f 456/277/3 457/759/3 427/758/3 426/274/3
f 429/278/138 428/729/138 431/728/137 430/270/137
f 473/72/36 472/723/36 428/730/138 429/772/138
f 430/270/137 431/728/137 432/727/135 433/271/135
f 464/284/140 465/735/140 435/737/33 434/280/33
f 434/280/33 435/737/33 437/725/34 436/281/34
f 436/281/34 437/725/34 439/724/35 438/71/35
f 438/71/35 439/724/35 472/723/36 473/72/36
f 477/55/28 476/720/28 475/719/28 474/56/28
f 471/746/109 470/773/109 481/774/108 480/747/108
f 476/748/29 477/85/29 479/84/29 478/591/29
f 445/754/132 444/775/132 443/776/132 442/755/132
f 442/750/39 443/77/39 474/76/39 475/751/39
f 478/591/29 479/84/29 459/777/32 458/592/32
f 469/753/144 468/778/144 470/773/109 471/746/109
f 467/722/133 466/779/133 468/778/144 469/753/144
f 441/721/8 440/780/8 466/779/133 467/722/133
f 463/742/17 462/781/17 420/782/16 421/743/16
f 461/752/134 460/783/134 462/781/17 463/742/17
f 458/592/32 459/777/32 460/783/134 461/752/134
f 480/747/108 481/774/108 444/784/108 445/749/108
f 424/563/1 425/785/1 426/786/1 427/564/1
f 454/761/3 455/246/3 448/245/3 449/762/3
f 423/756/10 422/787/10 440/780/8 441/721/8
f 410/788/150 413/789/149 414/790/149 408/791/150
f 418/766/145 419/792/145 447/793/143 446/763/143
f 446/763/143 447/793/143 450/794/142 451/767/142
f 297/577/15 293/795/141 421/769/141 417/744/15
f 410/788/150 407/796/2 405/797/2 413/789/149
f 412/798/148 404/799/19 406/800/19 411/801/147
f 409/802/147 415/803/148 412/798/148 411/801/147
f 452/804/153 409/802/147 411/801/147 423/805/153
f 453/806/152 408/807/152 409/808/152 452/809/152
f 423/810/108 411/811/108 410/812/108 422/813/108
f 422/814/151 410/788/150 408/791/150 453/815/151
f 406/816/108 404/817/108 405/818/108 407/819/108
f 402/820/152 400/821/152 401/822/152 403/823/152
f 414/790/149 400/824/2 402/825/2 408/791/150
f 411/826/154 406/827/154 407/828/154 410/829/154
f 408/830/154 402/831/154 403/832/154 409/833/154
f 409/802/147 403/834/19 401/835/19 415/803/148
f 415/713/129 401/836/129 400/837/129 414/714/129
f 413/715/129 405/838/129 404/839/129 412/716/129
f 488/840/19 537/841/19 538/842/19 487/843/19
f 325/844/2 519/845/2 520/846/2 322/847/2
f 504/848/19 549/849/19 537/841/19 488/840/19
f 495/850/19 535/851/19 536/852/19 493/853/19
f 324/854/2 517/855/2 519/845/2 325/844/2
f 502/856/19 547/857/19 548/858/19 501/859/19
f 300/860/2 505/861/2 516/862/2 319/863/2
f 496/864/19 534/865/19 535/851/19 495/850/19
f 323/866/2 518/867/2 517/855/2 324/854/2
f 486/868/19 539/869/19 528/870/19 482/871/19
f 383/872/2 524/873/2 527/874/2 393/875/2
f 497/876/19 533/877/19 534/865/19 496/864/19
f 319/863/2 516/862/2 515/878/2 320/879/2
f 498/880/19 545/881/19 532/882/19 494/883/19
f 494/883/19 532/882/19 533/877/19 497/876/19
f 320/879/2 515/878/2 514/884/2 321/885/2
f 484/886/19 530/887/19 543/888/19 489/889/19
f 327/890/2 509/891/2 522/892/2 331/893/2
f 485/894/19 531/895/19 530/887/19 484/886/19
f 326/896/2 513/897/2 512/898/2 328/899/2
f 493/853/19 536/852/19 531/895/19 485/894/19
f 322/847/2 520/846/2 507/900/2 302/901/2
f 393/875/2 527/874/2 518/867/2 323/866/2
f 513/902/264 536/903/265 535/904/266 512/905/267
f 524/906/268 547/907/269 550/908/270 527/909/270
f 523/910/271 546/911/272 529/912/273 506/913/274
f 515/914/275 538/915/276 537/916/277 514/917/278
f 516/918/279 539/919/280 538/915/276 515/914/275
f 505/920/281 528/921/282 539/919/280 516/918/279
f 518/922/283 541/923/284 540/924/285 517/925/286
f 526/926/287 549/927/287 548/928/288 525/929/289
f 508/930/290 531/931/291 536/903/265 513/902/264
f 517/925/286 540/924/285 542/932/292 519/933/293
f 514/934/278 537/935/277 549/927/287 526/926/287
f 510/936/294 533/937/295 532/938/296 509/939/297
f 519/933/293 542/932/292 543/940/298 520/941/299
f 511/942/300 534/943/301 533/937/295 510/936/294
f 520/941/299 543/940/298 530/944/302 507/945/303
f 522/946/304 545/947/305 544/948/306 521/949/307
f 506/913/274 529/912/273 528/921/282 505/920/281
f 527/909/270 550/908/270 541/923/284 518/922/283
f 512/905/267 535/904/266 534/943/301 511/942/300
f 509/939/297 532/938/296 545/947/305 522/946/304
f 521/949/307 544/948/306 546/911/272 523/910/271
f 525/929/289 548/928/288 547/907/269 524/906/268
f 507/945/303 530/944/302 531/931/291 508/930/290
f 490/950/19 541/951/19 550/952/19 503/953/19
f 331/893/2 522/892/2 521/954/2 332/955/2
f 487/843/19 538/842/19 539/869/19 486/868/19
f 501/859/19 548/858/19 549/849/19 504/848/19
f 332/955/2 521/954/2 523/956/2 333/957/2
f 491/958/19 540/959/19 541/951/19 490/950/19
f 503/953/19 550/952/19 547/857/19 502/856/19
f 333/957/2 523/956/2 506/960/2 301/961/2
f 492/962/19 542/963/19 540/959/19 491/958/19
f 489/889/19 543/888/19 542/963/19 492/962/19
f 499/964/19 544/965/19 545/881/19 498/880/19
f 330/966/2 510/967/2 509/891/2 327/890/2
f 301/961/2 506/960/2 505/861/2 300/860/2
f 321/885/2 514/884/2 526/968/2 395/969/2
f 303/970/2 508/971/2 513/897/2 326/896/2
f 500/972/19 546/973/19 544/965/19 499/964/19
f 329/974/2 511/975/2 510/976/2 330/977/2
f 395/969/2 526/968/2 525/978/2 382/979/2
f 302/901/2 507/900/2 508/971/2 303/970/2
f 483/980/19 529/981/19 546/973/19 500/972/19
f 382/979/2 525/978/2 524/873/2 383/872/2
f 328/899/2 512/898/2 511/975/2 329/974/2
f 482/871/19 528/870/19 529/981/19 483/980/19
f 494/883/19 563/982/19 567/983/19 498/880/19
f 491/958/19 560/984/19 561/985/19 492/962/19
f 497/876/19 566/986/19 563/982/19 494/883/19
f 482/871/19 551/987/19 555/988/19 486/868/19
f 492/962/19 561/985/19 558/989/19 489/889/19
f 496/864/19 565/990/19 566/986/19 497/876/19
f 501/859/19 570/991/19 571/992/19 502/856/19
f 498/880/19 567/983/19 568/993/19 499/964/19
f 495/850/19 564/994/19 565/990/19 496/864/19
f 488/840/19 557/995/19 573/996/19 504/848/19
f 499/964/19 568/993/19 569/997/19 500/972/19
f 493/853/19 562/998/19 564/994/19 495/850/19
f 503/953/19 572/999/19 559/1000/19 490/950/19
f 500/972/19 569/997/19 552/1001/19 483/980/19
f 487/843/19 556/1002/19 557/995/19 488/840/19
f 504/848/19 573/996/19 570/991/19 501/859/19
f 485/894/19 554/1003/19 562/998/19 493/853/19
f 486/868/19 555/988/19 556/1002/19 487/843/19
f 502/856/19 571/992/19 572/999/19 503/953/19
f 483/980/19 552/1001/19 551/987/19 482/871/19
f 489/889/19 558/989/19 553/1004/19 484/886/19
f 490/950/19 559/1000/19 560/984/19 491/958/19
f 484/886/19 553/1004/19 554/1003/19 485/894/19
f 564/994/19 574/1005/19 565/990/19
f 557/995/19 574/1005/19 573/996/19
f 568/993/19 574/1005/19 569/997/19
f 562/998/19 574/1005/19 564/994/19
f 572/999/19 574/1005/19 559/1000/19
f 569/997/19 574/1005/19 552/1001/19
f 556/1002/19 574/1005/19 557/995/19
f 573/996/19 574/1005/19 570/991/19
f 554/1003/19 574/1005/19 562/998/19
f 555/988/19 574/1005/19 556/1002/19
f 571/992/19 574/1005/19 572/999/19
f 552/1001/19 574/1005/19 551/987/19
f 558/989/19 574/1005/19 553/1004/19
f 559/1000/19 574/1005/19 560/984/19
f 553/1004/19 574/1005/19 554/1003/19
f 563/982/19 574/1005/19 567/983/19
f 560/984/19 574/1005/19 561/985/19
f 566/986/19 574/1005/19 563/982/19
f 551/987/19 574/1005/19 555/988/19
f 561/985/19 574/1005/19 558/989/19
f 565/990/19 574/1005/19 566/986/19
f 570/991/19 574/1005/19 571/992/19
f 567/983/19 574/1005/19 568/993/19
f 192/338/29 633/1006/29 640/1007/29 190/339/29
f 183/174/109 638/173/109 636/287/144 181/286/144
f 592/1008/9 422/787/10 453/771/139 589/1009/146
f 607/1010/142 450/794/142 447/793/143 582/1011/143
f 601/1012/137 606/1013/135 146/329/135 143/334/137
f 625/1014/108 481/774/108 470/773/109 637/1015/109
f 611/68/34 644/301/38 151/304/35 149/69/34
f 436/281/34 438/71/35 641/74/38 612/282/34
f 613/314/140 609/67/33 147/70/33 177/315/140
f 600/1016/138 601/1012/137 143/334/137 142/333/138
f 627/1017/18 597/1018/18 169/332/18 168/331/18
f 473/72/36 429/772/138 599/1019/138 643/73/37
f 595/1020/1 426/786/1 425/785/1 579/1021/1
f 631/1022/134 460/783/134 459/777/32 630/1023/32
f 594/1024/8 440/780/8 422/787/10 592/1008/9
f 577/1025/16 420/782/16 462/781/17 588/1026/17
f 580/1027/3 575/1028/15 129/326/15 138/325/3
f 584/1029/1 586/1030/1 161/324/1 132/323/1
f 453/771/139 464/284/140 614/285/140 589/1009/146
f 640/1031/28 621/1032/28 187/337/28 190/336/28
f 619/1033/132 443/776/132 444/775/132 624/1034/132
f 630/1023/32 459/777/32 479/84/29 634/83/29
f 172/265/32 629/264/32 633/1006/29 192/338/29
f 637/1015/109 470/773/109 468/778/144 635/1035/144
f 635/1035/144 468/778/144 466/779/133 617/1036/133
f 433/271/135 450/770/136 607/1037/136 605/272/135
f 606/1013/135 608/1038/136 163/330/136 146/329/135
f 617/1036/133 466/779/133 440/780/8 594/1024/8
f 624/1039/108 444/784/108 481/774/108 625/1014/108
f 642/302/37 600/1040/138 142/335/138 186/303/36
f 139/340/1 596/1041/1 580/1042/1 138/341/1
f 135/26/10 591/25/9 590/313/146 166/316/139
f 588/1026/17 462/781/17 460/783/134 631/1022/134
f 582/1011/143 447/793/143 419/792/145 583/1043/145
f 634/83/29 639/86/29 640/1007/29 633/1006/29
f 592/1008/9 589/1009/146 590/313/146 591/25/9
f 582/1011/143 583/1043/145 584/305/145 581/268/143
f 606/1013/135 601/1012/137 602/273/137 605/272/135
f 624/1039/108 625/1014/108 626/172/108 623/289/108
f 644/301/38 611/68/34 612/282/34 641/74/38
f 611/68/34 609/67/33 610/283/33 612/282/34
f 609/67/33 613/314/140 614/285/140 610/283/33
f 600/1040/138 642/302/37 643/73/37 599/1019/138
f 596/63/3 597/66/3 598/276/3 595/275/3
f 601/1012/137 600/1016/138 599/279/138 602/273/137
f 595/1020/1 579/1021/1 580/1042/1 596/1041/1
f 630/1023/32 634/83/29 633/1006/29 629/264/32
f 594/1024/8 592/1008/9 591/25/9 593/24/8
f 578/1044/141 575/1028/15 576/257/15 577/256/141
f 575/1028/15 580/1027/3 579/261/3 576/257/15
f 586/1030/1 584/1029/1 583/4/1 585/3/1
f 588/1026/17 631/1022/134 632/229/134 587/37/17
f 622/75/39 619/78/39 620/202/39 621/201/39
f 619/1033/132 624/1034/132 623/221/132 620/220/132
f 625/1014/108 637/1015/109 638/173/109 626/172/108
f 631/1022/134 630/1023/32 629/264/32 632/229/134
f 637/1015/109 635/1035/144 636/287/144 638/173/109
f 635/1035/144 617/1036/133 618/263/133 636/287/144
f 608/1038/136 606/1013/135 605/272/135 607/1037/136
f 617/1036/133 594/1024/8 593/24/8 618/263/133
f 621/1032/28 640/1031/28 639/58/28 622/57/28
f 597/1018/18 627/1017/18 628/42/18 598/41/18
f 577/1025/16 588/1026/17 587/37/17 578/36/16
f 613/314/140 590/313/146 589/1009/146 614/285/140
f 585/244/3 628/247/3 627/11/3 586/10/3
f 607/1010/142 582/1011/143 581/268/143 608/267/142
f 575/1028/15 578/1044/141 133/327/141 129/326/15
f 656/1045/129 660/1046/129 665/1047/129 681/1048/129
f 670/1049/308 681/1050/308 665/1051/309 676/1052/309
f 604/1053/152 603/1054/152 616/1055/152 615/1056/152
f 641/1057/19 643/1058/19 675/1059/310 666/1060/310
f 645/1061/311 604/1062/2 615/1063/2 661/1064/311
f 603/1065/19 651/1066/312 655/1067/312 616/1068/19
f 616/1069/129 655/1070/129 680/1071/129 644/1072/129
f 651/1073/154 603/1074/154 642/1075/154 671/1076/154
f 661/1077/129 615/1078/129 641/1079/129 666/1080/129
f 615/1078/129 616/1069/129 644/1072/129 641/1079/129
f 603/1074/154 604/1081/154 643/1082/154 642/1075/154
f 646/1083/154 650/1084/154 670/1085/154 676/1086/154
f 604/1081/154 645/1087/154 675/1088/154 643/1082/154
f 666/1060/310 675/1059/310 677/1089/313 669/1090/313
f 669/1090/313 677/1089/313 678/1091/314 668/1092/314
f 668/1092/314 678/1091/314 679/1093/315 667/1094/315
f 667/1094/315 679/1093/315 676/1052/309 665/1051/309
f 671/82/40 680/81/40 682/1095/316 674/1096/316
f 674/1096/316 682/1095/316 683/1097/317 673/1098/317
f 673/1098/317 683/1097/317 684/1099/318 672/1100/318
f 672/1100/318 684/1099/318 681/1050/308 670/1049/308
f 665/1047/129 660/1046/129 662/1101/129 667/1102/129
f 667/1102/129 662/1101/129 663/1103/129 668/1104/129
f 668/1104/129 663/1103/129 664/1105/129 669/1106/129
f 669/1106/129 664/1105/129 661/1077/129 666/1080/129
f 675/1088/154 645/1087/154 647/1107/154 677/1108/154
f 677/1108/154 647/1107/154 648/1109/154 678/1110/154
f 678/1110/154 648/1109/154 649/1111/154 679/1112/154
f 679/1112/154 649/1111/154 646/1083/154 676/1086/154
f 651/1073/154 671/1076/154 674/1113/154 654/1114/154
f 654/1114/154 674/1113/154 673/1115/154 653/1116/154
f 653/1116/154 673/1115/154 672/1117/154 652/1118/154
f 652/1118/154 672/1117/154 670/1085/154 650/1084/154
f 680/1071/129 655/1070/129 657/1119/129 682/1120/129
f 682/1120/129 657/1119/129 658/1121/129 683/1122/129
f 683/1122/129 658/1121/129 659/1123/129 684/1124/129
f 684/1124/129 659/1123/129 656/1045/129 681/1048/129
f 650/1125/319 656/1126/319 659/1127/320 652/1128/320
f 652/1128/320 659/1127/320 658/1129/321 653/1130/321
f 653/1130/321 658/1129/321 657/1131/322 654/1132/322
f 654/1132/322 657/1131/322 655/1067/312 651/1066/312
f 645/1061/311 661/1064/311 664/1133/323 647/1134/323
f 647/1134/323 664/1133/323 663/1135/324 648/1136/324
f 648/1136/324 663/1135/324 662/1137/325 649/1138/325
f 649/1138/325 662/1137/325 660/1139/326 646/1140/326
f 650/1125/319 646/1140/326 660/1139/326 656/1126/319
